<svg width="614" height="173" viewBox="0 0 614 173" fill="none" xmlns="http://www.w3.org/2000/svg">
<path d="M182.971 67.5902H170.565V60.6836H204.988V67.5902H192.647V101.06H182.971V67.5902Z" fill="black"/>
<path d="M210.568 60.688H228.68C234.057 60.688 237.944 61.3424 240.341 62.6467C242.738 63.9556 243.936 66.1418 243.936 69.2099V76.3022C243.936 78.6647 243.099 80.5213 241.423 81.872C239.748 83.2227 237.527 84.0814 234.755 84.4527L246.416 101.065H235.251L224.705 85.2H220.239V101.065H210.563V60.688H210.568ZM228.559 78.79C230.831 78.79 232.382 78.4883 233.21 77.8896C234.038 77.2908 234.45 76.1165 234.45 74.3759V71.5121C234.45 70.0175 234.006 68.9917 233.117 68.4301C232.229 67.8685 230.706 67.59 228.559 67.59H220.249V78.79H228.559Z" fill="black"/>
<path d="M262.673 60.688H274.459L288.975 101.065H279.174L275.578 90.4264H260.877L257.342 101.065H247.791L262.673 60.688ZM273.464 83.9561L268.378 68.7736H268.128L263.043 83.9561H273.464Z" fill="black"/>
<path d="M290.276 101.065V93.9728C293.209 94.5112 295.754 94.7804 297.906 94.7804C301.173 94.7804 302.807 93.309 302.807 90.3617V60.6836H312.482V90.0507C312.482 94.2838 311.344 97.2776 309.072 99.0414C306.795 100.805 303.325 101.687 298.651 101.687C295.833 101.687 293.043 101.478 290.276 101.065Z" fill="black"/>
<path d="M320.913 89.9901V60.688H330.589V89.9901C330.589 91.8142 331.177 93.0674 332.357 93.7544C333.537 94.4413 335.573 94.7802 338.465 94.7802C341.32 94.7802 343.314 94.4367 344.453 93.7544C345.591 93.0721 346.16 91.8142 346.16 89.9901V60.688H355.836V89.9901C355.836 97.7879 350.005 101.687 338.344 101.687C326.725 101.687 320.913 97.7879 320.913 89.9901Z" fill="black"/>
<path d="M364.392 60.688H378.163L388.088 89.5538L397.889 60.688H410.85V101.065H402.105V71.2011H401.92L391.749 101.065H383.998L373.517 71.2011H373.267V101.065H364.396V60.688H364.392Z" fill="black"/>
<path d="M430.202 60.688H441.988L456.504 101.065H446.703L443.108 90.4264H428.407L424.871 101.065H415.316L430.202 60.688ZM440.993 83.9561L435.908 68.7736H435.658L430.572 83.9561H440.993Z" fill="black"/>
<path d="M459.726 100.568V93.1651C466.755 94.2465 471.553 94.785 474.117 94.785C479.494 94.785 482.182 93.3971 482.182 90.6168V88.0036C482.182 86.6762 481.798 85.6597 481.035 84.9541C480.271 84.2486 478.897 83.8959 476.912 83.8959H472.196C463.349 83.8959 458.925 80.3729 458.925 73.3178V70.3333C458.925 66.8103 460.392 64.2157 463.33 62.5587C466.264 60.9016 470.919 60.0708 477.286 60.0708C480.595 60.0708 484.792 60.34 489.878 60.8784V68.096C483.635 67.3487 479.332 66.9774 476.976 66.9774C473.71 66.9774 471.516 67.2466 470.401 67.7851C469.202 68.3652 468.601 69.2796 468.601 70.5236V73.3874C468.601 75.504 470.378 76.5622 473.936 76.5622H478.777C483.367 76.5622 486.694 77.4116 488.762 79.1151C490.831 80.8185 491.863 83.4085 491.863 86.8897V89.5632C491.863 94.3765 490.146 97.6302 486.712 99.329C485.056 100.202 483.228 100.814 481.224 101.162C479.216 101.515 476.81 101.692 473.996 101.692C470.146 101.687 465.389 101.316 459.726 100.568Z" fill="black"/>
<path d="M507.859 67.5902H495.453V60.6836H529.876V67.5902H517.535V101.06H507.859V67.5902Z" fill="black"/>
<path d="M535.457 60.688H553.569C558.946 60.688 562.833 61.3424 565.23 62.6467C567.627 63.9556 568.825 66.1418 568.825 69.2099V76.3022C568.825 78.6647 567.988 80.5213 566.313 81.872C564.637 83.2227 562.416 84.0814 559.644 84.4527L571.305 101.065H560.14L549.594 85.2H545.128V101.065H535.453V60.688H535.457ZM553.444 78.79C555.716 78.79 557.266 78.4883 558.094 77.8896C558.923 77.2908 559.334 76.1165 559.334 74.3759V71.5121C559.334 70.0175 558.89 68.9917 558.002 68.4301C557.113 67.8685 555.591 67.59 553.444 67.59H545.133V78.79H553.444Z" fill="black"/>
<path d="M587.561 60.688H599.347L613.863 101.065H604.062L600.466 90.4264H585.765L582.23 101.065H572.679L587.561 60.688ZM598.352 83.9561L593.266 68.7736H593.016L587.931 83.9561H598.352Z" fill="black"/>
<path d="M172.967 115.616H173.651C173.887 115.616 174.077 115.588 174.221 115.528C174.359 115.467 174.494 115.365 174.619 115.221L179.107 110.125C179.246 109.967 179.38 109.856 179.505 109.791C179.63 109.726 179.797 109.693 180 109.693H181.55L176.414 115.514C176.284 115.658 176.16 115.783 176.044 115.881C175.928 115.983 175.803 116.062 175.674 116.127C175.849 116.182 176.002 116.266 176.136 116.382C176.266 116.493 176.405 116.637 176.548 116.804L181.911 123.21H180.329C180.208 123.21 180.111 123.2 180.028 123.182C179.945 123.163 179.875 123.14 179.815 123.107C179.755 123.075 179.699 123.033 179.649 122.987C179.598 122.936 179.547 122.885 179.496 122.824L174.841 117.454C174.771 117.38 174.707 117.315 174.646 117.259C174.586 117.203 174.517 117.162 174.438 117.124C174.359 117.087 174.267 117.059 174.165 117.046C174.063 117.032 173.934 117.022 173.786 117.022H172.957V123.214H171.143V109.693H172.957V115.616H172.967Z" fill="#BCBEC0"/>
<path d="M187.885 113.504C188.454 113.504 188.982 113.602 189.468 113.792C189.949 113.982 190.365 114.261 190.717 114.623C191.069 114.985 191.342 115.43 191.541 115.964C191.74 116.498 191.837 117.101 191.837 117.779C191.837 118.044 191.809 118.22 191.754 118.308C191.698 118.396 191.592 118.438 191.434 118.438H185.095C185.109 119.042 185.187 119.566 185.34 120.016C185.493 120.462 185.696 120.838 185.96 121.135C186.224 121.432 186.539 121.659 186.9 121.803C187.26 121.947 187.672 122.026 188.121 122.026C188.542 122.026 188.903 121.98 189.209 121.878C189.514 121.78 189.773 121.673 189.995 121.562C190.213 121.45 190.398 121.344 190.546 121.246C190.694 121.149 190.819 121.102 190.925 121.102C191.064 121.102 191.171 121.158 191.245 121.265L191.717 121.878C191.508 122.128 191.263 122.346 190.972 122.532C190.685 122.718 190.375 122.871 190.046 122.991C189.718 123.112 189.375 123.2 189.023 123.261C188.672 123.321 188.325 123.349 187.978 123.349C187.321 123.349 186.714 123.237 186.159 123.015C185.604 122.792 185.123 122.462 184.72 122.035C184.317 121.604 183.998 121.07 183.776 120.434C183.554 119.798 183.438 119.069 183.438 118.243C183.438 117.575 183.54 116.953 183.744 116.373C183.947 115.792 184.239 115.291 184.623 114.869C185.007 114.446 185.474 114.112 186.025 113.871C186.576 113.625 187.196 113.504 187.885 113.504ZM187.922 114.739C187.112 114.739 186.478 114.976 186.011 115.44C185.548 115.908 185.257 116.558 185.146 117.389H190.328C190.328 116.999 190.273 116.642 190.166 116.317C190.06 115.992 189.903 115.714 189.694 115.477C189.486 115.24 189.236 115.059 188.936 114.929C188.649 114.804 188.306 114.739 187.922 114.739Z" fill="#BCBEC0"/>
<path d="M194.914 123.214V113.657H195.909C196.15 113.657 196.298 113.773 196.363 114.005L196.483 114.989C196.835 114.553 197.228 114.2 197.663 113.922C198.098 113.643 198.607 113.509 199.181 113.509C199.829 113.509 200.347 113.69 200.745 114.047C201.143 114.404 201.43 114.892 201.605 115.5C201.735 115.152 201.911 114.855 202.128 114.604C202.346 114.353 202.587 114.144 202.86 113.982C203.128 113.82 203.415 113.699 203.72 113.625C204.026 113.55 204.331 113.513 204.646 113.513C205.145 113.513 205.594 113.592 205.988 113.755C206.381 113.917 206.714 114.149 206.983 114.455C207.256 114.762 207.464 115.142 207.607 115.593C207.751 116.043 207.825 116.558 207.825 117.134V123.219H206.15V117.134C206.15 116.386 205.988 115.815 205.659 115.43C205.335 115.045 204.859 114.85 204.238 114.85C203.961 114.85 203.702 114.901 203.452 114.998C203.202 115.096 202.984 115.24 202.799 115.426C202.61 115.616 202.462 115.853 202.351 116.14C202.239 116.428 202.184 116.758 202.184 117.134V123.219H200.509V117.134C200.509 116.368 200.356 115.792 200.046 115.416C199.741 115.04 199.292 114.85 198.699 114.85C198.288 114.85 197.899 114.961 197.547 115.184C197.191 115.407 196.867 115.713 196.576 116.094V123.219H194.914V123.214Z" fill="#BCBEC0"/>
<path d="M213.54 110.654C213.54 110.817 213.508 110.97 213.443 111.114C213.378 111.253 213.29 111.383 213.179 111.49C213.068 111.601 212.943 111.684 212.8 111.749C212.656 111.814 212.503 111.842 212.337 111.842C212.175 111.842 212.022 111.81 211.879 111.749C211.735 111.684 211.61 111.601 211.504 111.49C211.393 111.378 211.31 111.253 211.245 111.114C211.18 110.97 211.152 110.821 211.152 110.654C211.152 110.487 211.185 110.334 211.245 110.185C211.31 110.037 211.393 109.907 211.504 109.8C211.615 109.689 211.74 109.605 211.879 109.54C212.018 109.475 212.17 109.447 212.337 109.447C212.499 109.447 212.652 109.48 212.8 109.54C212.943 109.6 213.073 109.689 213.179 109.8C213.286 109.911 213.378 110.041 213.443 110.185C213.508 110.334 213.54 110.492 213.54 110.654ZM213.165 113.653V123.209H211.49V113.653H213.165Z" fill="#BCBEC0"/>
<path d="M219.948 123.362C219.194 123.362 218.615 123.154 218.213 122.731C217.81 122.309 217.607 121.701 217.607 120.912V115.063H216.459C216.357 115.063 216.274 115.035 216.205 114.975C216.135 114.915 216.103 114.822 216.103 114.697V114.028L217.667 113.829L218.051 110.877C218.065 110.784 218.102 110.705 218.171 110.645C218.241 110.584 218.329 110.556 218.435 110.556H219.282V113.852H222.012V115.068H219.282V120.805C219.282 121.209 219.379 121.506 219.573 121.701C219.768 121.896 220.018 121.993 220.328 121.993C220.503 121.993 220.656 121.97 220.786 121.924C220.915 121.877 221.026 121.826 221.119 121.766C221.211 121.705 221.295 121.659 221.359 121.613C221.424 121.566 221.484 121.543 221.535 121.543C221.623 121.543 221.702 121.599 221.771 121.705L222.262 122.508C221.975 122.778 221.623 122.991 221.216 123.144C220.8 123.288 220.378 123.362 219.948 123.362Z" fill="#BCBEC0"/>
<path d="M225.015 123.214V113.657H225.973C226.153 113.657 226.278 113.694 226.348 113.759C226.417 113.829 226.463 113.95 226.491 114.117L226.602 115.607C226.926 114.938 227.333 114.419 227.81 114.043C228.291 113.667 228.851 113.481 229.499 113.481C229.763 113.481 229.999 113.513 230.216 113.569C230.429 113.629 230.628 113.713 230.809 113.82L230.591 115.073C230.549 115.231 230.452 115.31 230.3 115.31C230.212 115.31 230.077 115.282 229.897 115.222C229.716 115.161 229.462 115.133 229.133 115.133C228.55 115.133 228.065 115.305 227.671 115.644C227.278 115.983 226.949 116.479 226.69 117.125V123.21H225.015V123.214Z" fill="#BCBEC0"/>
<path d="M240.184 123.214H239.439C239.277 123.214 239.143 123.191 239.046 123.14C238.944 123.089 238.879 122.982 238.847 122.82L238.657 121.933C238.407 122.16 238.162 122.36 237.921 122.541C237.681 122.722 237.431 122.871 237.167 122.996C236.903 123.117 236.621 123.209 236.325 123.274C236.029 123.335 235.696 123.367 235.335 123.367C234.964 123.367 234.617 123.316 234.293 123.209C233.97 123.107 233.692 122.949 233.451 122.741C233.211 122.532 233.026 122.267 232.882 121.952C232.743 121.631 232.669 121.255 232.669 120.819C232.669 120.438 232.771 120.076 232.979 119.724C233.188 119.371 233.521 119.064 233.983 118.791C234.446 118.521 235.048 118.299 235.793 118.122C236.538 117.951 237.449 117.862 238.532 117.862V117.11C238.532 116.363 238.375 115.797 238.056 115.416C237.736 115.036 237.269 114.841 236.649 114.841C236.242 114.841 235.899 114.892 235.617 114.998C235.339 115.101 235.094 115.217 234.89 115.347C234.687 115.477 234.511 115.593 234.363 115.695C234.215 115.797 234.071 115.853 233.923 115.853C233.812 115.853 233.71 115.825 233.627 115.764C233.544 115.704 233.474 115.63 233.424 115.542L233.123 115.003C233.65 114.493 234.215 114.112 234.826 113.861C235.432 113.611 236.107 113.485 236.848 113.485C237.38 113.485 237.857 113.574 238.268 113.75C238.68 113.926 239.032 114.172 239.314 114.488C239.596 114.804 239.809 115.184 239.953 115.63C240.096 116.075 240.17 116.567 240.17 117.101V123.214H240.184ZM235.834 122.184C236.131 122.184 236.399 122.156 236.644 122.095C236.889 122.035 237.121 121.952 237.334 121.84C237.551 121.729 237.759 121.594 237.954 121.441C238.153 121.283 238.342 121.107 238.532 120.903V118.93C237.759 118.93 237.107 118.981 236.566 119.078C236.024 119.176 235.589 119.306 235.247 119.464C234.909 119.621 234.664 119.807 234.506 120.025C234.349 120.243 234.275 120.48 234.275 120.745C234.275 120.995 234.317 121.218 234.395 121.399C234.479 121.585 234.585 121.733 234.724 121.849C234.863 121.965 235.025 122.054 235.214 122.105C235.404 122.156 235.617 122.184 235.834 122.184Z" fill="#BCBEC0"/>
<path d="M250.66 123.214H249.915C249.753 123.214 249.619 123.191 249.522 123.14C249.42 123.089 249.355 122.982 249.323 122.82L249.133 121.933C248.883 122.16 248.638 122.36 248.397 122.541C248.157 122.722 247.907 122.871 247.643 122.996C247.379 123.117 247.097 123.209 246.801 123.274C246.505 123.335 246.172 123.367 245.811 123.367C245.441 123.367 245.093 123.316 244.77 123.209C244.446 123.107 244.168 122.949 243.927 122.741C243.687 122.532 243.502 122.267 243.358 121.952C243.219 121.631 243.145 121.255 243.145 120.819C243.145 120.438 243.247 120.076 243.455 119.724C243.664 119.371 243.997 119.064 244.459 118.791C244.922 118.521 245.524 118.299 246.269 118.122C247.014 117.951 247.925 117.862 249.008 117.862V117.11C249.008 116.363 248.851 115.797 248.532 115.416C248.212 115.036 247.745 114.841 247.125 114.841C246.718 114.841 246.375 114.892 246.093 114.998C245.815 115.101 245.57 115.217 245.366 115.347C245.163 115.477 244.987 115.593 244.839 115.695C244.691 115.797 244.547 115.853 244.399 115.853C244.288 115.853 244.186 115.825 244.103 115.764C244.02 115.704 243.95 115.63 243.9 115.542L243.599 115.003C244.126 114.493 244.691 114.112 245.302 113.861C245.908 113.611 246.583 113.485 247.324 113.485C247.856 113.485 248.333 113.574 248.744 113.75C249.156 113.926 249.508 114.172 249.79 114.488C250.072 114.804 250.285 115.184 250.429 115.63C250.572 116.075 250.646 116.567 250.646 117.101V123.214H250.66ZM246.315 122.184C246.611 122.184 246.88 122.156 247.125 122.095C247.37 122.035 247.601 121.952 247.814 121.84C248.032 121.729 248.24 121.594 248.434 121.441C248.633 121.283 248.823 121.107 249.013 120.903V118.93C248.24 118.93 247.588 118.981 247.046 119.078C246.505 119.176 246.07 119.306 245.727 119.464C245.39 119.621 245.144 119.807 244.987 120.025C244.83 120.243 244.756 120.48 244.756 120.745C244.756 120.995 244.797 121.218 244.876 121.399C244.959 121.585 245.066 121.733 245.204 121.849C245.343 121.965 245.505 122.054 245.695 122.105C245.885 122.156 246.098 122.184 246.315 122.184Z" fill="#BCBEC0"/>
<path d="M254.145 123.214V113.657H255.14C255.38 113.657 255.528 113.773 255.593 114.005L255.723 115.045C256.135 114.586 256.597 114.214 257.111 113.931C257.62 113.648 258.212 113.504 258.883 113.504C259.401 113.504 259.864 113.592 260.262 113.764C260.66 113.936 260.993 114.182 261.262 114.497C261.53 114.813 261.729 115.198 261.868 115.644C262.007 116.089 262.076 116.586 262.076 117.125V123.21H260.401V117.125C260.401 116.4 260.234 115.839 259.906 115.44C259.577 115.041 259.073 114.841 258.397 114.841C257.902 114.841 257.439 114.962 257.009 115.198C256.579 115.44 256.181 115.76 255.82 116.168V123.21H254.145V123.214Z" fill="#BCBEC0"/>
<path d="M277.245 118.8C277.31 118.967 277.375 119.134 277.439 119.306C277.504 119.129 277.569 118.962 277.638 118.8C277.708 118.637 277.786 118.475 277.874 118.312L282.437 109.999C282.52 109.856 282.604 109.767 282.692 109.735C282.779 109.702 282.904 109.688 283.066 109.688H284.413V123.209H282.812V113.272C282.812 113.142 282.816 112.998 282.821 112.849C282.826 112.696 282.835 112.543 282.849 112.385L278.231 120.842C278.073 121.125 277.856 121.265 277.574 121.265H277.31C277.028 121.265 276.81 121.125 276.653 120.842L271.928 112.357C271.947 112.52 271.961 112.682 271.97 112.84C271.979 112.998 271.984 113.142 271.984 113.272V123.209H270.383V109.688H271.729C271.891 109.688 272.016 109.702 272.104 109.735C272.192 109.767 272.275 109.856 272.359 109.999L277.014 118.322C277.102 118.475 277.176 118.637 277.245 118.8Z" fill="#BCBEC0"/>
<path d="M295.366 123.214H294.621C294.459 123.214 294.325 123.191 294.227 123.14C294.126 123.089 294.061 122.982 294.028 122.82L293.839 121.933C293.589 122.16 293.344 122.36 293.103 122.541C292.862 122.722 292.612 122.871 292.349 122.996C292.085 123.117 291.803 123.209 291.506 123.274C291.21 123.335 290.877 123.367 290.516 123.367C290.146 123.367 289.799 123.316 289.475 123.209C289.151 123.107 288.873 122.949 288.633 122.741C288.392 122.532 288.207 122.267 288.064 121.952C287.925 121.631 287.851 121.255 287.851 120.819C287.851 120.438 287.953 120.076 288.161 119.724C288.369 119.371 288.702 119.064 289.165 118.791C289.628 118.521 290.229 118.299 290.974 118.122C291.719 117.951 292.631 117.862 293.714 117.862V117.11C293.714 116.363 293.556 115.797 293.237 115.416C292.918 115.036 292.45 114.841 291.83 114.841C291.423 114.841 291.081 114.892 290.798 114.998C290.521 115.101 290.276 115.217 290.072 115.347C289.868 115.477 289.693 115.593 289.544 115.695C289.396 115.797 289.253 115.853 289.105 115.853C288.994 115.853 288.892 115.825 288.809 115.764C288.725 115.704 288.656 115.63 288.605 115.542L288.304 115.003C288.832 114.493 289.396 114.112 290.007 113.861C290.613 113.611 291.289 113.485 292.029 113.485C292.562 113.485 293.038 113.574 293.45 113.75C293.862 113.926 294.213 114.172 294.496 114.488C294.778 114.804 294.991 115.184 295.134 115.63C295.278 116.075 295.352 116.567 295.352 117.101V123.214H295.366ZM291.021 122.184C291.317 122.184 291.585 122.156 291.83 122.095C292.076 122.035 292.307 121.952 292.52 121.84C292.737 121.729 292.946 121.594 293.14 121.441C293.339 121.283 293.529 121.107 293.718 120.903V118.93C292.946 118.93 292.293 118.981 291.752 119.078C291.21 119.176 290.775 119.306 290.433 119.464C290.095 119.621 289.85 119.807 289.693 120.025C289.535 120.243 289.461 120.48 289.461 120.745C289.461 120.995 289.503 121.218 289.581 121.399C289.665 121.585 289.771 121.733 289.91 121.849C290.049 121.965 290.211 122.054 290.401 122.105C290.59 122.156 290.803 122.184 291.021 122.184Z" fill="#BCBEC0"/>
<path d="M300.71 113.653V123.92C300.71 124.305 300.659 124.662 300.557 124.992C300.456 125.321 300.298 125.609 300.081 125.855C299.863 126.101 299.586 126.296 299.243 126.435C298.901 126.579 298.494 126.649 298.017 126.649C297.809 126.649 297.624 126.635 297.452 126.602C297.281 126.57 297.115 126.524 296.943 126.459L297.017 125.553C297.031 125.47 297.059 125.419 297.101 125.396C297.147 125.372 297.212 125.363 297.309 125.363C297.36 125.363 297.411 125.363 297.471 125.363C297.531 125.363 297.596 125.363 297.679 125.363C298.17 125.363 298.517 125.247 298.725 125.02C298.933 124.792 299.035 124.421 299.035 123.91V113.653H300.71ZM301.085 110.654C301.085 110.817 301.053 110.97 300.988 111.114C300.923 111.253 300.835 111.383 300.724 111.49C300.613 111.601 300.488 111.684 300.345 111.749C300.201 111.814 300.048 111.842 299.882 111.842C299.72 111.842 299.567 111.81 299.424 111.749C299.28 111.684 299.155 111.601 299.049 111.49C298.938 111.378 298.855 111.253 298.79 111.114C298.725 110.97 298.697 110.821 298.697 110.654C298.697 110.487 298.73 110.334 298.79 110.185C298.855 110.037 298.938 109.907 299.049 109.8C299.16 109.689 299.285 109.605 299.424 109.54C299.563 109.475 299.715 109.447 299.882 109.447C300.044 109.447 300.196 109.48 300.345 109.54C300.488 109.6 300.618 109.689 300.724 109.8C300.83 109.911 300.923 110.041 300.988 110.185C301.053 110.334 301.085 110.492 301.085 110.654Z" fill="#BCBEC0"/>
<path d="M306.018 113.653V119.747C306.018 120.471 306.184 121.028 306.518 121.427C306.851 121.822 307.35 122.021 308.021 122.021C308.512 122.021 308.97 121.905 309.405 121.673C309.84 121.441 310.238 121.116 310.599 120.703V113.653H312.274V123.21H311.279C311.038 123.21 310.89 123.094 310.826 122.861L310.696 121.831C310.284 122.291 309.817 122.662 309.303 122.94C308.79 123.219 308.197 123.358 307.536 123.358C307.013 123.358 306.555 123.27 306.157 123.098C305.759 122.926 305.425 122.68 305.152 122.365C304.879 122.049 304.68 121.669 304.546 121.223C304.412 120.777 304.343 120.281 304.343 119.742V113.648H306.018V113.653Z" fill="#BCBEC0"/>
<path d="M327.665 118.8C327.73 118.967 327.794 119.134 327.859 119.306C327.924 119.129 327.989 118.962 328.058 118.8C328.128 118.637 328.206 118.475 328.294 118.312L332.857 109.999C332.94 109.856 333.023 109.767 333.111 109.735C333.199 109.702 333.324 109.688 333.486 109.688H334.833V123.209H333.232V113.272C333.232 113.142 333.236 112.998 333.241 112.849C333.245 112.696 333.255 112.543 333.269 112.385L328.65 120.842C328.493 121.125 328.276 121.265 327.993 121.265H327.73C327.447 121.265 327.23 121.125 327.073 120.842L322.348 112.357C322.366 112.52 322.38 112.682 322.39 112.84C322.399 112.998 322.403 113.142 322.403 113.272V123.209H320.802V109.688H322.149C322.311 109.688 322.436 109.702 322.524 109.735C322.612 109.767 322.695 109.856 322.778 109.999L327.433 118.322C327.526 118.475 327.6 118.637 327.665 118.8Z" fill="#BCBEC0"/>
<path d="M345.79 123.214H345.045C344.883 123.214 344.748 123.191 344.651 123.14C344.549 123.089 344.485 122.982 344.452 122.82L344.262 121.933C344.013 122.16 343.767 122.36 343.527 122.541C343.286 122.722 343.036 122.871 342.772 122.996C342.509 123.117 342.226 123.209 341.93 123.274C341.634 123.335 341.301 123.367 340.94 123.367C340.57 123.367 340.223 123.316 339.899 123.209C339.575 123.107 339.297 122.949 339.057 122.741C338.816 122.532 338.631 122.267 338.487 121.952C338.349 121.631 338.275 121.255 338.275 120.819C338.275 120.438 338.376 120.076 338.585 119.724C338.793 119.371 339.126 119.064 339.589 118.791C340.052 118.521 340.653 118.299 341.398 118.122C342.143 117.951 343.055 117.862 344.138 117.862V117.11C344.138 116.363 343.98 115.797 343.661 115.416C343.342 115.036 342.874 114.841 342.254 114.841C341.847 114.841 341.505 114.892 341.222 114.998C340.945 115.101 340.699 115.217 340.496 115.347C340.292 115.477 340.116 115.593 339.968 115.695C339.82 115.797 339.677 115.853 339.529 115.853C339.418 115.853 339.316 115.825 339.233 115.764C339.149 115.704 339.08 115.63 339.029 115.542L338.728 115.003C339.256 114.493 339.82 114.112 340.431 113.861C341.037 113.611 341.713 113.485 342.453 113.485C342.985 113.485 343.462 113.574 343.874 113.75C344.286 113.926 344.637 114.172 344.92 114.488C345.202 114.804 345.415 115.184 345.558 115.63C345.702 116.075 345.776 116.567 345.776 117.101V123.214H345.79ZM341.444 122.184C341.741 122.184 342.009 122.156 342.254 122.095C342.499 122.035 342.731 121.952 342.944 121.84C343.161 121.729 343.369 121.594 343.564 121.441C343.763 121.283 343.952 121.107 344.142 120.903V118.93C343.369 118.93 342.717 118.981 342.176 119.078C341.634 119.176 341.199 119.306 340.857 119.464C340.519 119.621 340.274 119.807 340.116 120.025C339.959 120.243 339.885 120.48 339.885 120.745C339.885 120.995 339.927 121.218 340.005 121.399C340.089 121.585 340.195 121.733 340.334 121.849C340.473 121.965 340.635 122.054 340.824 122.105C341.014 122.156 341.222 122.184 341.444 122.184Z" fill="#BCBEC0"/>
<path d="M354.725 115.231C354.651 115.37 354.535 115.439 354.378 115.439C354.286 115.439 354.179 115.407 354.059 115.337C353.939 115.268 353.795 115.189 353.619 115.105C353.448 115.022 353.24 114.943 353.004 114.869C352.763 114.794 352.481 114.762 352.157 114.762C351.875 114.762 351.62 114.799 351.393 114.869C351.167 114.943 350.977 115.04 350.815 115.166C350.653 115.291 350.533 115.439 350.449 115.607C350.366 115.774 350.325 115.955 350.325 116.15C350.325 116.396 350.394 116.6 350.537 116.762C350.681 116.925 350.866 117.069 351.097 117.189C351.329 117.31 351.592 117.417 351.889 117.505C352.185 117.598 352.486 117.695 352.796 117.797C353.106 117.899 353.406 118.016 353.703 118.141C353.999 118.266 354.262 118.424 354.494 118.614C354.725 118.805 354.91 119.032 355.054 119.306C355.197 119.58 355.267 119.909 355.267 120.29C355.267 120.731 355.188 121.139 355.031 121.511C354.873 121.887 354.642 122.207 354.336 122.481C354.031 122.755 353.652 122.968 353.207 123.126C352.763 123.284 352.25 123.363 351.666 123.363C351 123.363 350.399 123.256 349.862 123.038C349.325 122.82 348.867 122.541 348.487 122.202L348.881 121.562C348.932 121.478 348.992 121.418 349.061 121.371C349.131 121.33 349.223 121.306 349.334 121.306C349.445 121.306 349.566 121.348 349.691 121.436C349.816 121.525 349.968 121.622 350.149 121.729C350.329 121.835 350.542 121.933 350.797 122.021C351.051 122.109 351.37 122.151 351.75 122.151C352.074 122.151 352.361 122.109 352.606 122.026C352.851 121.942 353.055 121.826 353.217 121.682C353.379 121.538 353.499 121.371 353.578 121.181C353.656 120.991 353.693 120.791 353.693 120.578C353.693 120.313 353.624 120.095 353.48 119.923C353.342 119.751 353.152 119.603 352.92 119.478C352.689 119.357 352.425 119.25 352.125 119.157C351.828 119.064 351.523 118.972 351.213 118.87C350.903 118.767 350.598 118.656 350.301 118.526C350.005 118.396 349.737 118.234 349.505 118.039C349.274 117.844 349.089 117.602 348.946 117.315C348.807 117.027 348.733 116.679 348.733 116.27C348.733 115.904 348.807 115.555 348.959 115.217C349.112 114.882 349.33 114.585 349.617 114.33C349.903 114.075 350.26 113.871 350.681 113.722C351.102 113.574 351.579 113.495 352.12 113.495C352.745 113.495 353.309 113.592 353.809 113.792C354.309 113.991 354.739 114.26 355.105 114.609L354.725 115.231Z" fill="#BCBEC0"/>
<path d="M361.172 126.036C361.116 126.162 361.047 126.264 360.959 126.338C360.875 126.412 360.746 126.449 360.57 126.449H359.33L361.07 122.657L357.137 113.653H358.585C358.728 113.653 358.844 113.69 358.923 113.759C359.006 113.834 359.062 113.913 359.103 114.001L361.653 120.021C361.708 120.16 361.759 120.299 361.801 120.434C361.843 120.573 361.88 120.712 361.907 120.861C361.949 120.717 361.995 120.573 362.037 120.434C362.079 120.295 362.129 120.155 362.19 120.012L364.665 114.001C364.702 113.899 364.767 113.815 364.86 113.75C364.952 113.685 365.049 113.653 365.156 113.653H366.493L361.172 126.036Z" fill="#BCBEC0"/>
<path d="M375.951 123.214H375.206C375.044 123.214 374.91 123.191 374.813 123.14C374.711 123.089 374.646 122.982 374.614 122.82L374.424 121.933C374.174 122.16 373.929 122.36 373.689 122.541C373.448 122.722 373.198 122.871 372.934 122.996C372.671 123.117 372.388 123.209 372.092 123.274C371.796 123.335 371.463 123.367 371.102 123.367C370.732 123.367 370.385 123.316 370.061 123.209C369.737 123.107 369.459 122.949 369.219 122.741C368.978 122.532 368.793 122.267 368.649 121.952C368.511 121.631 368.437 121.255 368.437 120.819C368.437 120.438 368.538 120.076 368.747 119.724C368.955 119.371 369.288 119.064 369.751 118.791C370.213 118.521 370.815 118.299 371.56 118.122C372.305 117.951 373.217 117.862 374.299 117.862V117.11C374.299 116.363 374.142 115.797 373.823 115.416C373.504 115.036 373.036 114.841 372.416 114.841C372.009 114.841 371.666 114.892 371.384 114.998C371.107 115.101 370.861 115.217 370.658 115.347C370.454 115.477 370.278 115.593 370.13 115.695C369.982 115.797 369.839 115.853 369.691 115.853C369.579 115.853 369.478 115.825 369.394 115.764C369.311 115.704 369.242 115.63 369.191 115.542L368.89 115.003C369.418 114.493 369.982 114.112 370.593 113.861C371.199 113.611 371.875 113.485 372.615 113.485C373.147 113.485 373.624 113.574 374.036 113.75C374.447 113.926 374.799 114.172 375.081 114.488C375.364 114.804 375.577 115.184 375.72 115.63C375.863 116.075 375.937 116.567 375.937 117.101V123.214H375.951ZM371.606 122.184C371.902 122.184 372.171 122.156 372.416 122.095C372.661 122.035 372.893 121.952 373.106 121.84C373.323 121.729 373.531 121.594 373.726 121.441C373.925 121.283 374.114 121.107 374.304 120.903V118.93C373.531 118.93 372.879 118.981 372.337 119.078C371.796 119.176 371.361 119.306 371.019 119.464C370.681 119.621 370.436 119.807 370.278 120.025C370.121 120.243 370.047 120.48 370.047 120.745C370.047 120.995 370.088 121.218 370.167 121.399C370.25 121.585 370.357 121.733 370.496 121.849C370.635 121.965 370.796 122.054 370.986 122.105C371.176 122.156 371.384 122.184 371.606 122.184Z" fill="#BCBEC0"/>
<path d="M379.431 123.214V113.657H380.389C380.569 113.657 380.694 113.694 380.763 113.759C380.833 113.829 380.879 113.95 380.907 114.117L381.018 115.607C381.342 114.938 381.749 114.419 382.226 114.043C382.707 113.667 383.267 113.481 383.915 113.481C384.178 113.481 384.414 113.513 384.632 113.569C384.845 113.629 385.044 113.713 385.224 113.82L385.007 115.073C384.965 115.231 384.868 115.31 384.715 115.31C384.627 115.31 384.493 115.282 384.313 115.222C384.132 115.161 383.878 115.133 383.549 115.133C382.966 115.133 382.48 115.305 382.087 115.644C381.694 115.983 381.365 116.479 381.106 117.125V123.21H379.431V123.214Z" fill="#BCBEC0"/>
<path d="M394.595 123.214H393.85C393.688 123.214 393.553 123.191 393.456 123.14C393.354 123.089 393.29 122.982 393.257 122.82L393.068 121.933C392.818 122.16 392.572 122.36 392.332 122.541C392.091 122.722 391.841 122.871 391.578 122.996C391.314 123.117 391.032 123.209 390.735 123.274C390.439 123.335 390.106 123.367 389.745 123.367C389.375 123.367 389.028 123.316 388.704 123.209C388.38 123.107 388.102 122.949 387.862 122.741C387.621 122.532 387.436 122.267 387.293 121.952C387.154 121.631 387.08 121.255 387.08 120.819C387.08 120.438 387.182 120.076 387.39 119.724C387.598 119.371 387.931 119.064 388.394 118.791C388.857 118.521 389.458 118.299 390.203 118.122C390.948 117.951 391.86 117.862 392.943 117.862V117.11C392.943 116.363 392.785 115.797 392.466 115.416C392.147 115.036 391.679 114.841 391.059 114.841C390.652 114.841 390.31 114.892 390.027 114.998C389.75 115.101 389.504 115.217 389.301 115.347C389.097 115.477 388.921 115.593 388.773 115.695C388.625 115.797 388.482 115.853 388.334 115.853C388.223 115.853 388.121 115.825 388.038 115.764C387.954 115.704 387.885 115.63 387.834 115.542L387.533 115.003C388.061 114.493 388.625 114.112 389.236 113.861C389.842 113.611 390.518 113.485 391.258 113.485C391.79 113.485 392.267 113.574 392.679 113.75C393.091 113.926 393.442 114.172 393.725 114.488C394.007 114.804 394.22 115.184 394.363 115.63C394.507 116.075 394.581 116.567 394.581 117.101V123.214H394.595ZM390.249 122.184C390.546 122.184 390.814 122.156 391.059 122.095C391.305 122.035 391.536 121.952 391.749 121.84C391.966 121.729 392.174 121.594 392.369 121.441C392.568 121.283 392.757 121.107 392.947 120.903V118.93C392.174 118.93 391.522 118.981 390.981 119.078C390.439 119.176 390.004 119.306 389.662 119.464C389.324 119.621 389.079 119.807 388.921 120.025C388.764 120.243 388.69 120.48 388.69 120.745C388.69 120.995 388.732 121.218 388.81 121.399C388.894 121.585 389 121.733 389.139 121.849C389.278 121.965 389.44 122.054 389.629 122.105C389.819 122.156 390.032 122.184 390.249 122.184Z" fill="#BCBEC0"/>
<path d="M399.82 109.312V117.496H400.254C400.379 117.496 400.481 117.477 400.565 117.444C400.648 117.412 400.736 117.338 400.838 117.231L403.85 113.996C403.942 113.894 404.04 113.815 404.132 113.75C404.225 113.689 404.35 113.657 404.507 113.657H406.029L402.522 117.403C402.434 117.509 402.346 117.602 402.263 117.686C402.179 117.769 402.082 117.839 401.976 117.904C402.087 117.978 402.189 118.066 402.281 118.164C402.374 118.261 402.457 118.373 402.54 118.498L406.265 123.219H404.762C404.623 123.219 404.507 123.191 404.41 123.14C404.313 123.089 404.22 123.005 404.132 122.889L400.999 118.972C400.907 118.837 400.81 118.753 400.717 118.712C400.625 118.67 400.481 118.651 400.291 118.651H399.82V123.219H398.135V109.317H399.82V109.312Z" fill="#BCBEC0"/>
<path d="M415.876 123.214H415.131C414.969 123.214 414.835 123.191 414.738 123.14C414.636 123.089 414.571 122.982 414.539 122.82L414.349 121.933C414.099 122.16 413.854 122.36 413.614 122.541C413.373 122.722 413.123 122.871 412.859 122.996C412.596 123.117 412.313 123.209 412.017 123.274C411.721 123.335 411.388 123.367 411.027 123.367C410.657 123.367 410.31 123.316 409.986 123.209C409.662 123.107 409.384 122.949 409.143 122.741C408.903 122.532 408.718 122.267 408.574 121.952C408.435 121.631 408.361 121.255 408.361 120.819C408.361 120.438 408.463 120.076 408.672 119.724C408.88 119.371 409.213 119.064 409.676 118.791C410.138 118.521 410.74 118.299 411.485 118.122C412.23 117.951 413.142 117.862 414.224 117.862V117.11C414.224 116.363 414.067 115.797 413.748 115.416C413.428 115.036 412.961 114.841 412.341 114.841C411.934 114.841 411.591 114.892 411.309 114.998C411.031 115.101 410.786 115.217 410.583 115.347C410.379 115.477 410.203 115.593 410.055 115.695C409.907 115.797 409.764 115.853 409.615 115.853C409.504 115.853 409.403 115.825 409.319 115.764C409.236 115.704 409.167 115.63 409.116 115.542L408.815 115.003C409.342 114.493 409.907 114.112 410.518 113.861C411.124 113.611 411.8 113.485 412.54 113.485C413.072 113.485 413.549 113.574 413.961 113.75C414.372 113.926 414.724 114.172 415.006 114.488C415.289 114.804 415.501 115.184 415.645 115.63C415.788 116.075 415.862 116.567 415.862 117.101V123.214H415.876ZM411.531 122.184C411.827 122.184 412.096 122.156 412.341 122.095C412.586 122.035 412.818 121.952 413.03 121.84C413.248 121.729 413.456 121.594 413.651 121.441C413.85 121.283 414.039 121.107 414.229 120.903V118.93C413.456 118.93 412.804 118.981 412.262 119.078C411.721 119.176 411.286 119.306 410.944 119.464C410.606 119.621 410.36 119.807 410.203 120.025C410.046 120.243 409.972 120.48 409.972 120.745C409.972 120.995 410.013 121.218 410.092 121.399C410.175 121.585 410.282 121.733 410.421 121.849C410.559 121.965 410.721 122.054 410.911 122.105C411.101 122.156 411.309 122.184 411.531 122.184Z" fill="#BCBEC0"/>
<path d="M422.243 123.362C421.489 123.362 420.911 123.154 420.508 122.731C420.106 122.309 419.902 121.701 419.902 120.912V115.063H418.754C418.653 115.063 418.569 115.035 418.5 114.975C418.431 114.915 418.398 114.822 418.398 114.697V114.028L419.962 113.829L420.346 110.877C420.36 110.784 420.397 110.705 420.467 110.645C420.536 110.584 420.624 110.556 420.73 110.556H421.577V113.852H424.307V115.068H421.577V120.805C421.577 121.209 421.674 121.506 421.869 121.701C422.063 121.896 422.313 121.993 422.623 121.993C422.799 121.993 422.951 121.97 423.081 121.924C423.211 121.877 423.322 121.826 423.414 121.766C423.507 121.705 423.59 121.659 423.655 121.613C423.72 121.566 423.78 121.543 423.831 121.543C423.919 121.543 423.997 121.599 424.067 121.705L424.557 122.508C424.27 122.778 423.919 122.991 423.511 123.144C423.1 123.288 422.678 123.362 422.243 123.362Z" fill="#BCBEC0"/>
<path d="M434.155 118.155V123.214H432.341V109.693H436.32C437.172 109.693 437.917 109.791 438.546 109.99C439.175 110.19 439.698 110.468 440.11 110.835C440.522 111.202 440.832 111.638 441.036 112.158C441.239 112.678 441.341 113.249 441.341 113.885C441.341 114.516 441.23 115.091 441.012 115.611C440.795 116.136 440.471 116.581 440.05 116.962C439.629 117.338 439.101 117.635 438.472 117.844C437.843 118.053 437.125 118.16 436.316 118.16H434.155V118.155ZM434.155 116.702H436.32C436.839 116.702 437.301 116.632 437.699 116.493C438.097 116.354 438.43 116.164 438.703 115.913C438.972 115.662 439.175 115.365 439.314 115.022C439.453 114.674 439.522 114.293 439.522 113.88C439.522 113.017 439.259 112.344 438.726 111.861C438.194 111.378 437.394 111.132 436.325 111.132H434.159V116.702H434.155Z" fill="#BCBEC0"/>
<path d="M447.814 113.504C448.383 113.504 448.911 113.602 449.397 113.792C449.878 113.982 450.294 114.261 450.646 114.623C450.998 114.985 451.271 115.43 451.47 115.964C451.669 116.498 451.766 117.101 451.766 117.779C451.766 118.044 451.738 118.22 451.682 118.308C451.627 118.396 451.52 118.438 451.363 118.438H445.024C445.038 119.042 445.116 119.566 445.269 120.016C445.422 120.462 445.625 120.838 445.889 121.135C446.153 121.432 446.467 121.659 446.828 121.803C447.189 121.947 447.601 122.026 448.05 122.026C448.471 122.026 448.832 121.98 449.137 121.878C449.443 121.78 449.702 121.673 449.924 121.562C450.142 121.45 450.327 121.344 450.475 121.246C450.623 121.149 450.748 121.102 450.854 121.102C450.993 121.102 451.099 121.158 451.173 121.265L451.645 121.878C451.437 122.128 451.192 122.346 450.9 122.532C450.614 122.718 450.303 122.871 449.975 122.991C449.646 123.112 449.304 123.2 448.952 123.261C448.601 123.321 448.254 123.349 447.907 123.349C447.249 123.349 446.643 123.237 446.088 123.015C445.533 122.792 445.051 122.462 444.649 122.035C444.246 121.604 443.927 121.07 443.705 120.434C443.483 119.798 443.367 119.069 443.367 118.243C443.367 117.575 443.469 116.953 443.672 116.373C443.876 115.792 444.168 115.291 444.552 114.869C444.936 114.446 445.403 114.112 445.954 113.871C446.504 113.625 447.124 113.504 447.814 113.504ZM447.851 114.739C447.041 114.739 446.407 114.976 445.94 115.44C445.477 115.908 445.186 116.558 445.075 117.389H450.257C450.257 116.999 450.202 116.642 450.095 116.317C449.989 115.992 449.832 115.714 449.623 115.477C449.415 115.24 449.165 115.059 448.864 114.929C448.573 114.804 448.235 114.739 447.851 114.739Z" fill="#BCBEC0"/>
<path d="M454.839 123.214V113.657H455.797C455.977 113.657 456.102 113.694 456.172 113.759C456.241 113.829 456.287 113.95 456.315 114.117L456.426 115.607C456.75 114.938 457.157 114.419 457.634 114.043C458.115 113.667 458.675 113.481 459.323 113.481C459.587 113.481 459.823 113.513 460.04 113.569C460.253 113.629 460.452 113.713 460.632 113.82L460.415 115.073C460.373 115.231 460.276 115.31 460.123 115.31C460.036 115.31 459.901 115.282 459.721 115.222C459.54 115.161 459.286 115.133 458.957 115.133C458.374 115.133 457.888 115.305 457.495 115.644C457.102 115.983 456.773 116.479 456.514 117.125V123.21H454.839V123.214Z" fill="#BCBEC0"/>
<path d="M465.602 110.654C465.602 110.817 465.57 110.97 465.505 111.114C465.44 111.253 465.352 111.383 465.241 111.49C465.13 111.601 465.005 111.684 464.862 111.749C464.718 111.814 464.566 111.842 464.399 111.842C464.237 111.842 464.084 111.81 463.941 111.749C463.798 111.684 463.673 111.601 463.566 111.49C463.455 111.378 463.372 111.253 463.307 111.114C463.242 110.97 463.214 110.821 463.214 110.654C463.214 110.487 463.247 110.334 463.307 110.185C463.372 110.037 463.455 109.907 463.566 109.8C463.677 109.689 463.802 109.605 463.941 109.54C464.08 109.475 464.232 109.447 464.399 109.447C464.561 109.447 464.714 109.48 464.862 109.54C465.005 109.6 465.135 109.689 465.241 109.8C465.348 109.911 465.44 110.041 465.505 110.185C465.57 110.334 465.602 110.492 465.602 110.654ZM465.227 113.653V123.209H463.552V113.653H465.227Z" fill="#BCBEC0"/>
<path d="M470.863 109.312V117.496H471.298C471.423 117.496 471.525 117.477 471.608 117.444C471.691 117.412 471.779 117.338 471.881 117.231L474.893 113.996C474.986 113.894 475.083 113.815 475.176 113.75C475.268 113.689 475.393 113.657 475.55 113.657H477.073L473.565 117.403C473.477 117.509 473.389 117.602 473.306 117.686C473.223 117.769 473.126 117.839 473.019 117.904C473.13 117.978 473.232 118.066 473.325 118.164C473.417 118.261 473.5 118.373 473.584 118.498L477.309 123.219H475.805C475.666 123.219 475.55 123.191 475.453 123.14C475.356 123.089 475.263 123.005 475.176 122.889L472.043 118.972C471.95 118.837 471.853 118.753 471.761 118.712C471.668 118.67 471.525 118.651 471.335 118.651H470.863V123.219H469.178V109.317H470.863V109.312Z" fill="#BCBEC0"/>
<path d="M486.921 123.214H486.176C486.014 123.214 485.88 123.191 485.782 123.14C485.681 123.089 485.616 122.982 485.583 122.82L485.394 121.933C485.144 122.16 484.899 122.36 484.658 122.541C484.417 122.722 484.167 122.871 483.904 122.996C483.64 123.117 483.358 123.209 483.061 123.274C482.765 123.335 482.432 123.367 482.071 123.367C481.701 123.367 481.354 123.316 481.03 123.209C480.706 123.107 480.428 122.949 480.188 122.741C479.947 122.532 479.762 122.267 479.619 121.952C479.48 121.631 479.406 121.255 479.406 120.819C479.406 120.438 479.508 120.076 479.716 119.724C479.924 119.371 480.257 119.064 480.72 118.791C481.183 118.521 481.784 118.299 482.529 118.122C483.274 117.951 484.186 117.862 485.269 117.862V117.11C485.269 116.363 485.111 115.797 484.792 115.416C484.473 115.036 484.005 114.841 483.385 114.841C482.978 114.841 482.636 114.892 482.353 114.998C482.076 115.101 481.831 115.217 481.627 115.347C481.423 115.477 481.248 115.593 481.099 115.695C480.951 115.797 480.808 115.853 480.66 115.853C480.549 115.853 480.447 115.825 480.364 115.764C480.28 115.704 480.211 115.63 480.16 115.542L479.859 115.003C480.387 114.493 480.951 114.112 481.562 113.861C482.168 113.611 482.844 113.485 483.584 113.485C484.116 113.485 484.593 113.574 485.005 113.75C485.417 113.926 485.768 114.172 486.051 114.488C486.333 114.804 486.546 115.184 486.689 115.63C486.833 116.075 486.907 116.567 486.907 117.101V123.214H486.921ZM482.576 122.184C482.872 122.184 483.14 122.156 483.385 122.095C483.631 122.035 483.862 121.952 484.075 121.84C484.292 121.729 484.501 121.594 484.695 121.441C484.894 121.283 485.084 121.107 485.273 120.903V118.93C484.501 118.93 483.848 118.981 483.307 119.078C482.765 119.176 482.33 119.306 481.988 119.464C481.65 119.621 481.405 119.807 481.248 120.025C481.09 120.243 481.016 120.48 481.016 120.745C481.016 120.995 481.058 121.218 481.136 121.399C481.22 121.585 481.326 121.733 481.465 121.849C481.604 121.965 481.766 122.054 481.956 122.105C482.145 122.156 482.353 122.184 482.576 122.184Z" fill="#BCBEC0"/>
<path d="M490.4 123.214V113.657H491.395C491.636 113.657 491.784 113.773 491.848 114.005L491.978 115.045C492.39 114.586 492.853 114.214 493.366 113.931C493.875 113.648 494.467 113.504 495.138 113.504C495.657 113.504 496.119 113.592 496.517 113.764C496.915 113.936 497.249 114.182 497.517 114.497C497.785 114.813 497.984 115.198 498.123 115.644C498.262 116.089 498.331 116.586 498.331 117.125V123.21H496.656V117.125C496.656 116.4 496.49 115.839 496.161 115.44C495.833 115.041 495.328 114.841 494.653 114.841C494.157 114.841 493.695 114.962 493.264 115.198C492.834 115.44 492.436 115.76 492.075 116.168V123.21H490.4V123.214Z" fill="#BCBEC0"/>
<path d="M508.803 123.214H508.058C507.896 123.214 507.762 123.191 507.665 123.14C507.563 123.089 507.499 122.982 507.466 122.82L507.276 121.933C507.027 122.16 506.781 122.36 506.541 122.541C506.3 122.722 506.05 122.871 505.786 122.996C505.523 123.117 505.24 123.209 504.944 123.274C504.648 123.335 504.315 123.367 503.954 123.367C503.584 123.367 503.237 123.316 502.913 123.209C502.589 123.107 502.311 122.949 502.071 122.741C501.83 122.532 501.645 122.267 501.501 121.952C501.363 121.631 501.289 121.255 501.289 120.819C501.289 120.438 501.39 120.076 501.599 119.724C501.807 119.371 502.14 119.064 502.603 118.791C503.065 118.521 503.667 118.299 504.412 118.122C505.157 117.951 506.069 117.862 507.151 117.862V117.11C507.151 116.363 506.994 115.797 506.675 115.416C506.356 115.036 505.888 114.841 505.268 114.841C504.861 114.841 504.518 114.892 504.236 114.998C503.959 115.101 503.713 115.217 503.51 115.347C503.306 115.477 503.13 115.593 502.982 115.695C502.834 115.797 502.691 115.853 502.543 115.853C502.432 115.853 502.33 115.825 502.246 115.764C502.163 115.704 502.094 115.63 502.043 115.542L501.742 115.003C502.27 114.493 502.834 114.112 503.445 113.861C504.051 113.611 504.727 113.485 505.467 113.485C505.999 113.485 506.476 113.574 506.888 113.75C507.3 113.926 507.651 114.172 507.933 114.488C508.216 114.804 508.429 115.184 508.572 115.63C508.716 116.075 508.79 116.567 508.79 117.101V123.214H508.803ZM504.458 122.184C504.754 122.184 505.023 122.156 505.268 122.095C505.513 122.035 505.745 121.952 505.958 121.84C506.175 121.729 506.383 121.594 506.578 121.441C506.777 121.283 506.966 121.107 507.156 120.903V118.93C506.383 118.93 505.731 118.981 505.189 119.078C504.648 119.176 504.213 119.306 503.871 119.464C503.533 119.621 503.288 119.807 503.13 120.025C502.973 120.243 502.899 120.48 502.899 120.745C502.899 120.995 502.941 121.218 503.019 121.399C503.103 121.585 503.209 121.733 503.348 121.849C503.487 121.965 503.649 122.054 503.838 122.105C504.028 122.156 504.236 122.184 504.458 122.184Z" fill="#BCBEC0"/>
<path d="M512.283 123.214V113.657H513.278C513.518 113.657 513.666 113.773 513.731 114.005L513.861 115.045C514.273 114.586 514.735 114.214 515.249 113.931C515.758 113.648 516.35 113.504 517.021 113.504C517.54 113.504 518.002 113.592 518.4 113.764C518.798 113.936 519.131 114.182 519.4 114.497C519.668 114.813 519.867 115.198 520.006 115.644C520.145 116.089 520.214 116.586 520.214 117.125V123.21H518.539V117.125C518.539 116.4 518.372 115.839 518.044 115.44C517.715 115.041 517.211 114.841 516.535 114.841C516.04 114.841 515.578 114.962 515.147 115.198C514.717 115.44 514.319 115.76 513.958 116.168V123.21H512.283V123.214Z" fill="#BCBEC0"/>
<path d="M535.425 111.805C535.369 111.898 535.309 111.972 535.244 112.019C535.179 112.065 535.101 112.088 534.999 112.088C534.892 112.088 534.768 112.037 534.629 111.931C534.49 111.824 534.309 111.703 534.092 111.578C533.874 111.448 533.615 111.332 533.31 111.225C533.004 111.118 532.639 111.063 532.204 111.063C531.797 111.063 531.436 111.118 531.121 111.23C530.807 111.341 530.547 111.49 530.335 111.675C530.126 111.866 529.964 112.084 529.858 112.339C529.751 112.594 529.696 112.868 529.696 113.165C529.696 113.541 529.788 113.857 529.974 114.103C530.159 114.354 530.404 114.562 530.709 114.739C531.015 114.915 531.357 115.068 531.746 115.198C532.13 115.328 532.528 115.463 532.93 115.598C533.333 115.732 533.731 115.89 534.115 116.066C534.499 116.238 534.846 116.456 535.152 116.721C535.457 116.985 535.702 117.31 535.887 117.691C536.072 118.076 536.165 118.545 536.165 119.107C536.165 119.696 536.063 120.253 535.864 120.773C535.665 121.293 535.369 121.743 534.985 122.128C534.601 122.513 534.124 122.815 533.564 123.033C533.005 123.251 532.366 123.363 531.649 123.363C530.779 123.363 529.983 123.205 529.266 122.885C528.548 122.569 527.933 122.137 527.429 121.594L527.956 120.726C528.007 120.657 528.067 120.601 528.141 120.55C528.215 120.499 528.294 120.48 528.382 120.48C528.511 120.48 528.664 120.55 528.835 120.694C529.006 120.833 529.215 120.991 529.469 121.163C529.724 121.334 530.029 121.488 530.39 121.632C530.751 121.771 531.191 121.845 531.713 121.845C532.148 121.845 532.533 121.785 532.87 121.664C533.208 121.543 533.495 121.376 533.731 121.158C533.967 120.94 534.147 120.68 534.272 120.378C534.397 120.077 534.462 119.738 534.462 119.366C534.462 118.958 534.37 118.624 534.184 118.359C533.999 118.099 533.754 117.881 533.453 117.705C533.153 117.528 532.81 117.38 532.421 117.255C532.037 117.134 531.639 117.004 531.237 116.879C530.834 116.749 530.436 116.6 530.052 116.433C529.668 116.261 529.321 116.043 529.02 115.774C528.72 115.505 528.474 115.166 528.289 114.757C528.104 114.354 528.012 113.852 528.012 113.254C528.012 112.775 528.104 112.311 528.289 111.866C528.474 111.42 528.743 111.021 529.094 110.677C529.446 110.329 529.881 110.055 530.399 109.847C530.918 109.638 531.51 109.536 532.181 109.536C532.935 109.536 533.62 109.656 534.24 109.893C534.86 110.13 535.401 110.478 535.869 110.933L535.425 111.805Z" fill="#BCBEC0"/>
<path d="M542.944 113.504C543.513 113.504 544.041 113.602 544.527 113.792C545.008 113.982 545.425 114.261 545.776 114.623C546.128 114.985 546.401 115.43 546.6 115.964C546.799 116.498 546.896 117.101 546.896 117.779C546.896 118.044 546.868 118.22 546.813 118.308C546.757 118.396 546.651 118.438 546.493 118.438H540.154C540.168 119.042 540.247 119.566 540.399 120.016C540.552 120.462 540.756 120.838 541.019 121.135C541.283 121.432 541.598 121.659 541.959 121.803C542.32 121.947 542.731 122.026 543.18 122.026C543.601 122.026 543.962 121.98 544.268 121.878C544.573 121.78 544.832 121.673 545.054 121.562C545.272 121.45 545.457 121.344 545.605 121.246C545.753 121.149 545.878 121.102 545.984 121.102C546.123 121.102 546.23 121.158 546.304 121.265L546.776 121.878C546.568 122.128 546.322 122.346 546.031 122.532C545.744 122.718 545.434 122.871 545.105 122.991C544.777 123.112 544.434 123.2 544.083 123.261C543.731 123.321 543.384 123.349 543.037 123.349C542.38 123.349 541.774 123.237 541.218 123.015C540.663 122.792 540.182 122.462 539.779 122.035C539.377 121.604 539.057 121.07 538.835 120.434C538.613 119.798 538.497 119.069 538.497 118.243C538.497 117.575 538.599 116.953 538.803 116.373C539.006 115.792 539.298 115.291 539.682 114.869C540.066 114.446 540.533 114.112 541.084 113.871C541.63 113.625 542.25 113.504 542.944 113.504ZM542.981 114.739C542.171 114.739 541.538 114.976 541.07 115.44C540.607 115.908 540.316 116.558 540.205 117.389H545.388C545.388 116.999 545.332 116.642 545.226 116.317C545.119 115.992 544.962 115.714 544.754 115.477C544.545 115.24 544.295 115.059 543.995 114.929C543.703 114.804 543.361 114.739 542.981 114.739Z" fill="#BCBEC0"/>
<path d="M551.833 113.653V123.92C551.833 124.305 551.782 124.662 551.681 124.992C551.579 125.321 551.422 125.609 551.204 125.855C550.987 126.101 550.709 126.296 550.366 126.435C550.024 126.579 549.617 126.649 549.14 126.649C548.932 126.649 548.747 126.635 548.576 126.602C548.404 126.57 548.238 126.524 548.067 126.459L548.141 125.553C548.155 125.47 548.182 125.419 548.224 125.396C548.27 125.372 548.335 125.363 548.432 125.363C548.483 125.363 548.534 125.363 548.594 125.363C548.654 125.363 548.719 125.363 548.802 125.363C549.293 125.363 549.64 125.247 549.848 125.02C550.056 124.792 550.158 124.421 550.158 123.91V113.653H551.833ZM552.208 110.654C552.208 110.817 552.176 110.97 552.111 111.114C552.046 111.253 551.958 111.383 551.847 111.49C551.736 111.601 551.611 111.684 551.468 111.749C551.324 111.814 551.172 111.842 551.005 111.842C550.843 111.842 550.69 111.81 550.547 111.749C550.403 111.684 550.279 111.601 550.172 111.49C550.061 111.378 549.978 111.253 549.913 111.114C549.848 110.97 549.82 110.821 549.82 110.654C549.82 110.487 549.853 110.334 549.913 110.185C549.978 110.037 550.061 109.907 550.172 109.8C550.283 109.689 550.408 109.605 550.547 109.54C550.686 109.475 550.838 109.447 551.005 109.447C551.167 109.447 551.32 109.48 551.468 109.54C551.611 109.6 551.741 109.689 551.847 109.8C551.954 109.911 552.046 110.041 552.111 110.185C552.176 110.334 552.208 110.492 552.208 110.654Z" fill="#BCBEC0"/>
<path d="M562.689 123.214H561.944C561.782 123.214 561.647 123.191 561.55 123.14C561.448 123.089 561.384 122.982 561.351 122.82L561.162 121.933C560.912 122.16 560.666 122.36 560.426 122.541C560.185 122.722 559.935 122.871 559.672 122.996C559.408 123.117 559.125 123.209 558.829 123.274C558.533 123.335 558.2 123.367 557.839 123.367C557.469 123.367 557.122 123.316 556.798 123.209C556.474 123.107 556.196 122.949 555.956 122.741C555.715 122.532 555.53 122.267 555.387 121.952C555.248 121.631 555.174 121.255 555.174 120.819C555.174 120.438 555.276 120.076 555.484 119.724C555.692 119.371 556.025 119.064 556.488 118.791C556.951 118.521 557.552 118.299 558.297 118.122C559.042 117.951 559.954 117.862 561.037 117.862V117.11C561.037 116.363 560.879 115.797 560.56 115.416C560.241 115.036 559.773 114.841 559.153 114.841C558.746 114.841 558.404 114.892 558.121 114.998C557.844 115.101 557.598 115.217 557.395 115.347C557.191 115.477 557.015 115.593 556.867 115.695C556.719 115.797 556.576 115.853 556.428 115.853C556.317 115.853 556.215 115.825 556.132 115.764C556.048 115.704 555.979 115.63 555.928 115.542L555.627 115.003C556.155 114.493 556.719 114.112 557.33 113.861C557.936 113.611 558.612 113.485 559.352 113.485C559.884 113.485 560.361 113.574 560.773 113.75C561.185 113.926 561.536 114.172 561.819 114.488C562.101 114.804 562.314 115.184 562.457 115.63C562.601 116.075 562.675 116.567 562.675 117.101V123.214H562.689ZM558.344 122.184C558.64 122.184 558.908 122.156 559.153 122.095C559.399 122.035 559.63 121.952 559.843 121.84C560.06 121.729 560.268 121.594 560.463 121.441C560.662 121.283 560.852 121.107 561.041 120.903V118.93C560.268 118.93 559.616 118.981 559.075 119.078C558.533 119.176 558.098 119.306 557.756 119.464C557.418 119.621 557.173 119.807 557.015 120.025C556.858 120.243 556.784 120.48 556.784 120.745C556.784 120.995 556.826 121.218 556.904 121.399C556.988 121.585 557.094 121.733 557.233 121.849C557.372 121.965 557.534 122.054 557.723 122.105C557.913 122.156 558.121 122.184 558.344 122.184Z" fill="#BCBEC0"/>
<path d="M566.169 123.214V109.312H567.844V114.938C568.251 114.506 568.705 114.158 569.2 113.894C569.695 113.634 570.264 113.504 570.912 113.504C571.43 113.504 571.893 113.592 572.291 113.764C572.689 113.935 573.022 114.181 573.29 114.497C573.559 114.813 573.758 115.198 573.897 115.644C574.036 116.089 574.105 116.586 574.105 117.124V123.209H572.43V117.124C572.43 116.4 572.263 115.839 571.935 115.439C571.606 115.04 571.102 114.841 570.426 114.841C569.931 114.841 569.468 114.961 569.038 115.198C568.608 115.439 568.21 115.76 567.849 116.168V123.209H566.169V123.214Z" fill="#BCBEC0"/>
<path d="M580.458 123.362C579.704 123.362 579.126 123.154 578.723 122.731C578.32 122.309 578.117 121.701 578.117 120.912V115.063H576.969C576.867 115.063 576.784 115.035 576.715 114.975C576.645 114.915 576.613 114.822 576.613 114.697V114.028L578.177 113.829L578.561 110.877C578.575 110.784 578.612 110.705 578.681 110.645C578.751 110.584 578.839 110.556 578.945 110.556H579.792V113.852H582.522V115.068H579.792V120.805C579.792 121.209 579.889 121.506 580.083 121.701C580.278 121.896 580.528 121.993 580.838 121.993C581.014 121.993 581.166 121.97 581.296 121.924C581.425 121.877 581.536 121.826 581.629 121.766C581.722 121.705 581.805 121.659 581.87 121.613C581.934 121.566 581.995 121.543 582.045 121.543C582.133 121.543 582.212 121.599 582.281 121.705L582.772 122.508C582.485 122.778 582.133 122.991 581.726 123.144C581.31 123.288 580.893 123.362 580.458 123.362Z" fill="#BCBEC0"/>
<path d="M589.301 113.504C589.87 113.504 590.397 113.602 590.883 113.792C591.364 113.982 591.781 114.261 592.133 114.623C592.484 114.985 592.757 115.43 592.956 115.964C593.155 116.498 593.252 117.101 593.252 117.779C593.252 118.044 593.225 118.22 593.169 118.308C593.114 118.396 593.007 118.438 592.85 118.438H586.51C586.524 119.042 586.603 119.566 586.756 120.016C586.908 120.462 587.112 120.838 587.376 121.135C587.639 121.432 587.954 121.659 588.315 121.803C588.676 121.947 589.088 122.026 589.537 122.026C589.958 122.026 590.319 121.98 590.624 121.878C590.929 121.78 591.189 121.673 591.411 121.562C591.628 121.45 591.813 121.344 591.961 121.246C592.109 121.149 592.234 121.102 592.341 121.102C592.48 121.102 592.586 121.158 592.66 121.265L593.132 121.878C592.924 122.128 592.679 122.346 592.387 122.532C592.1 122.718 591.79 122.871 591.462 122.991C591.133 123.112 590.791 123.2 590.439 123.261C590.087 123.321 589.74 123.349 589.393 123.349C588.736 123.349 588.13 123.237 587.575 123.015C587.019 122.792 586.538 122.462 586.135 122.035C585.733 121.604 585.414 121.07 585.192 120.434C584.969 119.798 584.854 119.069 584.854 118.243C584.854 117.575 584.956 116.953 585.159 116.373C585.363 115.792 585.654 115.291 586.038 114.869C586.422 114.446 586.89 114.112 587.44 113.871C587.991 113.625 588.611 113.504 589.301 113.504ZM589.338 114.739C588.528 114.739 587.894 114.976 587.427 115.44C586.964 115.908 586.672 116.558 586.561 117.389H591.744C591.744 116.999 591.688 116.642 591.582 116.317C591.475 115.992 591.318 115.714 591.11 115.477C590.902 115.24 590.652 115.059 590.351 114.929C590.059 114.804 589.722 114.739 589.338 114.739Z" fill="#BCBEC0"/>
<path d="M596.33 123.214V113.657H597.288C597.468 113.657 597.593 113.694 597.663 113.759C597.732 113.829 597.778 113.95 597.806 114.117L597.917 115.607C598.241 114.938 598.648 114.419 599.125 114.043C599.606 113.667 600.166 113.481 600.814 113.481C601.077 113.481 601.314 113.513 601.531 113.569C601.744 113.629 601.943 113.713 602.123 113.82L601.906 115.073C601.864 115.231 601.767 115.31 601.614 115.31C601.526 115.31 601.392 115.282 601.212 115.222C601.031 115.161 600.777 115.133 600.448 115.133C599.865 115.133 599.379 115.305 598.986 115.644C598.593 115.983 598.264 116.479 598.005 117.125V123.21H596.33V123.214Z" fill="#BCBEC0"/>
<path d="M611.494 123.214H610.749C610.587 123.214 610.452 123.191 610.355 123.14C610.253 123.089 610.189 122.982 610.156 122.82L609.967 121.933C609.717 122.16 609.472 122.36 609.231 122.541C608.99 122.722 608.74 122.871 608.477 122.996C608.213 123.117 607.931 123.209 607.634 123.274C607.338 123.335 607.005 123.367 606.644 123.367C606.274 123.367 605.927 123.316 605.603 123.209C605.279 123.107 605.001 122.949 604.761 122.741C604.52 122.532 604.335 122.267 604.192 121.952C604.053 121.631 603.979 121.255 603.979 120.819C603.979 120.438 604.081 120.076 604.289 119.724C604.497 119.371 604.83 119.064 605.293 118.791C605.756 118.521 606.357 118.299 607.102 118.122C607.847 117.951 608.759 117.862 609.842 117.862V117.11C609.842 116.363 609.684 115.797 609.365 115.416C609.046 115.036 608.578 114.841 607.958 114.841C607.551 114.841 607.209 114.892 606.926 114.998C606.649 115.101 606.404 115.217 606.2 115.347C605.996 115.477 605.82 115.593 605.672 115.695C605.524 115.797 605.381 115.853 605.233 115.853C605.122 115.853 605.02 115.825 604.937 115.764C604.853 115.704 604.784 115.63 604.733 115.542L604.432 115.003C604.96 114.493 605.524 114.112 606.135 113.861C606.741 113.611 607.417 113.485 608.157 113.485C608.689 113.485 609.166 113.574 609.578 113.75C609.99 113.926 610.341 114.172 610.624 114.488C610.906 114.804 611.119 115.184 611.262 115.63C611.406 116.075 611.48 116.567 611.48 117.101V123.214H611.494ZM607.149 122.184C607.445 122.184 607.713 122.156 607.958 122.095C608.204 122.035 608.435 121.952 608.648 121.84C608.865 121.729 609.074 121.594 609.268 121.441C609.467 121.283 609.657 121.107 609.846 120.903V118.93C609.074 118.93 608.421 118.981 607.88 119.078C607.338 119.176 606.903 119.306 606.561 119.464C606.223 119.621 605.978 119.807 605.821 120.025C605.663 120.243 605.589 120.48 605.589 120.745C605.589 120.995 605.631 121.218 605.709 121.399C605.793 121.585 605.899 121.733 606.038 121.849C606.177 121.965 606.339 122.054 606.529 122.105C606.718 122.156 606.926 122.184 607.149 122.184Z" fill="#BCBEC0"/>
<path d="M95.6462 65.5715C99.1023 68.6746 110.98 81.0372 98.8441 95.4371C99.0675 95.0436 104.709 85.0519 97.6871 80.5342C89.6376 75.349 100.324 75.1797 91.7034 70.2286C87.7606 67.9673 82.9637 66.3286 77.8391 65.6163C77.8341 65.6163 72.3321 64.8642 67.858 68.7294C71.9696 64.7845 79.6615 57.5422 95.6462 65.5715Z" fill="url(#paint0_linear_134_73)"/>
<path d="M45.929 59.4001C48.1685 57.4675 50.8302 55.6843 53.9337 54.3644C76.8207 44.6765 90.8042 60.6204 90.8042 60.6204C81.4041 55.7341 76.9349 54.1552 65.7124 56.7204C68.1556 56.2223 80.2222 54.4839 94.7718 64.8293C94.7718 64.8293 95.1045 65.0833 95.6458 65.5665C80.7784 59.5645 71.9742 64.7845 67.8576 68.7344C66.8893 69.5662 65.9706 70.6171 65.1711 71.9371C65.0768 72.0865 65.0271 72.1712 65.0271 72.1712C65.0271 72.1712 54.2217 70.5225 47.3641 81.1867C47.4435 80.848 50.1201 69.9597 61.5114 62.9316C52.3745 67.4493 48.0941 72.4153 44.8167 77.8295C41.9614 82.5564 41.2861 89.465 45.1692 93.3601C40.0893 88.2596 33.187 74.303 44.8812 60.2917C45.2189 59.9878 45.5665 59.689 45.929 59.4001Z" fill="url(#paint1_linear_134_73)"/>
<path d="M107.057 134.124C107.797 138.378 96.3756 141.366 92.6861 141.366C92.6861 141.366 98.7889 145.341 106.103 140.519C106.034 140.704 103.69 146.591 94.0666 146.955C90.3671 147.094 87.0897 146.332 84.1103 145.446C83.9017 145.391 76.5922 143.583 67.8376 150.92C67.937 150.75 71.2689 145.316 79.1992 143.926C78.0025 143.583 76.8454 143.304 75.7232 143.159C68.503 144.444 62.1469 149.505 62.1469 149.505C50.3136 159.253 39.9502 147.448 39.9502 147.448C48.7743 152.314 53.1888 153.54 60.6572 147.856C64.4312 144.987 72.2373 141.59 76.1651 140.181C74.0597 139.593 70.3801 139.065 67.1921 141.157C62.3952 144.305 63.1351 134.189 64.5454 132.4C64.5454 132.4 61.6653 134.054 61.4567 138.313C61.9682 142.841 58.5865 144.101 55.8901 145.047C53.1838 145.998 51.8331 148.524 51.8331 148.524C51.8331 148.524 51.9871 146.193 51.5799 143.144C51.1777 140.096 56.7691 139.349 58.3035 139.07C59.0136 138.94 59.3959 138.716 59.6094 138.517C54.8722 135.723 42.2592 127.245 35.5257 112.83C27.3522 95.3324 32.4619 84.215 32.4619 84.215C32.4619 84.215 32.586 111.501 52.6028 121.667C52.6028 121.667 41.0675 113.543 36.5089 96.5029C34.5475 89.176 31.5333 72.1562 44.8861 60.2866C33.1918 74.298 41.0377 87.9258 45.1741 93.355C45.7601 94.2366 46.4503 95.0635 47.2448 95.8006C47.2597 95.8156 47.2696 95.8255 47.2696 95.8255C48.2032 96.6972 49.2758 97.4493 50.4974 98.052C57.9906 101.773 68.5775 103.925 79.4227 109.663C79.4773 109.563 79.7057 108.995 78.7672 107.949C77.7244 106.789 73.7419 102.784 75.9119 100.612C78.0819 98.4405 79.378 96.498 79.378 96.498C79.378 96.498 78.9162 99.3271 80.4853 101.733C82.0446 104.129 83.9464 107.177 80.8478 110.435C83.5591 111.949 86.2753 113.702 88.9618 115.769C91.8916 111.446 90.3373 108.308 86.3846 104.343C82.1637 100.114 89.5229 89.2906 89.7017 89.0316C86.4491 96.1842 85.2474 101.19 88.4702 104.014C91.5291 106.694 92.2292 109.493 92.4378 110.823C92.7804 113.06 91.4248 115.754 90.6303 117.104C91.1169 117.508 91.6085 117.926 92.0902 118.349C92.5719 117.343 95.8939 110.126 93.0138 106.694C93.0138 106.694 96.2962 109.06 94.3844 116.028L94.4787 115.884C94.434 116.043 93.6196 118.902 95.7897 121.662H95.5712C98.4165 124.575 101.172 127.953 103.784 131.902C103.779 131.902 106.322 129.87 107.057 134.124ZM81.3593 136.027C81.3593 135.972 81.3494 132.57 78.8168 132.097C76.2645 131.618 76.4085 134.497 76.4085 134.497C78.8019 133.043 81.3593 136.027 81.3593 136.027Z" fill="url(#paint2_linear_134_73)"/>
<path d="M130.42 77.7198C76.0702 10.1087 70.7122 0.649902 70.7122 0.649902C70.7122 0.649902 61.7392 14.0486 11.0044 77.7198C0.636016 90.735 -2.06533 102.614 1.89234 112.422C4.50927 118.907 9.69348 123.32 14.2669 126.119C19.1432 129.108 22.3064 133.705 23.091 138.766L25.4696 150.581V128.64V128.635C25.4696 127.957 24.968 127.355 24.2132 127.126H24.2083C24.0692 127.081 11.9082 122.708 7.3447 111.351C3.79918 102.525 8.11439 91.9403 17.4499 79.6076C42.2189 46.8829 64.3313 18.8502 70.7072 11.4535C77.0783 18.8502 99.5034 46.7185 124.272 79.4382C133.613 91.776 137.615 102.525 134.065 111.351C129.501 122.713 117.34 127.086 117.201 127.126C116.446 127.355 115.94 127.957 115.94 128.64V150.581L118.319 138.766C119.103 133.705 122.266 129.108 127.143 126.119C131.716 123.32 136.9 118.907 139.517 112.422C143.495 102.614 140.853 90.6951 130.42 77.7198Z" fill="url(#paint3_linear_134_73)"/>
<path d="M130.236 157.101C130.236 157.101 128.091 155.637 128.091 154.107C128.091 152.578 129.178 151.129 131.06 151.129C132.942 151.129 134.839 153.031 134.839 155.467C134.839 158.71 130.41 163.985 123.423 162.754C107.29 159.91 88.261 156.518 73.4532 163.681C73.4532 163.681 85.3113 159.736 101.678 162.52C109.857 163.91 122.048 169.015 130.132 165.827C136.091 163.476 138.519 159.91 138.519 155.502C138.519 152.369 135.773 147.876 130.797 147.876C124.908 147.876 125.613 153.121 126.07 154.411C126.522 155.696 128.925 156.887 130.236 157.101Z" fill="url(#paint4_linear_134_73)"/>
<path d="M12.2018 157.101C12.2018 157.101 14.347 155.637 14.347 154.107C14.347 152.578 13.2595 151.129 11.3775 151.129C9.49545 151.129 7.60352 153.032 7.60352 155.462C7.60352 158.705 12.0329 163.98 19.0197 162.749C35.1533 159.905 54.1819 156.513 68.9897 163.676C68.9897 163.676 57.1316 159.731 40.7646 162.515C32.586 163.905 20.3952 169.01 12.311 165.823C6.35215 163.472 3.92392 159.905 3.92392 155.497C3.92392 152.364 6.66996 147.871 11.6456 147.871C17.5349 147.871 16.8298 153.116 16.373 154.406C15.9161 155.696 13.5078 156.887 12.2018 157.101Z" fill="url(#paint5_linear_134_73)"/>
<path d="M137.928 168.98C137.928 168.98 130.211 170.888 123.185 170.32C112.588 169.468 103.749 166.076 99.846 165.274C94.3341 164.139 91.6129 163.865 76.244 165.952C76.244 165.952 91.5434 166.076 100.149 168.353C104.002 169.379 121.541 176.89 137.928 168.98Z" fill="url(#paint6_linear_134_73)"/>
<path d="M7.19659 168.178C7.19659 168.178 18.6078 172.452 43.1583 165.414C53.5764 162.425 76.6719 167.889 85.6648 170.863C85.6648 170.863 54.0879 165.673 44.1713 168.139C37.8748 169.708 18.9207 175.72 7.19659 168.178Z" fill="url(#paint7_linear_134_73)"/>
<defs>
<linearGradient id="paint0_linear_134_73" x1="83.6681" y1="61.4251" x2="89.9617" y2="97.0085" gradientUnits="userSpaceOnUse">
<stop offset="0.3352" stop-color="#056399"/>
<stop offset="0.6872" stop-color="#1D7CB8"/>
</linearGradient>
<linearGradient id="paint1_linear_134_73" x1="37.525" y1="81.4182" x2="88.0343" y2="52.3457" gradientUnits="userSpaceOnUse">
<stop offset="0.3464" stop-color="#52A4DA"/>
<stop offset="0.7095" stop-color="#1D7CB8"/>
</linearGradient>
<linearGradient id="paint2_linear_134_73" x1="28.2796" y1="102.633" x2="110.441" y2="120.044" gradientUnits="userSpaceOnUse">
<stop offset="0.1899" stop-color="#1D7CB8"/>
<stop offset="0.743" stop-color="#056399"/>
</linearGradient>
<linearGradient id="paint3_linear_134_73" x1="103.505" y1="12.6215" x2="49.8857" y2="159.491" gradientUnits="userSpaceOnUse">
<stop offset="0.3464" stop-color="#52A4DA"/>
<stop offset="0.7095" stop-color="#1D7CB8"/>
</linearGradient>
<linearGradient id="paint4_linear_134_73" x1="103.604" y1="152.474" x2="111.026" y2="172.804" gradientUnits="userSpaceOnUse">
<stop offset="0.3464" stop-color="#52A4DA"/>
<stop offset="0.7095" stop-color="#1D7CB8"/>
</linearGradient>
<linearGradient id="paint5_linear_134_73" x1="38.8331" y1="152.474" x2="31.4107" y2="172.804" gradientUnits="userSpaceOnUse">
<stop offset="0.3464" stop-color="#52A4DA"/>
<stop offset="0.7095" stop-color="#1D7CB8"/>
</linearGradient>
<linearGradient id="paint6_linear_134_73" x1="102.996" y1="156.188" x2="111.285" y2="178.891" gradientUnits="userSpaceOnUse">
<stop offset="0.3464" stop-color="#52A4DA"/>
<stop offset="0.7095" stop-color="#1D7CB8"/>
</linearGradient>
<linearGradient id="paint7_linear_134_73" x1="50.5884" y1="158.061" x2="42.058" y2="181.427" gradientUnits="userSpaceOnUse">
<stop offset="0.3464" stop-color="#52A4DA"/>
<stop offset="0.7095" stop-color="#1D7CB8"/>
</linearGradient>
</defs>
</svg>
