<svg width="506" height="469" viewBox="0 0 506 469" fill="none" xmlns="http://www.w3.org/2000/svg">
<rect width="506" height="468.66" rx="5" fill="url(#paint0_radial_150_125)"/>
<path d="M53.5841 298.21H41.7607V291.724H74.5671V298.21H62.8055V329.643H53.5841V298.21Z" fill="black"/>
<path d="M79.8854 291.724H97.1464C102.271 291.724 105.975 292.339 108.26 293.564C110.544 294.793 111.686 296.846 111.686 299.727V306.388C111.686 308.606 110.888 310.35 109.292 311.618C107.695 312.887 105.578 313.693 102.937 314.042L114.05 329.643H103.413L93.3626 314.744H89.1069V329.643H79.8854V291.724ZM97.0317 308.728C99.1971 308.728 100.674 308.445 101.464 307.883C102.253 307.321 102.646 306.218 102.646 304.583V301.894C102.646 300.49 102.222 299.527 101.376 298.999C100.529 298.472 99.078 298.21 97.0317 298.21H89.1113V308.728H97.0317Z" fill="black"/>
<path d="M129.543 291.724H140.775L154.61 329.643H145.265L141.838 319.652H127.827L124.458 329.643H115.356L129.543 291.724ZM139.827 313.576L134.98 299.317H134.742L129.896 313.576H139.827Z" fill="black"/>
<path d="M155.848 329.643V322.982C158.644 323.488 161.07 323.741 163.121 323.741C166.234 323.741 167.791 322.359 167.791 319.591V291.724H177.012V319.303C177.012 323.279 175.927 326.09 173.762 327.747C171.592 329.403 168.285 330.231 163.831 330.231C161.145 330.227 158.486 330.035 155.848 329.643Z" fill="black"/>
<path d="M185.048 319.242V291.724H194.269V319.242C194.269 320.955 194.829 322.132 195.954 322.777C197.078 323.423 199.019 323.741 201.775 323.741C204.496 323.741 206.397 323.418 207.482 322.777C208.567 322.137 209.109 320.955 209.109 319.242V291.724H218.331V319.242C218.331 326.565 212.774 330.227 201.661 330.227C190.587 330.227 185.048 326.57 185.048 319.242Z" fill="black"/>
<path d="M226.484 291.724H239.609L249.068 318.833L258.409 291.724H270.761V329.643H262.426V301.597H262.25L252.557 329.643H245.17L235.181 301.597H234.943V329.643H226.489V291.724H226.484Z" fill="black"/>
<path d="M289.205 291.724H300.437L314.271 329.643H304.931L301.504 319.652H287.489L284.12 329.643H275.018L289.205 291.724ZM299.489 313.576L294.642 299.317H294.404L289.557 313.576H299.489Z" fill="black"/>
<path d="M317.341 329.177V322.224C324.04 323.24 328.613 323.746 331.056 323.746C336.181 323.746 338.743 322.442 338.743 319.831V317.377C338.743 316.131 338.377 315.176 337.649 314.513C336.922 313.851 335.612 313.52 333.72 313.52H329.226C320.794 313.52 316.578 310.211 316.578 303.585V300.783C316.578 297.474 317.976 295.038 320.777 293.481C323.568 291.921 328 291.141 334.073 291.141C337.226 291.141 341.226 291.393 346.073 291.899V298.677C340.124 297.975 336.022 297.627 333.777 297.627C330.664 297.627 328.574 297.88 327.511 298.385C326.369 298.93 325.795 299.789 325.795 300.957V303.647C325.795 305.634 327.489 306.628 330.88 306.628H335.493C339.868 306.628 343.039 307.426 345.01 309.025C346.981 310.625 347.965 313.058 347.965 316.327V318.838C347.965 323.358 346.328 326.413 343.056 328.009C341.477 328.828 339.735 329.404 337.826 329.731C335.912 330.062 333.619 330.227 330.937 330.227C327.273 330.227 322.739 329.879 317.341 329.177Z" fill="black"/>
<path d="M363.214 298.21H351.391V291.724H384.197V298.21H372.436V329.643H363.214V298.21Z" fill="black"/>
<path d="M389.515 291.724H406.776C411.901 291.724 415.605 292.339 417.89 293.564C420.174 294.793 421.316 296.846 421.316 299.727V306.388C421.316 308.606 420.518 310.35 418.922 311.618C417.325 312.887 415.208 313.693 412.567 314.042L423.68 329.643H413.043L402.993 314.744H398.737V329.643H389.515V291.724ZM406.657 308.728C408.823 308.728 410.3 308.445 411.089 307.883C411.879 307.321 412.271 306.218 412.271 304.583V301.894C412.271 300.49 411.848 299.527 411.001 298.999C410.154 298.472 408.704 298.21 406.657 298.21H398.737V308.728H406.657Z" fill="black"/>
<path d="M439.173 291.724H450.406L464.24 329.643H454.895L451.468 319.652H437.458L434.088 329.643H424.986L439.173 291.724ZM449.457 313.576L444.611 299.317H444.373L439.526 313.576H449.457Z" fill="black"/>
<path d="M44.9003 344.911H45.553C45.7779 344.911 45.9587 344.885 46.0955 344.829C46.2278 344.772 46.3556 344.676 46.4747 344.541L50.7525 339.755C50.8848 339.607 51.0127 339.502 51.1317 339.441C51.2508 339.38 51.4096 339.349 51.6036 339.349H53.081L48.1858 344.816C48.0623 344.951 47.9433 345.068 47.833 345.16C47.7228 345.256 47.6037 345.33 47.4802 345.391C47.6478 345.443 47.7933 345.522 47.9212 345.631C48.0447 345.735 48.177 345.87 48.3137 346.027L53.425 352.043H51.9167C51.8021 352.043 51.7094 352.034 51.6301 352.017C51.5507 351.999 51.4845 351.977 51.4272 351.947C51.3699 351.916 51.317 351.877 51.2684 351.833C51.2199 351.786 51.1714 351.738 51.1229 351.681L46.6908 346.638C46.6247 346.568 46.5629 346.507 46.5056 346.454C46.4483 346.402 46.3821 346.363 46.3071 346.328C46.2322 346.293 46.144 346.267 46.0469 346.254C45.9499 346.241 45.8264 346.232 45.6853 346.232H44.9003V352.047H43.1672V339.349H44.8959V344.911H44.9003Z" fill="#9E9E9E"/>
<path d="M59.1192 342.924C59.6616 342.924 60.1643 343.016 60.6274 343.194C61.086 343.373 61.483 343.635 61.8181 343.975C62.1533 344.315 62.4135 344.733 62.6031 345.234C62.7927 345.736 62.8854 346.302 62.8854 346.939C62.8854 347.187 62.8589 347.353 62.806 347.436C62.7531 347.518 62.6516 347.558 62.5017 347.558H56.4599C56.4731 348.124 56.5481 348.617 56.6936 349.04C56.8392 349.458 57.0332 349.811 57.2846 350.09C57.536 350.369 57.8358 350.583 58.1798 350.718C58.5238 350.853 58.9163 350.927 59.3441 350.927C59.7454 350.927 60.0894 350.884 60.3804 350.788C60.6715 350.696 60.9185 350.596 61.1302 350.491C61.3374 350.387 61.5138 350.286 61.6549 350.195C61.7961 350.103 61.9151 350.06 62.0166 350.06C62.1489 350.06 62.2503 350.112 62.3209 350.212L62.7707 350.788C62.5722 351.023 62.3385 351.228 62.0607 351.402C61.7872 351.577 61.4918 351.72 61.1787 351.834C60.8655 351.947 60.5392 352.03 60.204 352.087C59.8689 352.143 59.5381 352.169 59.2074 352.169C58.5811 352.169 58.0034 352.065 57.4742 351.856C56.945 351.646 56.4864 351.337 56.1027 350.936C55.719 350.53 55.4147 350.029 55.203 349.432C54.9914 348.835 54.8811 348.15 54.8811 347.375C54.8811 346.747 54.9781 346.163 55.1722 345.618C55.3662 345.073 55.644 344.602 56.0101 344.206C56.3761 343.809 56.8215 343.495 57.3463 343.268C57.8711 343.037 58.4621 342.924 59.1192 342.924ZM59.1544 344.088C58.3827 344.088 57.7785 344.31 57.3331 344.746C56.8921 345.186 56.6143 345.797 56.5084 346.577H61.4477C61.4477 346.211 61.3948 345.875 61.2933 345.57C61.1919 345.265 61.0419 345.003 60.8435 344.781C60.645 344.559 60.4069 344.389 60.1202 344.267C59.8424 344.149 59.5205 344.088 59.1544 344.088Z" fill="#9E9E9E"/>
<path d="M65.8179 352.044V343.068H66.766C66.9954 343.068 67.1365 343.177 67.1982 343.395L67.3129 344.319C67.648 343.91 68.0229 343.578 68.4374 343.317C68.852 343.055 69.3371 342.929 69.8839 342.929C70.5013 342.929 70.9953 343.099 71.3745 343.435C71.7538 343.77 72.0272 344.228 72.1948 344.799C72.3183 344.472 72.4859 344.193 72.6931 343.958C72.9004 343.722 73.1297 343.526 73.3899 343.374C73.6457 343.221 73.9191 343.108 74.2102 343.038C74.5013 342.968 74.7923 342.933 75.0922 342.933C75.5685 342.933 75.9963 343.007 76.3711 343.16C76.746 343.313 77.0635 343.53 77.3193 343.818C77.5795 344.106 77.7779 344.463 77.9146 344.886C78.0514 345.309 78.1219 345.793 78.1219 346.333V352.048H76.5255V346.333C76.5255 345.632 76.3711 345.095 76.058 344.734C75.7493 344.372 75.2951 344.189 74.7041 344.189C74.4395 344.189 74.1926 344.237 73.9544 344.328C73.7163 344.42 73.509 344.555 73.3326 344.729C73.1518 344.908 73.0107 345.13 72.9048 345.4C72.799 345.671 72.7461 345.98 72.7461 346.333V352.048H71.1496V346.333C71.1496 345.614 71.0041 345.074 70.7086 344.72C70.4176 344.367 69.9898 344.189 69.4253 344.189C69.0328 344.189 68.6624 344.293 68.3272 344.503C67.9876 344.712 67.6789 344.999 67.4011 345.357V352.048H65.8179V352.044Z" fill="#9E9E9E"/>
<path d="M83.5686 340.249C83.5686 340.402 83.5377 340.545 83.476 340.681C83.4143 340.811 83.3305 340.933 83.2246 341.034C83.1188 341.138 82.9997 341.217 82.863 341.278C82.7263 341.339 82.5808 341.365 82.422 341.365C82.2677 341.365 82.1221 341.334 81.9854 341.278C81.8487 341.217 81.7296 341.138 81.6282 341.034C81.5224 340.929 81.443 340.811 81.3812 340.681C81.3195 340.545 81.293 340.406 81.293 340.249C81.293 340.092 81.3239 339.948 81.3812 339.809C81.443 339.669 81.5224 339.547 81.6282 339.447C81.734 339.342 81.8531 339.264 81.9854 339.203C82.1177 339.142 82.2632 339.116 82.422 339.116C82.5764 339.116 82.7219 339.146 82.863 339.203C82.9997 339.26 83.1232 339.342 83.2246 339.447C83.3261 339.552 83.4143 339.674 83.476 339.809C83.5377 339.953 83.5686 340.096 83.5686 340.249ZM83.2114 343.069V352.044H81.615V343.069H83.2114Z" fill="#9E9E9E"/>
<path d="M89.6761 352.187C88.9573 352.187 88.406 351.991 88.0223 351.594C87.6387 351.198 87.4446 350.627 87.4446 349.886V344.393H86.3509C86.2539 344.393 86.1745 344.367 86.1084 344.311C86.0422 344.254 86.0114 344.167 86.0114 344.049V343.421L87.5019 343.234L87.868 340.462C87.8812 340.374 87.9165 340.3 87.9826 340.244C88.0488 340.187 88.1326 340.161 88.234 340.161H89.0411V343.256H91.643V344.398H89.0411V349.785C89.0411 350.165 89.1337 350.444 89.3189 350.627C89.5041 350.81 89.7423 350.901 90.0377 350.901C90.2053 350.901 90.3508 350.88 90.4743 350.836C90.5978 350.792 90.7036 350.744 90.7918 350.688C90.88 350.631 90.9594 350.588 91.0212 350.544C91.0829 350.5 91.1402 350.479 91.1888 350.479C91.2725 350.479 91.3475 350.531 91.4137 350.631L91.8811 351.385C91.6077 351.638 91.2725 351.839 90.8845 351.982C90.4876 352.113 90.0862 352.187 89.6761 352.187Z" fill="#9E9E9E"/>
<path d="M94.5049 352.042V343.067H95.4178C95.5898 343.067 95.7088 343.102 95.775 343.163C95.8411 343.228 95.8852 343.342 95.9117 343.499L96.0175 344.898C96.3262 344.27 96.7143 343.782 97.1686 343.429C97.6272 343.076 98.1608 342.901 98.7782 342.901C99.0296 342.901 99.2545 342.932 99.4618 342.984C99.6646 343.041 99.8543 343.119 100.026 343.22L99.819 344.396C99.7793 344.545 99.6867 344.619 99.5412 344.619C99.4574 344.619 99.3295 344.593 99.1575 344.536C98.9855 344.479 98.7429 344.453 98.4298 344.453C97.8742 344.453 97.4111 344.614 97.0363 344.933C96.6614 345.251 96.3483 345.717 96.1013 346.323V352.038H94.5049V352.042Z" fill="#9E9E9E"/>
<path d="M108.961 352.045H108.251C108.097 352.045 107.969 352.023 107.877 351.975C107.78 351.927 107.718 351.827 107.687 351.674L107.506 350.842C107.268 351.055 107.034 351.243 106.805 351.413C106.576 351.583 106.337 351.722 106.086 351.84C105.835 351.953 105.566 352.04 105.283 352.101C105.001 352.158 104.684 352.188 104.34 352.188C103.987 352.188 103.656 352.14 103.347 352.04C103.039 351.944 102.774 351.796 102.545 351.6C102.315 351.404 102.139 351.155 102.002 350.859C101.87 350.558 101.799 350.205 101.799 349.795C101.799 349.438 101.897 349.098 102.095 348.767C102.293 348.435 102.611 348.148 103.052 347.891C103.493 347.638 104.066 347.428 104.776 347.263C105.486 347.102 106.355 347.019 107.387 347.019V346.313C107.387 345.611 107.237 345.079 106.933 344.722C106.629 344.364 106.183 344.181 105.592 344.181C105.204 344.181 104.878 344.229 104.609 344.329C104.344 344.425 104.11 344.534 103.916 344.656C103.722 344.778 103.555 344.887 103.414 344.983C103.272 345.079 103.136 345.131 102.995 345.131C102.889 345.131 102.792 345.105 102.712 345.048C102.633 344.992 102.567 344.922 102.518 344.839L102.232 344.334C102.734 343.854 103.272 343.497 103.855 343.261C104.432 343.026 105.076 342.908 105.782 342.908C106.289 342.908 106.743 342.991 107.136 343.157C107.528 343.322 107.863 343.553 108.132 343.85C108.401 344.146 108.604 344.504 108.741 344.922C108.878 345.341 108.948 345.803 108.948 346.304V352.045H108.961ZM104.816 351.081C105.098 351.081 105.354 351.055 105.588 350.998C105.821 350.942 106.042 350.863 106.245 350.759C106.452 350.654 106.651 350.528 106.836 350.384C107.025 350.236 107.206 350.07 107.387 349.878V348.026C106.651 348.026 106.029 348.074 105.513 348.165C104.997 348.257 104.582 348.379 104.256 348.527C103.934 348.675 103.7 348.849 103.55 349.054C103.4 349.259 103.33 349.482 103.33 349.73C103.33 349.965 103.369 350.175 103.444 350.345C103.524 350.519 103.625 350.658 103.758 350.767C103.89 350.876 104.044 350.959 104.225 351.007C104.406 351.055 104.609 351.081 104.816 351.081Z" fill="#9E9E9E"/>
<path d="M118.946 352.045H118.236C118.081 352.045 117.953 352.023 117.861 351.975C117.764 351.927 117.702 351.827 117.671 351.674L117.49 350.842C117.252 351.055 117.019 351.243 116.789 351.413C116.56 351.583 116.322 351.722 116.07 351.84C115.819 351.953 115.55 352.04 115.268 352.101C114.986 352.158 114.668 352.188 114.324 352.188C113.971 352.188 113.64 352.14 113.332 352.04C113.023 351.944 112.758 351.796 112.529 351.6C112.3 351.404 112.123 351.155 111.987 350.859C111.854 350.558 111.784 350.205 111.784 349.795C111.784 349.438 111.881 349.098 112.079 348.767C112.278 348.435 112.595 348.148 113.036 347.891C113.477 347.638 114.051 347.428 114.761 347.263C115.471 347.102 116.339 347.019 117.371 347.019V346.313C117.371 345.611 117.221 345.079 116.917 344.722C116.613 344.364 116.167 344.181 115.576 344.181C115.188 344.181 114.862 344.229 114.593 344.329C114.328 344.425 114.095 344.534 113.901 344.656C113.707 344.778 113.539 344.887 113.398 344.983C113.257 345.079 113.12 345.131 112.979 345.131C112.873 345.131 112.776 345.105 112.697 345.048C112.617 344.992 112.551 344.922 112.503 344.839L112.216 344.334C112.719 343.854 113.257 343.497 113.839 343.261C114.417 343.026 115.06 342.908 115.766 342.908C116.273 342.908 116.727 342.991 117.12 343.157C117.512 343.322 117.848 343.553 118.117 343.85C118.386 344.146 118.589 344.504 118.725 344.922C118.862 345.341 118.933 345.803 118.933 346.304V352.045H118.946ZM114.805 351.081C115.087 351.081 115.343 351.055 115.576 350.998C115.81 350.942 116.031 350.863 116.234 350.759C116.441 350.654 116.639 350.528 116.825 350.384C117.014 350.236 117.195 350.07 117.376 349.878V348.026C116.639 348.026 116.017 348.074 115.501 348.165C114.986 348.257 114.571 348.379 114.245 348.527C113.923 348.675 113.689 348.849 113.539 349.054C113.389 349.259 113.319 349.482 113.319 349.73C113.319 349.965 113.358 350.175 113.433 350.345C113.513 350.519 113.614 350.658 113.746 350.767C113.879 350.876 114.033 350.959 114.214 351.007C114.395 351.055 114.597 351.081 114.805 351.081Z" fill="#9E9E9E"/>
<path d="M122.267 352.043V343.068H123.215C123.444 343.068 123.585 343.177 123.647 343.395L123.771 344.371C124.163 343.94 124.604 343.591 125.094 343.325C125.579 343.059 126.143 342.924 126.783 342.924C127.277 342.924 127.718 343.007 128.097 343.168C128.476 343.329 128.794 343.56 129.05 343.857C129.305 344.153 129.495 344.515 129.627 344.934C129.76 345.352 129.826 345.818 129.826 346.324V352.039H128.229V346.324C128.229 345.644 128.07 345.117 127.757 344.742C127.444 344.367 126.964 344.179 126.32 344.179C125.848 344.179 125.407 344.293 124.997 344.515C124.587 344.742 124.207 345.043 123.863 345.426V352.039H122.267V352.043Z" fill="#9E9E9E"/>
<path d="M144.281 347.902C144.343 348.059 144.405 348.216 144.466 348.377C144.528 348.212 144.59 348.055 144.656 347.902C144.722 347.75 144.797 347.597 144.881 347.444L149.229 339.638C149.309 339.502 149.388 339.42 149.472 339.389C149.556 339.359 149.675 339.345 149.829 339.345H151.112V352.043H149.586V342.711C149.586 342.589 149.591 342.453 149.595 342.314C149.6 342.17 149.608 342.026 149.622 341.878L145.22 349.82C145.071 350.086 144.863 350.217 144.594 350.217H144.343C144.074 350.217 143.867 350.086 143.717 349.82L139.214 341.852C139.232 342.004 139.245 342.157 139.254 342.305C139.262 342.453 139.267 342.589 139.267 342.711V352.043H137.741V339.345H139.024C139.179 339.345 139.298 339.359 139.382 339.389C139.465 339.42 139.545 339.502 139.624 339.638L144.061 347.453C144.144 347.597 144.215 347.745 144.281 347.902Z" fill="#9E9E9E"/>
<path d="M161.551 352.045H160.841C160.687 352.045 160.559 352.023 160.467 351.975C160.369 351.927 160.308 351.827 160.277 351.674L160.096 350.842C159.858 351.055 159.624 351.243 159.395 351.413C159.166 351.583 158.927 351.722 158.676 351.84C158.425 351.953 158.156 352.04 157.873 352.101C157.591 352.158 157.274 352.188 156.93 352.188C156.577 352.188 156.246 352.14 155.937 352.04C155.629 351.944 155.364 351.796 155.135 351.6C154.905 351.404 154.729 351.155 154.592 350.859C154.46 350.558 154.389 350.205 154.389 349.795C154.389 349.438 154.486 349.098 154.685 348.767C154.883 348.435 155.201 348.148 155.642 347.891C156.083 347.638 156.656 347.428 157.366 347.263C158.076 347.102 158.945 347.019 159.977 347.019V346.313C159.977 345.611 159.827 345.079 159.523 344.722C159.218 344.364 158.773 344.181 158.182 344.181C157.794 344.181 157.468 344.229 157.199 344.329C156.934 344.425 156.7 344.534 156.506 344.656C156.312 344.778 156.145 344.887 156.004 344.983C155.862 345.079 155.726 345.131 155.585 345.131C155.479 345.131 155.382 345.105 155.302 345.048C155.223 344.992 155.157 344.922 155.108 344.839L154.822 344.334C155.324 343.854 155.862 343.497 156.445 343.261C157.022 343.026 157.666 342.908 158.372 342.908C158.879 342.908 159.333 342.991 159.726 343.157C160.118 343.322 160.453 343.553 160.722 343.85C160.991 344.146 161.194 344.504 161.331 344.922C161.468 345.341 161.538 345.803 161.538 346.304V352.045H161.551ZM157.41 351.081C157.693 351.081 157.948 351.055 158.182 350.998C158.416 350.942 158.636 350.863 158.839 350.759C159.046 350.654 159.245 350.528 159.43 350.384C159.62 350.236 159.801 350.07 159.981 349.878V348.026C159.245 348.026 158.623 348.074 158.107 348.165C157.591 348.257 157.177 348.379 156.85 348.527C156.528 348.675 156.295 348.849 156.145 349.054C155.995 349.259 155.924 349.482 155.924 349.73C155.924 349.965 155.964 350.175 156.039 350.345C156.118 350.519 156.22 350.658 156.352 350.767C156.484 350.876 156.639 350.959 156.819 351.007C157 351.055 157.199 351.081 157.41 351.081Z" fill="#9E9E9E"/>
<path d="M166.645 343.069V352.711C166.645 353.073 166.596 353.409 166.499 353.718C166.402 354.028 166.252 354.298 166.045 354.529C165.838 354.76 165.573 354.943 165.247 355.074C164.92 355.209 164.532 355.274 164.078 355.274C163.88 355.274 163.703 355.261 163.54 355.231C163.377 355.2 163.218 355.157 163.055 355.096L163.126 354.246C163.139 354.167 163.165 354.119 163.205 354.097C163.249 354.076 163.311 354.067 163.403 354.067C163.452 354.067 163.5 354.067 163.558 354.067C163.615 354.067 163.677 354.067 163.756 354.067C164.224 354.067 164.554 353.958 164.753 353.744C164.951 353.531 165.048 353.182 165.048 352.703V343.069H166.645ZM167.002 340.249C167.002 340.402 166.971 340.545 166.909 340.681C166.848 340.811 166.764 340.933 166.658 341.034C166.552 341.138 166.433 341.217 166.296 341.278C166.16 341.339 166.014 341.365 165.855 341.365C165.701 341.365 165.555 341.334 165.419 341.278C165.282 341.217 165.163 341.138 165.062 341.034C164.956 340.929 164.876 340.811 164.815 340.681C164.753 340.545 164.726 340.406 164.726 340.249C164.726 340.092 164.757 339.948 164.815 339.809C164.876 339.669 164.956 339.547 165.062 339.447C165.167 339.342 165.286 339.264 165.419 339.203C165.551 339.142 165.697 339.116 165.855 339.116C166.01 339.116 166.155 339.146 166.296 339.203C166.433 339.26 166.557 339.342 166.658 339.447C166.759 339.552 166.848 339.674 166.909 339.809C166.971 339.953 167.002 340.096 167.002 340.249Z" fill="#9E9E9E"/>
<path d="M171.703 343.068V348.791C171.703 349.471 171.862 349.994 172.179 350.369C172.497 350.74 172.973 350.927 173.612 350.927C174.08 350.927 174.516 350.818 174.931 350.6C175.346 350.382 175.725 350.077 176.069 349.689V343.068H177.665V352.043H176.717C176.488 352.043 176.347 351.934 176.285 351.716L176.161 350.749C175.769 351.18 175.323 351.529 174.834 351.79C174.344 352.052 173.78 352.183 173.149 352.183C172.651 352.183 172.214 352.1 171.835 351.939C171.456 351.777 171.138 351.546 170.878 351.25C170.618 350.953 170.428 350.596 170.3 350.178C170.173 349.759 170.106 349.293 170.106 348.787V343.064H171.703V343.068Z" fill="#9E9E9E"/>
<path d="M192.333 347.902C192.395 348.059 192.457 348.216 192.518 348.377C192.58 348.212 192.642 348.055 192.708 347.902C192.774 347.75 192.849 347.597 192.933 347.444L197.281 339.638C197.361 339.502 197.44 339.42 197.524 339.389C197.607 339.359 197.727 339.345 197.881 339.345H199.164V352.043H197.638V342.711C197.638 342.589 197.643 342.453 197.647 342.314C197.652 342.17 197.66 342.026 197.674 341.878L193.272 349.82C193.122 350.086 192.915 350.217 192.646 350.217H192.395C192.126 350.217 191.919 350.086 191.769 349.82L187.266 341.852C187.284 342.004 187.297 342.157 187.306 342.305C187.314 342.453 187.319 342.589 187.319 342.711V352.043H185.793V339.345H187.076C187.231 339.345 187.35 339.359 187.434 339.389C187.517 339.42 187.597 339.502 187.676 339.638L192.113 347.453C192.201 347.597 192.271 347.745 192.333 347.902Z" fill="#9E9E9E"/>
<path d="M209.608 352.045H208.898C208.744 352.045 208.616 352.023 208.523 351.975C208.426 351.927 208.364 351.827 208.333 351.674L208.153 350.842C207.915 351.055 207.681 351.243 207.451 351.413C207.222 351.583 206.984 351.722 206.733 351.84C206.481 351.953 206.212 352.04 205.93 352.101C205.648 352.158 205.33 352.188 204.986 352.188C204.633 352.188 204.303 352.14 203.994 352.04C203.685 351.944 203.421 351.796 203.191 351.6C202.962 351.404 202.786 351.155 202.649 350.859C202.517 350.558 202.446 350.205 202.446 349.795C202.446 349.438 202.543 349.098 202.742 348.767C202.94 348.435 203.257 348.148 203.698 347.891C204.14 347.638 204.713 347.428 205.423 347.263C206.133 347.102 207.002 347.019 208.034 347.019V346.313C208.034 345.611 207.884 345.079 207.579 344.722C207.275 344.364 206.83 344.181 206.239 344.181C205.851 344.181 205.524 344.229 205.255 344.329C204.991 344.425 204.757 344.534 204.563 344.656C204.369 344.778 204.201 344.887 204.06 344.983C203.919 345.079 203.782 345.131 203.641 345.131C203.535 345.131 203.438 345.105 203.359 345.048C203.28 344.992 203.213 344.922 203.165 344.839L202.878 344.334C203.381 343.854 203.919 343.497 204.501 343.261C205.079 343.026 205.723 342.908 206.428 342.908C206.935 342.908 207.39 342.991 207.782 343.157C208.175 343.322 208.51 343.553 208.779 343.85C209.048 344.146 209.251 344.504 209.387 344.922C209.524 345.341 209.595 345.803 209.595 346.304V352.045H209.608ZM205.467 351.081C205.749 351.081 206.005 351.055 206.239 350.998C206.472 350.942 206.693 350.863 206.896 350.759C207.103 350.654 207.302 350.528 207.487 350.384C207.676 350.236 207.857 350.07 208.038 349.878V348.026C207.302 348.026 206.68 348.074 206.164 348.165C205.648 348.257 205.233 348.379 204.907 348.527C204.585 348.675 204.351 348.849 204.201 349.054C204.051 349.259 203.981 349.482 203.981 349.73C203.981 349.965 204.02 350.175 204.095 350.345C204.175 350.519 204.276 350.658 204.409 350.767C204.541 350.876 204.695 350.959 204.876 351.007C205.057 351.055 205.255 351.081 205.467 351.081Z" fill="#9E9E9E"/>
<path d="M218.123 344.546C218.053 344.677 217.943 344.742 217.793 344.742C217.704 344.742 217.603 344.712 217.488 344.647C217.374 344.581 217.237 344.507 217.069 344.429C216.906 344.35 216.708 344.276 216.483 344.206C216.253 344.137 215.984 344.106 215.676 344.106C215.407 344.106 215.164 344.141 214.948 344.206C214.732 344.276 214.551 344.368 214.397 344.485C214.242 344.603 214.128 344.742 214.048 344.899C213.969 345.056 213.929 345.226 213.929 345.409C213.929 345.64 213.996 345.832 214.132 345.985C214.269 346.137 214.445 346.272 214.666 346.386C214.886 346.499 215.138 346.599 215.42 346.682C215.702 346.769 215.989 346.861 216.284 346.957C216.58 347.053 216.866 347.162 217.149 347.279C217.431 347.397 217.682 347.545 217.903 347.724C218.123 347.903 218.3 348.116 218.436 348.373C218.573 348.631 218.639 348.94 218.639 349.298C218.639 349.712 218.564 350.095 218.414 350.444C218.264 350.797 218.044 351.098 217.753 351.355C217.462 351.612 217.1 351.813 216.677 351.961C216.253 352.109 215.764 352.183 215.208 352.183C214.573 352.183 214 352.083 213.488 351.878C212.977 351.673 212.54 351.412 212.179 351.093L212.553 350.492C212.602 350.413 212.659 350.357 212.725 350.313C212.792 350.274 212.88 350.252 212.986 350.252C213.091 350.252 213.206 350.291 213.325 350.374C213.444 350.457 213.59 350.549 213.762 350.649C213.934 350.749 214.137 350.841 214.379 350.923C214.622 351.006 214.926 351.045 215.288 351.045C215.596 351.045 215.87 351.006 216.104 350.928C216.337 350.849 216.531 350.74 216.686 350.605C216.84 350.47 216.955 350.313 217.03 350.134C217.105 349.956 217.14 349.768 217.14 349.568C217.14 349.319 217.074 349.114 216.937 348.953C216.805 348.792 216.624 348.652 216.403 348.535C216.183 348.421 215.932 348.321 215.645 348.234C215.363 348.147 215.072 348.06 214.776 347.964C214.481 347.868 214.19 347.763 213.907 347.641C213.625 347.519 213.369 347.367 213.149 347.183C212.928 347 212.752 346.774 212.615 346.503C212.483 346.233 212.412 345.906 212.412 345.523C212.412 345.178 212.483 344.851 212.628 344.533C212.774 344.219 212.981 343.94 213.255 343.701C213.528 343.461 213.868 343.269 214.269 343.13C214.67 342.99 215.125 342.916 215.64 342.916C216.236 342.916 216.774 343.008 217.25 343.195C217.726 343.382 218.137 343.635 218.485 343.962L218.123 344.546Z" fill="#9E9E9E"/>
<path d="M224.267 354.693C224.214 354.811 224.148 354.907 224.064 354.977C223.984 355.047 223.861 355.081 223.693 355.081H222.512L224.17 351.52L220.421 343.064H221.801C221.938 343.064 222.048 343.099 222.123 343.164C222.203 343.234 222.256 343.308 222.295 343.391L224.725 349.044C224.778 349.175 224.827 349.306 224.866 349.432C224.906 349.563 224.941 349.694 224.968 349.833C225.008 349.698 225.052 349.563 225.091 349.432C225.131 349.301 225.18 349.171 225.237 349.036L227.596 343.391C227.632 343.295 227.693 343.216 227.782 343.155C227.87 343.094 227.962 343.064 228.064 343.064H229.338L224.267 354.693Z" fill="#9E9E9E"/>
<path d="M238.352 352.045H237.642C237.488 352.045 237.36 352.023 237.268 351.975C237.171 351.927 237.109 351.827 237.078 351.674L236.897 350.842C236.659 351.055 236.425 351.243 236.196 351.413C235.967 351.583 235.728 351.722 235.477 351.84C235.226 351.953 234.957 352.04 234.675 352.101C234.392 352.158 234.075 352.188 233.731 352.188C233.378 352.188 233.047 352.14 232.738 352.04C232.43 351.944 232.165 351.796 231.936 351.6C231.707 351.404 231.53 351.155 231.393 350.859C231.261 350.558 231.191 350.205 231.191 349.795C231.191 349.438 231.288 349.098 231.486 348.767C231.684 348.435 232.002 348.148 232.443 347.891C232.884 347.638 233.457 347.428 234.167 347.263C234.877 347.102 235.746 347.019 236.778 347.019V346.313C236.778 345.611 236.628 345.079 236.324 344.722C236.02 344.364 235.574 344.181 234.983 344.181C234.595 344.181 234.269 344.229 234 344.329C233.735 344.425 233.501 344.534 233.307 344.656C233.113 344.778 232.946 344.887 232.805 344.983C232.664 345.079 232.527 345.131 232.386 345.131C232.28 345.131 232.183 345.105 232.103 345.048C232.024 344.992 231.958 344.922 231.909 344.839L231.623 344.334C232.125 343.854 232.664 343.497 233.246 343.261C233.823 343.026 234.467 342.908 235.173 342.908C235.68 342.908 236.134 342.991 236.527 343.157C236.919 343.322 237.254 343.553 237.523 343.85C237.792 344.146 237.995 344.504 238.132 344.922C238.269 345.341 238.339 345.803 238.339 346.304V352.045H238.352ZM234.211 351.081C234.494 351.081 234.749 351.055 234.983 350.998C235.217 350.942 235.437 350.863 235.64 350.759C235.848 350.654 236.046 350.528 236.231 350.384C236.421 350.236 236.602 350.07 236.783 349.878V348.026C236.046 348.026 235.424 348.074 234.908 348.165C234.392 348.257 233.978 348.379 233.651 348.527C233.329 348.675 233.096 348.849 232.946 349.054C232.796 349.259 232.725 349.482 232.725 349.73C232.725 349.965 232.765 350.175 232.84 350.345C232.919 350.519 233.021 350.658 233.153 350.767C233.285 350.876 233.44 350.959 233.62 351.007C233.801 351.055 234 351.081 234.211 351.081Z" fill="#9E9E9E"/>
<path d="M241.669 352.042V343.067H242.582C242.754 343.067 242.873 343.102 242.939 343.163C243.005 343.228 243.049 343.342 243.076 343.499L243.182 344.898C243.49 344.27 243.878 343.782 244.333 343.429C244.791 343.076 245.325 342.901 245.942 342.901C246.194 342.901 246.419 342.932 246.626 342.984C246.829 343.041 247.018 343.119 247.19 343.22L246.983 344.396C246.943 344.545 246.851 344.619 246.705 344.619C246.621 344.619 246.494 344.593 246.322 344.536C246.15 344.479 245.907 344.453 245.594 344.453C245.038 344.453 244.575 344.614 244.2 344.933C243.825 345.251 243.512 345.717 243.265 346.323V352.038H241.669V352.042Z" fill="#9E9E9E"/>
<path d="M256.12 352.045H255.41C255.256 352.045 255.128 352.023 255.035 351.975C254.938 351.927 254.876 351.827 254.846 351.674L254.665 350.842C254.427 351.055 254.193 351.243 253.964 351.413C253.734 351.583 253.496 351.722 253.245 351.84C252.993 351.953 252.724 352.04 252.442 352.101C252.16 352.158 251.842 352.188 251.498 352.188C251.146 352.188 250.815 352.14 250.506 352.04C250.197 351.944 249.933 351.796 249.703 351.6C249.474 351.404 249.298 351.155 249.161 350.859C249.029 350.558 248.958 350.205 248.958 349.795C248.958 349.438 249.055 349.098 249.254 348.767C249.452 348.435 249.77 348.148 250.211 347.891C250.652 347.638 251.225 347.428 251.935 347.263C252.645 347.102 253.514 347.019 254.546 347.019V346.313C254.546 345.611 254.396 345.079 254.091 344.722C253.787 344.364 253.342 344.181 252.751 344.181C252.363 344.181 252.036 344.229 251.767 344.329C251.503 344.425 251.269 344.534 251.075 344.656C250.881 344.778 250.713 344.887 250.572 344.983C250.431 345.079 250.294 345.131 250.153 345.131C250.047 345.131 249.95 345.105 249.871 345.048C249.792 344.992 249.725 344.922 249.677 344.839L249.39 344.334C249.893 343.854 250.431 343.497 251.013 343.261C251.591 343.026 252.235 342.908 252.94 342.908C253.448 342.908 253.902 342.991 254.294 343.157C254.687 343.322 255.022 343.553 255.291 343.85C255.56 344.146 255.763 344.504 255.9 344.922C256.036 345.341 256.107 345.803 256.107 346.304V352.045H256.12ZM251.979 351.081C252.261 351.081 252.517 351.055 252.751 350.998C252.985 350.942 253.205 350.863 253.408 350.759C253.615 350.654 253.814 350.528 253.999 350.384C254.188 350.236 254.369 350.07 254.55 349.878V348.026C253.814 348.026 253.192 348.074 252.676 348.165C252.16 348.257 251.745 348.379 251.419 348.527C251.097 348.675 250.863 348.849 250.713 349.054C250.563 349.259 250.493 349.482 250.493 349.73C250.493 349.965 250.533 350.175 250.607 350.345C250.687 350.519 250.788 350.658 250.921 350.767C251.053 350.876 251.207 350.959 251.388 351.007C251.569 351.055 251.772 351.081 251.979 351.081Z" fill="#9E9E9E"/>
<path d="M261.1 338.992V346.677H261.514C261.633 346.677 261.73 346.659 261.81 346.629C261.889 346.598 261.973 346.528 262.07 346.428L264.941 343.39C265.029 343.294 265.121 343.22 265.21 343.159C265.298 343.102 265.417 343.072 265.567 343.072H267.018L263.675 346.589C263.591 346.69 263.507 346.777 263.428 346.855C263.349 346.934 263.256 346.999 263.155 347.06C263.26 347.13 263.357 347.213 263.446 347.304C263.534 347.396 263.613 347.5 263.693 347.618L267.243 352.051H265.809C265.677 352.051 265.567 352.025 265.474 351.977C265.382 351.929 265.293 351.851 265.21 351.742L262.224 348.063C262.136 347.936 262.043 347.858 261.955 347.819C261.867 347.779 261.73 347.762 261.549 347.762H261.1V352.051H259.494V338.996H261.1V338.992Z" fill="#9E9E9E"/>
<path d="M276.403 352.045H275.693C275.538 352.045 275.41 352.023 275.318 351.975C275.221 351.927 275.159 351.827 275.128 351.674L274.947 350.842C274.709 351.055 274.475 351.243 274.246 351.413C274.017 351.583 273.779 351.722 273.527 351.84C273.276 351.953 273.007 352.04 272.725 352.101C272.442 352.158 272.125 352.188 271.781 352.188C271.428 352.188 271.097 352.14 270.789 352.04C270.48 351.944 270.215 351.796 269.986 351.6C269.757 351.404 269.58 351.155 269.444 350.859C269.311 350.558 269.241 350.205 269.241 349.795C269.241 349.438 269.338 349.098 269.536 348.767C269.735 348.435 270.052 348.148 270.493 347.891C270.934 347.638 271.507 347.428 272.218 347.263C272.928 347.102 273.796 347.019 274.828 347.019V346.313C274.828 345.611 274.678 345.079 274.374 344.722C274.07 344.364 273.624 344.181 273.033 344.181C272.645 344.181 272.319 344.229 272.05 344.329C271.785 344.425 271.552 344.534 271.358 344.656C271.164 344.778 270.996 344.887 270.855 344.983C270.714 345.079 270.577 345.131 270.436 345.131C270.33 345.131 270.233 345.105 270.154 345.048C270.074 344.992 270.008 344.922 269.96 344.839L269.673 344.334C270.176 343.854 270.714 343.497 271.296 343.261C271.874 343.026 272.517 342.908 273.223 342.908C273.73 342.908 274.184 342.991 274.577 343.157C274.969 343.322 275.305 343.553 275.574 343.85C275.843 344.146 276.045 344.504 276.182 344.922C276.319 345.341 276.389 345.803 276.389 346.304V352.045H276.403ZM272.262 351.081C272.544 351.081 272.8 351.055 273.033 350.998C273.267 350.942 273.488 350.863 273.69 350.759C273.898 350.654 274.096 350.528 274.281 350.384C274.471 350.236 274.652 350.07 274.833 349.878V348.026C274.096 348.026 273.474 348.074 272.958 348.165C272.442 348.257 272.028 348.379 271.702 348.527C271.38 348.675 271.146 348.849 270.996 349.054C270.846 349.259 270.775 349.482 270.775 349.73C270.775 349.965 270.815 350.175 270.89 350.345C270.969 350.519 271.071 350.658 271.203 350.767C271.336 350.876 271.49 350.959 271.671 351.007C271.851 351.055 272.05 351.081 272.262 351.081Z" fill="#9E9E9E"/>
<path d="M282.471 352.187C281.752 352.187 281.201 351.991 280.817 351.594C280.433 351.198 280.239 350.627 280.239 349.886V344.393H279.146C279.049 344.393 278.969 344.367 278.903 344.311C278.837 344.254 278.806 344.167 278.806 344.049V343.421L280.297 343.234L280.663 340.462C280.676 340.374 280.711 340.3 280.777 340.244C280.843 340.187 280.927 340.161 281.029 340.161H281.836V343.256H284.438V344.398H281.836V349.785C281.836 350.165 281.928 350.444 282.114 350.627C282.299 350.81 282.537 350.901 282.832 350.901C283 350.901 283.146 350.88 283.269 350.836C283.392 350.792 283.498 350.744 283.587 350.688C283.675 350.631 283.754 350.588 283.816 350.544C283.878 350.5 283.935 350.479 283.983 350.479C284.067 350.479 284.142 350.531 284.208 350.631L284.676 351.385C284.402 351.638 284.067 351.839 283.679 351.982C283.282 352.113 282.885 352.187 282.471 352.187Z" fill="#9E9E9E"/>
<path d="M293.822 347.296V352.047H292.093V339.349H295.886C296.697 339.349 297.407 339.441 298.007 339.628C298.607 339.816 299.105 340.077 299.498 340.422C299.89 340.766 300.186 341.176 300.38 341.664C300.574 342.152 300.671 342.688 300.671 343.286C300.671 343.878 300.565 344.419 300.358 344.907C300.15 345.4 299.842 345.818 299.44 346.176C299.039 346.529 298.536 346.808 297.937 347.004C297.337 347.2 296.653 347.3 295.882 347.3H293.822V347.296ZM293.822 345.927H295.886C296.38 345.927 296.821 345.862 297.2 345.731C297.579 345.6 297.897 345.421 298.157 345.186C298.413 344.951 298.607 344.672 298.739 344.349C298.872 344.022 298.938 343.665 298.938 343.277C298.938 342.466 298.686 341.834 298.179 341.381C297.672 340.927 296.909 340.696 295.89 340.696H293.826V345.927H293.822Z" fill="#9E9E9E"/>
<path d="M306.841 342.924C307.383 342.924 307.886 343.016 308.349 343.194C308.808 343.373 309.205 343.635 309.54 343.975C309.875 344.315 310.135 344.733 310.325 345.234C310.515 345.736 310.607 346.302 310.607 346.939C310.607 347.187 310.581 347.353 310.528 347.436C310.475 347.518 310.373 347.558 310.223 347.558H304.182C304.195 348.124 304.27 348.617 304.415 349.04C304.561 349.458 304.755 349.811 305.006 350.09C305.258 350.369 305.558 350.583 305.902 350.718C306.246 350.853 306.638 350.927 307.066 350.927C307.467 350.927 307.811 350.884 308.102 350.788C308.393 350.696 308.64 350.596 308.852 350.491C309.059 350.387 309.236 350.286 309.377 350.195C309.518 350.103 309.637 350.06 309.738 350.06C309.871 350.06 309.972 350.112 310.043 350.212L310.492 350.788C310.294 351.023 310.06 351.228 309.782 351.402C309.509 351.577 309.214 351.72 308.9 351.834C308.587 351.947 308.261 352.03 307.926 352.087C307.591 352.143 307.26 352.169 306.929 352.169C306.303 352.169 305.725 352.065 305.196 351.856C304.667 351.646 304.208 351.337 303.824 350.936C303.441 350.53 303.137 350.029 302.925 349.432C302.713 348.835 302.603 348.15 302.603 347.375C302.603 346.747 302.7 346.163 302.894 345.618C303.088 345.073 303.366 344.602 303.732 344.206C304.098 343.809 304.543 343.495 305.068 343.268C305.589 343.037 306.184 342.924 306.841 342.924ZM306.876 344.088C306.104 344.088 305.5 344.31 305.055 344.746C304.614 345.186 304.336 345.797 304.23 346.577H309.169C309.169 346.211 309.117 345.875 309.015 345.57C308.914 345.265 308.764 345.003 308.565 344.781C308.367 344.559 308.129 344.389 307.842 344.267C307.564 344.149 307.242 344.088 306.876 344.088Z" fill="#9E9E9E"/>
<path d="M313.535 352.042V343.067H314.448C314.62 343.067 314.739 343.102 314.805 343.163C314.871 343.228 314.915 343.342 314.942 343.499L315.048 344.898C315.356 344.27 315.744 343.782 316.199 343.429C316.657 343.076 317.191 342.901 317.808 342.901C318.06 342.901 318.285 342.932 318.492 342.984C318.695 343.041 318.884 343.119 319.056 343.22L318.849 344.396C318.809 344.545 318.717 344.619 318.571 344.619C318.487 344.619 318.36 344.593 318.188 344.536C318.016 344.479 317.773 344.453 317.46 344.453C316.904 344.453 316.441 344.614 316.066 344.933C315.691 345.251 315.378 345.717 315.131 346.323V352.038H313.535V352.042Z" fill="#9E9E9E"/>
<path d="M323.793 340.249C323.793 340.402 323.762 340.545 323.7 340.681C323.639 340.811 323.555 340.933 323.449 341.034C323.343 341.138 323.224 341.217 323.087 341.278C322.951 341.339 322.805 341.365 322.646 341.365C322.492 341.365 322.347 341.334 322.21 341.278C322.073 341.217 321.954 341.138 321.853 341.034C321.747 340.929 321.667 340.811 321.606 340.681C321.544 340.545 321.517 340.406 321.517 340.249C321.517 340.092 321.548 339.948 321.606 339.809C321.667 339.669 321.747 339.547 321.853 339.447C321.958 339.342 322.078 339.264 322.21 339.203C322.342 339.142 322.488 339.116 322.646 339.116C322.801 339.116 322.946 339.146 323.087 339.203C323.224 339.26 323.348 339.342 323.449 339.447C323.55 339.552 323.639 339.674 323.7 339.809C323.762 339.953 323.793 340.096 323.793 340.249ZM323.436 343.069V352.044H321.839V343.069H323.436Z" fill="#9E9E9E"/>
<path d="M328.807 338.992V346.677H329.222C329.341 346.677 329.438 346.659 329.517 346.629C329.596 346.598 329.68 346.528 329.777 346.428L332.648 343.39C332.736 343.294 332.829 343.22 332.917 343.159C333.005 343.102 333.124 343.072 333.274 343.072H334.725L331.383 346.589C331.299 346.69 331.215 346.777 331.136 346.855C331.056 346.934 330.964 346.999 330.862 347.06C330.968 347.13 331.065 347.213 331.153 347.304C331.241 347.396 331.321 347.5 331.4 347.618L334.95 352.051H333.517C333.385 352.051 333.274 352.025 333.182 351.977C333.089 351.929 333.001 351.851 332.917 351.742L329.932 348.063C329.843 347.936 329.751 347.858 329.663 347.819C329.574 347.779 329.438 347.762 329.257 347.762H328.807V352.051H327.202V338.996H328.807V338.992Z" fill="#9E9E9E"/>
<path d="M344.11 352.045H343.4C343.246 352.045 343.118 352.023 343.025 351.975C342.928 351.927 342.866 351.827 342.836 351.674L342.655 350.842C342.417 351.055 342.183 351.243 341.954 351.413C341.724 351.583 341.486 351.722 341.235 351.84C340.983 351.953 340.714 352.04 340.432 352.101C340.15 352.158 339.832 352.188 339.488 352.188C339.136 352.188 338.805 352.14 338.496 352.04C338.187 351.944 337.923 351.796 337.693 351.6C337.464 351.404 337.288 351.155 337.151 350.859C337.019 350.558 336.948 350.205 336.948 349.795C336.948 349.438 337.045 349.098 337.244 348.767C337.442 348.435 337.76 348.148 338.201 347.891C338.642 347.638 339.215 347.428 339.925 347.263C340.635 347.102 341.504 347.019 342.536 347.019V346.313C342.536 345.611 342.386 345.079 342.081 344.722C341.777 344.364 341.332 344.181 340.741 344.181C340.353 344.181 340.026 344.229 339.757 344.329C339.493 344.425 339.259 344.534 339.065 344.656C338.871 344.778 338.703 344.887 338.562 344.983C338.421 345.079 338.284 345.131 338.143 345.131C338.037 345.131 337.94 345.105 337.861 345.048C337.782 344.992 337.715 344.922 337.667 344.839L337.38 344.334C337.883 343.854 338.421 343.497 339.003 343.261C339.581 343.026 340.225 342.908 340.93 342.908C341.438 342.908 341.892 342.991 342.284 343.157C342.677 343.322 343.012 343.553 343.281 343.85C343.55 344.146 343.753 344.504 343.89 344.922C344.026 345.341 344.097 345.803 344.097 346.304V352.045H344.11ZM339.969 351.081C340.251 351.081 340.507 351.055 340.741 350.998C340.975 350.942 341.195 350.863 341.398 350.759C341.605 350.654 341.804 350.528 341.989 350.384C342.178 350.236 342.359 350.07 342.54 349.878V348.026C341.804 348.026 341.182 348.074 340.666 348.165C340.15 348.257 339.735 348.379 339.409 348.527C339.087 348.675 338.853 348.849 338.703 349.054C338.553 349.259 338.483 349.482 338.483 349.73C338.483 349.965 338.523 350.175 338.597 350.345C338.677 350.519 338.778 350.658 338.911 350.767C339.043 350.876 339.197 350.959 339.378 351.007C339.559 351.055 339.757 351.081 339.969 351.081Z" fill="#9E9E9E"/>
<path d="M347.426 352.043V343.068H348.374C348.604 343.068 348.745 343.177 348.806 343.395L348.93 344.371C349.322 343.94 349.763 343.591 350.253 343.325C350.738 343.059 351.302 342.924 351.942 342.924C352.436 342.924 352.877 343.007 353.256 343.168C353.635 343.329 353.953 343.56 354.209 343.857C354.464 344.153 354.654 344.515 354.786 344.934C354.919 345.352 354.985 345.818 354.985 346.324V352.039H353.388V346.324C353.388 345.644 353.23 345.117 352.917 344.742C352.603 344.367 352.123 344.179 351.479 344.179C351.007 344.179 350.566 344.293 350.156 344.515C349.746 344.742 349.366 345.043 349.022 345.426V352.039H347.426V352.043Z" fill="#9E9E9E"/>
<path d="M364.965 352.045H364.255C364.101 352.045 363.973 352.023 363.88 351.975C363.783 351.927 363.721 351.827 363.691 351.674L363.51 350.842C363.272 351.055 363.038 351.243 362.809 351.413C362.579 351.583 362.341 351.722 362.09 351.84C361.838 351.953 361.569 352.04 361.287 352.101C361.005 352.158 360.687 352.188 360.343 352.188C359.991 352.188 359.66 352.14 359.351 352.04C359.042 351.944 358.778 351.796 358.548 351.6C358.319 351.404 358.143 351.155 358.006 350.859C357.874 350.558 357.803 350.205 357.803 349.795C357.803 349.438 357.9 349.098 358.099 348.767C358.297 348.435 358.615 348.148 359.056 347.891C359.497 347.638 360.07 347.428 360.78 347.263C361.49 347.102 362.359 347.019 363.391 347.019V346.313C363.391 345.611 363.241 345.079 362.936 344.722C362.632 344.364 362.187 344.181 361.596 344.181C361.208 344.181 360.881 344.229 360.612 344.329C360.348 344.425 360.114 344.534 359.92 344.656C359.726 344.778 359.558 344.887 359.417 344.983C359.276 345.079 359.139 345.131 358.998 345.131C358.892 345.131 358.795 345.105 358.716 345.048C358.637 344.992 358.571 344.922 358.522 344.839L358.235 344.334C358.738 343.854 359.276 343.497 359.858 343.261C360.436 343.026 361.08 342.908 361.785 342.908C362.293 342.908 362.747 342.991 363.139 343.157C363.532 343.322 363.867 343.553 364.136 343.85C364.405 344.146 364.608 344.504 364.745 344.922C364.881 345.341 364.952 345.803 364.952 346.304V352.045H364.965ZM360.82 351.081C361.102 351.081 361.358 351.055 361.591 350.998C361.825 350.942 362.046 350.863 362.248 350.759C362.456 350.654 362.654 350.528 362.839 350.384C363.029 350.236 363.21 350.07 363.391 349.878V348.026C362.654 348.026 362.032 348.074 361.516 348.165C361 348.257 360.586 348.379 360.26 348.527C359.938 348.675 359.704 348.849 359.554 349.054C359.404 349.259 359.333 349.482 359.333 349.73C359.333 349.965 359.373 350.175 359.448 350.345C359.527 350.519 359.629 350.658 359.761 350.767C359.894 350.876 360.048 350.959 360.229 351.007C360.41 351.055 360.612 351.081 360.82 351.081Z" fill="#9E9E9E"/>
<path d="M368.281 352.043V343.068H369.23C369.459 343.068 369.6 343.177 369.662 343.395L369.785 344.371C370.178 343.94 370.619 343.591 371.108 343.325C371.593 343.059 372.158 342.924 372.797 342.924C373.291 342.924 373.732 343.007 374.111 343.168C374.491 343.329 374.808 343.56 375.064 343.857C375.32 344.153 375.509 344.515 375.642 344.934C375.774 345.352 375.84 345.818 375.84 346.324V352.039H374.244V346.324C374.244 345.644 374.085 345.117 373.772 344.742C373.459 344.367 372.978 344.179 372.334 344.179C371.862 344.179 371.421 344.293 371.011 344.515C370.601 344.742 370.222 345.043 369.878 345.426V352.039H368.281V352.043Z" fill="#9E9E9E"/>
<path d="M390.336 341.328C390.283 341.415 390.226 341.485 390.164 341.529C390.103 341.572 390.028 341.594 389.931 341.594C389.829 341.594 389.71 341.546 389.578 341.446C389.445 341.346 389.273 341.232 389.066 341.115C388.859 340.993 388.612 340.884 388.321 340.783C388.03 340.683 387.681 340.631 387.267 340.631C386.879 340.631 386.535 340.683 386.235 340.788C385.935 340.892 385.688 341.032 385.485 341.206C385.287 341.385 385.132 341.59 385.031 341.83C384.93 342.069 384.877 342.327 384.877 342.605C384.877 342.959 384.965 343.255 385.141 343.486C385.318 343.721 385.551 343.918 385.842 344.083C386.133 344.249 386.46 344.393 386.83 344.515C387.196 344.637 387.576 344.763 387.959 344.89C388.343 345.016 388.722 345.164 389.088 345.33C389.454 345.491 389.785 345.696 390.076 345.944C390.367 346.193 390.601 346.498 390.777 346.855C390.954 347.217 391.042 347.658 391.042 348.185C391.042 348.739 390.945 349.262 390.755 349.75C390.566 350.238 390.283 350.661 389.917 351.023C389.551 351.384 389.097 351.668 388.563 351.873C388.03 352.078 387.421 352.182 386.738 352.182C385.909 352.182 385.15 352.034 384.466 351.733C383.783 351.437 383.196 351.031 382.716 350.521L383.218 349.706C383.267 349.641 383.324 349.589 383.395 349.541C383.465 349.493 383.54 349.475 383.624 349.475C383.748 349.475 383.893 349.541 384.056 349.676C384.22 349.807 384.418 349.955 384.661 350.116C384.903 350.277 385.194 350.421 385.538 350.556C385.882 350.687 386.301 350.757 386.799 350.757C387.214 350.757 387.58 350.7 387.902 350.587C388.224 350.473 388.497 350.317 388.722 350.112C388.947 349.907 389.119 349.663 389.238 349.379C389.357 349.096 389.419 348.778 389.419 348.429C389.419 348.045 389.331 347.732 389.154 347.483C388.978 347.239 388.744 347.034 388.458 346.869C388.171 346.703 387.845 346.563 387.474 346.446C387.108 346.332 386.729 346.21 386.345 346.093C385.961 345.971 385.582 345.831 385.216 345.674C384.85 345.513 384.519 345.308 384.233 345.055C383.946 344.802 383.712 344.484 383.536 344.101C383.36 343.721 383.271 343.251 383.271 342.688C383.271 342.239 383.36 341.803 383.536 341.385C383.712 340.967 383.968 340.592 384.303 340.269C384.638 339.942 385.053 339.685 385.547 339.489C386.041 339.293 386.605 339.197 387.245 339.197C387.964 339.197 388.616 339.31 389.207 339.532C389.798 339.755 390.314 340.082 390.76 340.509L390.336 341.328Z" fill="#9E9E9E"/>
<path d="M397.498 342.924C398.041 342.924 398.544 343.016 399.007 343.194C399.465 343.373 399.862 343.635 400.197 343.975C400.532 344.315 400.793 344.733 400.982 345.234C401.172 345.736 401.265 346.302 401.265 346.939C401.265 347.187 401.238 347.353 401.185 347.436C401.132 347.518 401.031 347.558 400.881 347.558H394.839C394.852 348.124 394.927 348.617 395.073 349.04C395.218 349.458 395.412 349.811 395.664 350.09C395.915 350.369 396.215 350.583 396.559 350.718C396.903 350.853 397.295 350.927 397.723 350.927C398.125 350.927 398.469 350.884 398.76 350.788C399.051 350.696 399.298 350.596 399.509 350.491C399.717 350.387 399.893 350.286 400.034 350.195C400.175 350.103 400.294 350.06 400.396 350.06C400.528 350.06 400.629 350.112 400.7 350.212L401.15 350.788C400.951 351.023 400.718 351.228 400.44 351.402C400.166 351.577 399.871 351.72 399.558 351.834C399.245 351.947 398.918 352.03 398.583 352.087C398.248 352.143 397.917 352.169 397.587 352.169C396.96 352.169 396.383 352.065 395.853 351.856C395.324 351.646 394.866 351.337 394.482 350.936C394.098 350.53 393.794 350.029 393.582 349.432C393.371 348.835 393.26 348.15 393.26 347.375C393.26 346.747 393.357 346.163 393.551 345.618C393.745 345.073 394.023 344.602 394.389 344.206C394.755 343.809 395.201 343.495 395.725 343.268C396.25 343.037 396.841 342.924 397.498 342.924ZM397.538 344.088C396.766 344.088 396.162 344.31 395.717 344.746C395.276 345.186 394.998 345.797 394.892 346.577H399.831C399.831 346.211 399.778 345.875 399.677 345.57C399.575 345.265 399.426 345.003 399.227 344.781C399.029 344.559 398.79 344.389 398.504 344.267C398.226 344.149 397.9 344.088 397.538 344.088Z" fill="#9E9E9E"/>
<path d="M405.974 343.069V352.711C405.974 353.073 405.926 353.409 405.829 353.718C405.732 354.028 405.582 354.298 405.374 354.529C405.167 354.76 404.903 354.943 404.576 355.074C404.25 355.209 403.862 355.274 403.408 355.274C403.209 355.274 403.033 355.261 402.87 355.231C402.706 355.2 402.548 355.157 402.384 355.096L402.455 354.246C402.468 354.167 402.495 354.119 402.534 354.097C402.579 354.076 402.64 354.067 402.733 354.067C402.781 354.067 402.83 354.067 402.887 354.067C402.945 354.067 403.006 354.067 403.086 354.067C403.553 354.067 403.884 353.958 404.082 353.744C404.281 353.531 404.378 353.182 404.378 352.703V343.069H405.974ZM406.331 340.249C406.331 340.402 406.301 340.545 406.239 340.681C406.177 340.811 406.093 340.933 405.987 341.034C405.882 341.138 405.763 341.217 405.626 341.278C405.489 341.339 405.344 341.365 405.185 341.365C405.031 341.365 404.885 341.334 404.748 341.278C404.612 341.217 404.492 341.138 404.391 341.034C404.285 340.929 404.206 340.811 404.144 340.681C404.082 340.545 404.056 340.406 404.056 340.249C404.056 340.092 404.087 339.948 404.144 339.809C404.206 339.669 404.285 339.547 404.391 339.447C404.497 339.342 404.616 339.264 404.748 339.203C404.881 339.142 405.026 339.116 405.185 339.116C405.339 339.116 405.485 339.146 405.626 339.203C405.763 339.26 405.886 339.342 405.987 339.447C406.089 339.552 406.177 339.674 406.239 339.809C406.301 339.953 406.331 340.096 406.331 340.249Z" fill="#9E9E9E"/>
<path d="M416.32 352.045H415.61C415.455 352.045 415.328 352.023 415.235 351.975C415.138 351.927 415.076 351.827 415.045 351.674L414.864 350.842C414.626 351.055 414.393 351.243 414.163 351.413C413.934 351.583 413.696 351.722 413.444 351.84C413.193 351.953 412.924 352.04 412.642 352.101C412.36 352.158 412.042 352.188 411.698 352.188C411.345 352.188 411.014 352.14 410.706 352.04C410.397 351.944 410.132 351.796 409.903 351.6C409.674 351.404 409.497 351.155 409.361 350.859C409.228 350.558 409.158 350.205 409.158 349.795C409.158 349.438 409.255 349.098 409.453 348.767C409.652 348.435 409.969 348.148 410.41 347.891C410.851 347.638 411.425 347.428 412.135 347.263C412.845 347.102 413.713 347.019 414.745 347.019V346.313C414.745 345.611 414.595 345.079 414.291 344.722C413.987 344.364 413.541 344.181 412.95 344.181C412.562 344.181 412.236 344.229 411.967 344.329C411.702 344.425 411.469 344.534 411.275 344.656C411.081 344.778 410.913 344.887 410.772 344.983C410.631 345.079 410.494 345.131 410.353 345.131C410.247 345.131 410.15 345.105 410.071 345.048C409.991 344.992 409.925 344.922 409.877 344.839L409.59 344.334C410.093 343.854 410.631 343.497 411.213 343.261C411.791 343.026 412.435 342.908 413.14 342.908C413.647 342.908 414.102 342.991 414.494 343.157C414.887 343.322 415.222 343.553 415.491 343.85C415.76 344.146 415.963 344.504 416.099 344.922C416.236 345.341 416.307 345.803 416.307 346.304V352.045H416.32ZM412.174 351.081C412.457 351.081 412.712 351.055 412.946 350.998C413.18 350.942 413.4 350.863 413.603 350.759C413.81 350.654 414.009 350.528 414.194 350.384C414.384 350.236 414.565 350.07 414.745 349.878V348.026C414.009 348.026 413.387 348.074 412.871 348.165C412.355 348.257 411.941 348.379 411.614 348.527C411.292 348.675 411.059 348.849 410.909 349.054C410.759 349.259 410.688 349.482 410.688 349.73C410.688 349.965 410.728 350.175 410.803 350.345C410.882 350.519 410.984 350.658 411.116 350.767C411.248 350.876 411.403 350.959 411.583 351.007C411.764 351.055 411.967 351.081 412.174 351.081Z" fill="#9E9E9E"/>
<path d="M419.636 352.043V338.988H421.233V344.271C421.621 343.865 422.053 343.539 422.525 343.29C422.997 343.046 423.539 342.924 424.157 342.924C424.65 342.924 425.091 343.007 425.471 343.168C425.85 343.329 426.168 343.56 426.423 343.857C426.679 344.153 426.869 344.515 427.001 344.933C427.133 345.352 427.199 345.818 427.199 346.324V352.039H425.603V346.324C425.603 345.644 425.444 345.117 425.131 344.742C424.818 344.367 424.337 344.179 423.693 344.179C423.222 344.179 422.781 344.293 422.37 344.515C421.96 344.742 421.581 345.042 421.237 345.426V352.039H419.636V352.043Z" fill="#9E9E9E"/>
<path d="M433.255 352.187C432.536 352.187 431.985 351.991 431.601 351.594C431.217 351.198 431.023 350.627 431.023 349.886V344.393H429.929C429.832 344.393 429.753 344.367 429.687 344.311C429.621 344.254 429.59 344.167 429.59 344.049V343.421L431.08 343.234L431.446 340.462C431.46 340.374 431.495 340.3 431.561 340.244C431.627 340.187 431.711 340.161 431.813 340.161H432.62V343.256H435.221V344.398H432.62V349.785C432.62 350.165 432.712 350.444 432.897 350.627C433.083 350.81 433.321 350.901 433.616 350.901C433.784 350.901 433.929 350.88 434.053 350.836C434.176 350.792 434.282 350.744 434.37 350.688C434.459 350.631 434.538 350.588 434.6 350.544C434.661 350.5 434.719 350.479 434.767 350.479C434.851 350.479 434.926 350.531 434.992 350.631L435.46 351.385C435.186 351.638 434.851 351.839 434.463 351.982C434.066 352.113 433.669 352.187 433.255 352.187Z" fill="#9E9E9E"/>
<path d="M441.683 342.924C442.225 342.924 442.728 343.016 443.191 343.194C443.65 343.373 444.046 343.635 444.382 343.975C444.717 344.315 444.977 344.733 445.167 345.234C445.356 345.736 445.449 346.302 445.449 346.939C445.449 347.187 445.422 347.353 445.369 347.436C445.317 347.518 445.215 347.558 445.065 347.558H439.023C439.037 348.124 439.112 348.617 439.257 349.04C439.403 349.458 439.597 349.811 439.848 350.09C440.099 350.369 440.399 350.583 440.743 350.718C441.087 350.853 441.48 350.927 441.908 350.927C442.309 350.927 442.653 350.884 442.944 350.788C443.235 350.696 443.482 350.596 443.694 350.491C443.901 350.387 444.077 350.286 444.218 350.195C444.36 350.103 444.479 350.06 444.58 350.06C444.712 350.06 444.814 350.112 444.884 350.212L445.334 350.788C445.136 351.023 444.902 351.228 444.624 351.402C444.351 351.577 444.055 351.72 443.742 351.834C443.429 351.947 443.103 352.03 442.768 352.087C442.432 352.143 442.102 352.169 441.771 352.169C441.145 352.169 440.567 352.065 440.038 351.856C439.508 351.646 439.05 351.337 438.666 350.936C438.282 350.53 437.978 350.029 437.767 349.432C437.555 348.835 437.445 348.15 437.445 347.375C437.445 346.747 437.542 346.163 437.736 345.618C437.93 345.073 438.208 344.602 438.574 344.206C438.94 343.809 439.385 343.495 439.91 343.268C440.435 343.037 441.026 342.924 441.683 342.924ZM441.718 344.088C440.946 344.088 440.342 344.31 439.897 344.746C439.456 345.186 439.178 345.797 439.072 346.577H444.011C444.011 346.211 443.958 345.875 443.857 345.57C443.755 345.265 443.605 345.003 443.407 344.781C443.209 344.559 442.97 344.389 442.684 344.267C442.406 344.149 442.084 344.088 441.718 344.088Z" fill="#9E9E9E"/>
<path d="M448.381 352.042V343.067H449.294C449.466 343.067 449.585 343.102 449.651 343.163C449.717 343.228 449.761 343.342 449.788 343.499L449.894 344.898C450.202 344.27 450.59 343.782 451.045 343.429C451.503 343.076 452.037 342.901 452.654 342.901C452.906 342.901 453.131 342.932 453.338 342.984C453.541 343.041 453.73 343.119 453.902 343.22L453.695 344.396C453.655 344.545 453.563 344.619 453.417 344.619C453.333 344.619 453.206 344.593 453.034 344.536C452.862 344.479 452.619 344.453 452.306 344.453C451.75 344.453 451.287 344.614 450.912 344.933C450.538 345.251 450.224 345.717 449.977 346.323V352.038H448.381V352.042Z" fill="#9E9E9E"/>
<path d="M462.833 352.045H462.123C461.969 352.045 461.841 352.023 461.748 351.975C461.651 351.927 461.589 351.827 461.558 351.674L461.378 350.842C461.139 351.055 460.906 351.243 460.676 351.413C460.447 351.583 460.209 351.722 459.958 351.84C459.706 351.953 459.437 352.04 459.155 352.101C458.873 352.158 458.555 352.188 458.211 352.188C457.858 352.188 457.528 352.14 457.219 352.04C456.91 351.944 456.646 351.796 456.416 351.6C456.187 351.404 456.011 351.155 455.874 350.859C455.742 350.558 455.671 350.205 455.671 349.795C455.671 349.438 455.768 349.098 455.966 348.767C456.165 348.435 456.482 348.148 456.923 347.891C457.364 347.638 457.938 347.428 458.648 347.263C459.358 347.102 460.227 347.019 461.259 347.019V346.313C461.259 345.611 461.109 345.079 460.804 344.722C460.5 344.364 460.055 344.181 459.464 344.181C459.076 344.181 458.749 344.229 458.48 344.329C458.216 344.425 457.982 344.534 457.788 344.656C457.594 344.778 457.426 344.887 457.285 344.983C457.144 345.079 457.007 345.131 456.866 345.131C456.76 345.131 456.663 345.105 456.584 345.048C456.505 344.992 456.438 344.922 456.39 344.839L456.103 344.334C456.606 343.854 457.144 343.497 457.726 343.261C458.304 343.026 458.948 342.908 459.653 342.908C460.16 342.908 460.615 342.991 461.007 343.157C461.4 343.322 461.735 343.553 462.004 343.85C462.273 344.146 462.476 344.504 462.612 344.922C462.749 345.341 462.82 345.803 462.82 346.304V352.045H462.833ZM458.692 351.081C458.974 351.081 459.23 351.055 459.464 350.998C459.697 350.942 459.918 350.863 460.121 350.759C460.328 350.654 460.526 350.528 460.712 350.384C460.901 350.236 461.082 350.07 461.263 349.878V348.026C460.526 348.026 459.905 348.074 459.389 348.165C458.873 348.257 458.458 348.379 458.132 348.527C457.81 348.675 457.576 348.849 457.426 349.054C457.276 349.259 457.206 349.482 457.206 349.73C457.206 349.965 457.245 350.175 457.32 350.345C457.4 350.519 457.501 350.658 457.633 350.767C457.766 350.876 457.92 350.959 458.101 351.007C458.282 351.055 458.48 351.081 458.692 351.081Z" fill="#9E9E9E"/>
<path d="M274.492 130.922C277.948 134.025 289.826 146.387 277.69 160.787C277.914 160.394 283.555 150.402 276.533 145.884C268.484 140.699 279.17 140.53 270.55 135.579C266.607 133.317 261.81 131.679 256.685 130.966C256.68 130.966 251.178 130.214 246.704 134.079C250.816 130.135 258.508 122.892 274.492 130.922Z" fill="url(#paint1_linear_150_125)"/>
<path d="M224.775 124.75C227.015 122.818 229.676 121.034 232.78 119.714C255.667 110.027 269.65 125.971 269.65 125.971C260.25 121.084 255.781 119.505 244.559 122.07C247.002 121.572 259.068 119.834 273.618 130.179C273.618 130.179 273.951 130.433 274.492 130.917C259.625 124.915 250.82 130.135 246.704 134.084C245.735 134.916 244.817 135.967 244.017 137.287C243.923 137.437 243.873 137.521 243.873 137.521C243.873 137.521 233.068 135.873 226.21 146.537C226.29 146.198 228.966 135.31 240.358 128.282C231.221 132.799 226.94 137.765 223.663 143.18C220.808 147.907 220.132 154.815 224.015 158.71C218.935 153.61 212.033 139.653 223.727 125.642C224.065 125.338 224.413 125.039 224.775 124.75Z" fill="url(#paint2_linear_150_125)"/>
<path d="M285.903 199.474C286.643 203.728 275.222 206.716 271.532 206.716C271.532 206.716 277.635 210.691 284.95 205.869C284.88 206.054 282.536 211.941 272.913 212.305C269.213 212.444 265.936 211.682 262.956 210.796C262.748 210.741 255.438 208.933 246.684 216.27C246.783 216.1 250.115 210.666 258.045 209.276C256.849 208.933 255.692 208.654 254.569 208.509C247.349 209.794 240.993 214.855 240.993 214.855C229.16 224.603 218.796 212.798 218.796 212.798C227.62 217.664 232.035 218.89 239.503 213.206C243.277 210.337 251.083 206.94 255.011 205.531C252.906 204.943 249.226 204.415 246.038 206.507C241.241 209.655 241.981 199.539 243.391 197.751C243.391 197.751 240.511 199.404 240.303 203.663C240.814 208.191 237.433 209.451 234.736 210.397C232.03 211.349 230.679 213.874 230.679 213.874C230.679 213.874 230.833 211.543 230.426 208.494C230.024 205.446 235.615 204.699 237.15 204.42C237.86 204.291 238.242 204.066 238.456 203.867C233.718 201.073 221.105 192.595 214.372 178.181C206.198 160.683 211.308 149.565 211.308 149.565C211.308 149.565 211.432 176.851 231.449 187.017C231.449 187.017 219.914 178.893 215.355 161.853C213.394 154.526 210.379 137.506 223.732 125.637C212.038 139.648 219.884 153.276 224.02 158.705C224.606 159.587 225.296 160.414 226.091 161.151C226.106 161.166 226.116 161.176 226.116 161.176C227.049 162.047 228.122 162.799 229.343 163.402C236.837 167.123 247.424 169.275 258.269 175.013C258.323 174.913 258.552 174.345 257.613 173.299C256.571 172.139 252.588 168.134 254.758 165.962C256.928 163.791 258.224 161.848 258.224 161.848C258.224 161.848 257.762 164.677 259.331 167.083C260.891 169.479 262.793 172.527 259.694 175.785C262.405 177.299 265.121 179.052 267.808 181.119C270.738 176.796 269.183 173.658 265.231 169.693C261.01 165.464 268.369 154.641 268.548 154.382C265.295 161.534 264.094 166.54 267.316 169.364C270.375 172.044 271.075 174.843 271.284 176.173C271.627 178.41 270.271 181.104 269.476 182.454C269.963 182.858 270.455 183.276 270.936 183.699C271.418 182.693 274.74 175.476 271.86 172.044C271.86 172.044 275.142 174.41 273.23 181.378L273.325 181.234C273.28 181.393 272.466 184.252 274.636 187.012H274.417C277.263 189.926 280.019 193.303 282.631 197.252C282.626 197.252 285.168 195.22 285.903 199.474ZM260.205 201.377C260.205 201.322 260.195 197.92 257.663 197.447C255.111 196.969 255.255 199.848 255.255 199.848C257.648 198.393 260.205 201.377 260.205 201.377Z" fill="url(#paint3_linear_150_125)"/>
<path d="M309.266 143.07C254.916 75.4588 249.558 66 249.558 66C249.558 66 240.585 79.3987 189.851 143.07C179.482 156.085 176.781 167.965 180.739 177.772C183.355 184.257 188.54 188.67 193.113 191.47C197.989 194.458 201.153 199.056 201.937 204.116L204.316 215.931V193.99V193.985C204.316 193.308 203.814 192.705 203.059 192.476H203.054C202.915 192.431 190.754 188.058 186.191 176.701C182.645 167.875 186.961 157.29 196.296 144.958C221.065 112.233 243.177 84.2003 249.553 76.8036C255.924 84.2003 278.35 112.069 303.119 144.788C312.459 157.126 316.462 167.875 312.911 176.701C308.348 188.063 296.186 192.436 296.047 192.476C295.293 192.705 294.786 193.308 294.786 193.99V215.931L297.165 204.116C297.949 199.056 301.112 194.458 305.989 191.47C310.562 188.67 315.746 184.257 318.363 177.772C322.341 167.965 319.699 156.045 309.266 143.07Z" fill="url(#paint4_linear_150_125)"/>
<path d="M309.082 222.451C309.082 222.451 306.937 220.987 306.937 219.457C306.937 217.928 308.025 216.479 309.907 216.479C311.789 216.479 313.686 218.382 313.686 220.817C313.686 224.06 309.256 229.335 302.269 228.104C286.136 225.26 267.107 221.868 252.299 229.031C252.299 229.031 264.158 225.086 280.525 227.87C288.703 229.26 300.894 234.365 308.978 231.178C314.937 228.827 317.365 225.26 317.365 220.852C317.365 217.719 314.619 213.226 309.643 213.226C303.754 213.226 304.459 218.471 304.916 219.761C305.368 221.046 307.771 222.237 309.082 222.451Z" fill="url(#paint5_linear_150_125)"/>
<path d="M191.048 222.451C191.048 222.451 193.193 220.987 193.193 219.458C193.193 217.928 192.106 216.479 190.224 216.479C188.342 216.479 186.45 218.382 186.45 220.812C186.45 224.055 190.879 229.33 197.866 228.099C213.999 225.255 233.028 221.863 247.836 229.026C247.836 229.026 235.978 225.081 219.611 227.865C211.432 229.255 199.241 234.36 191.157 231.173C185.198 228.822 182.77 225.255 182.77 220.847C182.77 217.714 185.516 213.221 190.492 213.221C196.381 213.221 195.676 218.466 195.219 219.756C194.762 221.046 192.354 222.237 191.048 222.451Z" fill="url(#paint6_linear_150_125)"/>
<path d="M316.774 234.33C316.774 234.33 309.058 236.238 302.031 235.67C291.434 234.819 282.595 231.427 278.692 230.625C273.18 229.489 270.459 229.215 255.09 231.302C255.09 231.302 270.39 231.427 278.995 233.703C282.849 234.729 300.387 242.24 316.774 234.33Z" fill="url(#paint7_linear_150_125)"/>
<path d="M186.043 233.528C186.043 233.528 197.454 237.802 222.005 230.764C232.423 227.776 255.518 233.24 264.511 236.213C264.511 236.213 232.934 231.023 223.018 233.489C216.721 235.058 197.767 241.07 186.043 233.528Z" fill="url(#paint8_linear_150_125)"/>
<path d="M274.492 130.922C277.948 134.025 289.826 146.387 277.69 160.787C277.914 160.394 283.555 150.402 276.533 145.884C268.484 140.699 279.17 140.53 270.55 135.579C266.607 133.317 261.81 131.679 256.685 130.966C256.68 130.966 251.178 130.214 246.704 134.079C250.816 130.135 258.508 122.892 274.492 130.922Z" fill="url(#paint9_linear_150_125)"/>
<path d="M224.775 124.75C227.015 122.818 229.676 121.034 232.78 119.714C255.667 110.027 269.65 125.971 269.65 125.971C260.25 121.084 255.781 119.505 244.559 122.07C247.002 121.572 259.068 119.834 273.618 130.179C273.618 130.179 273.951 130.433 274.492 130.917C259.625 124.915 250.82 130.135 246.704 134.084C245.735 134.916 244.817 135.967 244.017 137.287C243.923 137.437 243.873 137.521 243.873 137.521C243.873 137.521 233.068 135.873 226.21 146.537C226.29 146.198 228.966 135.31 240.358 128.282C231.221 132.799 226.94 137.765 223.663 143.18C220.808 147.907 220.132 154.815 224.015 158.71C218.935 153.61 212.033 139.653 223.727 125.642C224.065 125.338 224.413 125.039 224.775 124.75Z" fill="url(#paint10_linear_150_125)"/>
<path d="M285.903 199.474C286.643 203.728 275.222 206.716 271.532 206.716C271.532 206.716 277.635 210.691 284.95 205.869C284.88 206.054 282.536 211.941 272.913 212.305C269.213 212.444 265.936 211.682 262.956 210.796C262.748 210.741 255.438 208.933 246.684 216.27C246.783 216.1 250.115 210.666 258.045 209.276C256.849 208.933 255.692 208.654 254.569 208.509C247.349 209.794 240.993 214.855 240.993 214.855C229.16 224.603 218.796 212.798 218.796 212.798C227.62 217.664 232.035 218.89 239.503 213.206C243.277 210.337 251.083 206.94 255.011 205.531C252.906 204.943 249.226 204.415 246.038 206.507C241.241 209.655 241.981 199.539 243.391 197.751C243.391 197.751 240.511 199.404 240.303 203.663C240.814 208.191 237.433 209.451 234.736 210.397C232.03 211.349 230.679 213.874 230.679 213.874C230.679 213.874 230.833 211.543 230.426 208.494C230.024 205.446 235.615 204.699 237.15 204.42C237.86 204.291 238.242 204.066 238.456 203.867C233.718 201.073 221.105 192.595 214.372 178.181C206.198 160.683 211.308 149.565 211.308 149.565C211.308 149.565 211.432 176.851 231.449 187.017C231.449 187.017 219.914 178.893 215.355 161.853C213.394 154.526 210.379 137.506 223.732 125.637C212.038 139.648 219.884 153.276 224.02 158.705C224.606 159.587 225.296 160.414 226.091 161.151C226.106 161.166 226.116 161.176 226.116 161.176C227.049 162.047 228.122 162.799 229.343 163.402C236.837 167.123 247.424 169.275 258.269 175.013C258.323 174.913 258.552 174.345 257.613 173.299C256.571 172.139 252.588 168.134 254.758 165.962C256.928 163.791 258.224 161.848 258.224 161.848C258.224 161.848 257.762 164.677 259.331 167.083C260.891 169.479 262.793 172.527 259.694 175.785C262.405 177.299 265.121 179.052 267.808 181.119C270.738 176.796 269.183 173.658 265.231 169.693C261.01 165.464 268.369 154.641 268.548 154.382C265.295 161.534 264.094 166.54 267.316 169.364C270.375 172.044 271.075 174.843 271.284 176.173C271.627 178.41 270.271 181.104 269.476 182.454C269.963 182.858 270.455 183.276 270.936 183.699C271.418 182.693 274.74 175.476 271.86 172.044C271.86 172.044 275.142 174.41 273.23 181.378L273.325 181.234C273.28 181.393 272.466 184.252 274.636 187.012H274.417C277.263 189.926 280.019 193.303 282.631 197.252C282.626 197.252 285.168 195.22 285.903 199.474ZM260.205 201.377C260.205 201.322 260.195 197.92 257.663 197.447C255.111 196.969 255.255 199.848 255.255 199.848C257.648 198.393 260.205 201.377 260.205 201.377Z" fill="url(#paint11_linear_150_125)"/>
<path d="M309.266 143.07C254.916 75.4588 249.558 66 249.558 66C249.558 66 240.585 79.3987 189.851 143.07C179.482 156.085 176.781 167.965 180.739 177.772C183.355 184.257 188.54 188.67 193.113 191.47C197.989 194.458 201.153 199.056 201.937 204.116L204.316 215.931V193.99V193.985C204.316 193.308 203.814 192.705 203.059 192.476H203.054C202.915 192.431 190.754 188.058 186.191 176.701C182.645 167.875 186.961 157.29 196.296 144.958C221.065 112.233 243.177 84.2003 249.553 76.8036C255.924 84.2003 278.35 112.069 303.119 144.788C312.459 157.126 316.462 167.875 312.911 176.701C308.348 188.063 296.186 192.436 296.047 192.476C295.293 192.705 294.786 193.308 294.786 193.99V215.931L297.165 204.116C297.949 199.056 301.112 194.458 305.989 191.47C310.562 188.67 315.746 184.257 318.363 177.772C322.341 167.965 319.699 156.045 309.266 143.07Z" fill="url(#paint12_linear_150_125)"/>
<path d="M309.082 222.451C309.082 222.451 306.937 220.987 306.937 219.457C306.937 217.928 308.025 216.479 309.907 216.479C311.789 216.479 313.686 218.382 313.686 220.817C313.686 224.06 309.256 229.335 302.269 228.104C286.136 225.26 267.107 221.868 252.299 229.031C252.299 229.031 264.158 225.086 280.525 227.87C288.703 229.26 300.894 234.365 308.978 231.178C314.937 228.827 317.365 225.26 317.365 220.852C317.365 217.719 314.619 213.226 309.643 213.226C303.754 213.226 304.459 218.471 304.916 219.761C305.368 221.046 307.771 222.237 309.082 222.451Z" fill="url(#paint13_linear_150_125)"/>
<path d="M191.048 222.451C191.048 222.451 193.193 220.987 193.193 219.458C193.193 217.928 192.106 216.479 190.224 216.479C188.342 216.479 186.45 218.382 186.45 220.812C186.45 224.055 190.879 229.33 197.866 228.099C213.999 225.255 233.028 221.863 247.836 229.026C247.836 229.026 235.978 225.081 219.611 227.865C211.432 229.255 199.241 234.36 191.157 231.173C185.198 228.822 182.77 225.255 182.77 220.847C182.77 217.714 185.516 213.221 190.492 213.221C196.381 213.221 195.676 218.466 195.219 219.756C194.762 221.046 192.354 222.237 191.048 222.451Z" fill="url(#paint14_linear_150_125)"/>
<path d="M316.774 234.33C316.774 234.33 309.058 236.238 302.031 235.67C291.434 234.819 282.595 231.427 278.692 230.625C273.18 229.489 270.459 229.215 255.09 231.302C255.09 231.302 270.39 231.427 278.995 233.703C282.849 234.729 300.387 242.24 316.774 234.33Z" fill="url(#paint15_linear_150_125)"/>
<path d="M186.043 233.528C186.043 233.528 197.454 237.802 222.005 230.764C232.423 227.776 255.518 233.24 264.511 236.213C264.511 236.213 232.934 231.023 223.018 233.489C216.721 235.058 197.767 241.07 186.043 233.528Z" fill="url(#paint16_linear_150_125)"/>
<path d="M274.492 130.922C277.948 134.025 289.826 146.387 277.69 160.787C277.914 160.394 283.555 150.402 276.533 145.884C268.484 140.699 279.17 140.53 270.55 135.579C266.607 133.317 261.81 131.679 256.685 130.966C256.68 130.966 251.178 130.214 246.704 134.079C250.816 130.135 258.508 122.892 274.492 130.922Z" fill="url(#paint17_linear_150_125)"/>
<path d="M224.775 124.75C227.015 122.818 229.676 121.034 232.78 119.714C255.667 110.027 269.65 125.971 269.65 125.971C260.25 121.084 255.781 119.505 244.559 122.07C247.002 121.572 259.068 119.834 273.618 130.179C273.618 130.179 273.951 130.433 274.492 130.917C259.625 124.915 250.82 130.135 246.704 134.084C245.735 134.916 244.817 135.967 244.017 137.287C243.923 137.437 243.873 137.521 243.873 137.521C243.873 137.521 233.068 135.873 226.21 146.537C226.29 146.198 228.966 135.31 240.358 128.282C231.221 132.799 226.94 137.765 223.663 143.18C220.808 147.907 220.132 154.815 224.015 158.71C218.935 153.61 212.033 139.653 223.727 125.642C224.065 125.338 224.413 125.039 224.775 124.75Z" fill="url(#paint18_linear_150_125)"/>
<path d="M285.903 199.474C286.643 203.728 275.222 206.716 271.532 206.716C271.532 206.716 277.635 210.691 284.95 205.869C284.88 206.054 282.536 211.941 272.913 212.305C269.213 212.444 265.936 211.682 262.956 210.796C262.748 210.741 255.438 208.933 246.684 216.27C246.783 216.1 250.115 210.666 258.045 209.276C256.849 208.933 255.692 208.654 254.569 208.509C247.349 209.794 240.993 214.855 240.993 214.855C229.16 224.603 218.796 212.798 218.796 212.798C227.62 217.664 232.035 218.89 239.503 213.206C243.277 210.337 251.083 206.94 255.011 205.531C252.906 204.943 249.226 204.415 246.038 206.507C241.241 209.655 241.981 199.539 243.391 197.751C243.391 197.751 240.511 199.404 240.303 203.663C240.814 208.191 237.433 209.451 234.736 210.397C232.03 211.349 230.679 213.874 230.679 213.874C230.679 213.874 230.833 211.543 230.426 208.494C230.024 205.446 235.615 204.699 237.15 204.42C237.86 204.291 238.242 204.066 238.456 203.867C233.718 201.073 221.105 192.595 214.372 178.181C206.198 160.683 211.308 149.565 211.308 149.565C211.308 149.565 211.432 176.851 231.449 187.017C231.449 187.017 219.914 178.893 215.355 161.853C213.394 154.526 210.379 137.506 223.732 125.637C212.038 139.648 219.884 153.276 224.02 158.705C224.606 159.587 225.296 160.414 226.091 161.151C226.106 161.166 226.116 161.176 226.116 161.176C227.049 162.047 228.122 162.799 229.343 163.402C236.837 167.123 247.424 169.275 258.269 175.013C258.323 174.913 258.552 174.345 257.613 173.299C256.571 172.139 252.588 168.134 254.758 165.962C256.928 163.791 258.224 161.848 258.224 161.848C258.224 161.848 257.762 164.677 259.331 167.083C260.891 169.479 262.793 172.527 259.694 175.785C262.405 177.299 265.121 179.052 267.808 181.119C270.738 176.796 269.183 173.658 265.231 169.693C261.01 165.464 268.369 154.641 268.548 154.382C265.295 161.534 264.094 166.54 267.316 169.364C270.375 172.044 271.075 174.843 271.284 176.173C271.627 178.41 270.271 181.104 269.476 182.454C269.963 182.858 270.455 183.276 270.936 183.699C271.418 182.693 274.74 175.476 271.86 172.044C271.86 172.044 275.142 174.41 273.23 181.378L273.325 181.234C273.28 181.393 272.466 184.252 274.636 187.012H274.417C277.263 189.926 280.019 193.303 282.631 197.252C282.626 197.252 285.168 195.22 285.903 199.474ZM260.205 201.377C260.205 201.322 260.195 197.92 257.663 197.447C255.111 196.969 255.255 199.848 255.255 199.848C257.648 198.393 260.205 201.377 260.205 201.377Z" fill="url(#paint19_linear_150_125)"/>
<path d="M309.266 143.07C254.916 75.4588 249.558 66 249.558 66C249.558 66 240.585 79.3987 189.851 143.07C179.482 156.085 176.781 167.965 180.739 177.772C183.355 184.257 188.54 188.67 193.113 191.47C197.989 194.458 201.153 199.056 201.937 204.116L204.316 215.931V193.99V193.985C204.316 193.308 203.814 192.705 203.059 192.476H203.054C202.915 192.431 190.754 188.058 186.191 176.701C182.645 167.875 186.961 157.29 196.296 144.958C221.065 112.233 243.177 84.2003 249.553 76.8036C255.924 84.2003 278.35 112.069 303.119 144.788C312.459 157.126 316.462 167.875 312.911 176.701C308.348 188.063 296.186 192.436 296.047 192.476C295.293 192.705 294.786 193.308 294.786 193.99V215.931L297.165 204.116C297.949 199.056 301.112 194.458 305.989 191.47C310.562 188.67 315.746 184.257 318.363 177.772C322.341 167.965 319.699 156.045 309.266 143.07Z" fill="url(#paint20_linear_150_125)"/>
<path d="M309.082 222.451C309.082 222.451 306.937 220.987 306.937 219.457C306.937 217.928 308.025 216.479 309.907 216.479C311.789 216.479 313.686 218.382 313.686 220.817C313.686 224.06 309.256 229.335 302.269 228.104C286.136 225.26 267.107 221.868 252.299 229.031C252.299 229.031 264.158 225.086 280.525 227.87C288.703 229.26 300.894 234.365 308.978 231.178C314.937 228.827 317.365 225.26 317.365 220.852C317.365 217.719 314.619 213.226 309.643 213.226C303.754 213.226 304.459 218.471 304.916 219.761C305.368 221.046 307.771 222.237 309.082 222.451Z" fill="url(#paint21_linear_150_125)"/>
<path d="M191.048 222.451C191.048 222.451 193.193 220.987 193.193 219.458C193.193 217.928 192.106 216.479 190.224 216.479C188.342 216.479 186.45 218.382 186.45 220.812C186.45 224.055 190.879 229.33 197.866 228.099C213.999 225.255 233.028 221.863 247.836 229.026C247.836 229.026 235.978 225.081 219.611 227.865C211.432 229.255 199.241 234.36 191.157 231.173C185.198 228.822 182.77 225.255 182.77 220.847C182.77 217.714 185.516 213.221 190.492 213.221C196.381 213.221 195.676 218.466 195.219 219.756C194.762 221.046 192.354 222.237 191.048 222.451Z" fill="url(#paint22_linear_150_125)"/>
<path d="M316.774 234.33C316.774 234.33 309.058 236.238 302.031 235.67C291.434 234.819 282.595 231.427 278.692 230.625C273.18 229.489 270.459 229.215 255.09 231.302C255.09 231.302 270.39 231.427 278.995 233.703C282.849 234.729 300.387 242.24 316.774 234.33Z" fill="url(#paint23_linear_150_125)"/>
<path d="M186.043 233.528C186.043 233.528 197.454 237.802 222.005 230.764C232.423 227.776 255.518 233.24 264.511 236.213C264.511 236.213 232.934 231.023 223.018 233.489C216.721 235.058 197.767 241.07 186.043 233.528Z" fill="url(#paint24_linear_150_125)"/>
<defs>
<radialGradient id="paint0_radial_150_125" cx="0" cy="0" r="1" gradientUnits="userSpaceOnUse" gradientTransform="translate(253 234.33) rotate(90) scale(316.671 341.902)">
<stop stop-color="white"/>
<stop offset="1" stop-color="#E0F4FF"/>
</radialGradient>
<linearGradient id="paint1_linear_150_125" x1="262.514" y1="126.775" x2="268.808" y2="162.359" gradientUnits="userSpaceOnUse">
<stop offset="0.3352" stop-color="#056399"/>
<stop offset="0.6872" stop-color="#1D7CB8"/>
</linearGradient>
<linearGradient id="paint2_linear_150_125" x1="216.371" y1="146.768" x2="266.88" y2="117.696" gradientUnits="userSpaceOnUse">
<stop offset="0.3464" stop-color="#52A4DA"/>
<stop offset="0.7095" stop-color="#1D7CB8"/>
</linearGradient>
<linearGradient id="paint3_linear_150_125" x1="207.126" y1="167.984" x2="289.287" y2="185.394" gradientUnits="userSpaceOnUse">
<stop offset="0.1899" stop-color="#1D7CB8"/>
<stop offset="0.743" stop-color="#056399"/>
</linearGradient>
<linearGradient id="paint4_linear_150_125" x1="282.352" y1="77.9716" x2="228.732" y2="224.841" gradientUnits="userSpaceOnUse">
<stop offset="0.3464" stop-color="#52A4DA"/>
<stop offset="0.7095" stop-color="#1D7CB8"/>
</linearGradient>
<linearGradient id="paint5_linear_150_125" x1="282.45" y1="217.824" x2="289.873" y2="238.154" gradientUnits="userSpaceOnUse">
<stop offset="0.3464" stop-color="#52A4DA"/>
<stop offset="0.7095" stop-color="#1D7CB8"/>
</linearGradient>
<linearGradient id="paint6_linear_150_125" x1="217.679" y1="217.824" x2="210.257" y2="238.154" gradientUnits="userSpaceOnUse">
<stop offset="0.3464" stop-color="#52A4DA"/>
<stop offset="0.7095" stop-color="#1D7CB8"/>
</linearGradient>
<linearGradient id="paint7_linear_150_125" x1="281.843" y1="221.538" x2="290.131" y2="244.241" gradientUnits="userSpaceOnUse">
<stop offset="0.3464" stop-color="#52A4DA"/>
<stop offset="0.7095" stop-color="#1D7CB8"/>
</linearGradient>
<linearGradient id="paint8_linear_150_125" x1="229.435" y1="223.412" x2="220.904" y2="246.777" gradientUnits="userSpaceOnUse">
<stop offset="0.3464" stop-color="#52A4DA"/>
<stop offset="0.7095" stop-color="#1D7CB8"/>
</linearGradient>
<linearGradient id="paint9_linear_150_125" x1="262.514" y1="126.775" x2="268.808" y2="162.359" gradientUnits="userSpaceOnUse">
<stop offset="0.3352" stop-color="#056399"/>
<stop offset="0.6872" stop-color="#1D7CB8"/>
</linearGradient>
<linearGradient id="paint10_linear_150_125" x1="216.371" y1="146.768" x2="266.88" y2="117.696" gradientUnits="userSpaceOnUse">
<stop offset="0.3464" stop-color="#52A4DA"/>
<stop offset="0.7095" stop-color="#1D7CB8"/>
</linearGradient>
<linearGradient id="paint11_linear_150_125" x1="207.126" y1="167.984" x2="289.287" y2="185.394" gradientUnits="userSpaceOnUse">
<stop offset="0.1899" stop-color="#1D7CB8"/>
<stop offset="0.743" stop-color="#056399"/>
</linearGradient>
<linearGradient id="paint12_linear_150_125" x1="282.352" y1="77.9716" x2="228.732" y2="224.841" gradientUnits="userSpaceOnUse">
<stop offset="0.3464" stop-color="#52A4DA"/>
<stop offset="0.7095" stop-color="#1D7CB8"/>
</linearGradient>
<linearGradient id="paint13_linear_150_125" x1="282.45" y1="217.824" x2="289.873" y2="238.154" gradientUnits="userSpaceOnUse">
<stop offset="0.3464" stop-color="#52A4DA"/>
<stop offset="0.7095" stop-color="#1D7CB8"/>
</linearGradient>
<linearGradient id="paint14_linear_150_125" x1="217.679" y1="217.824" x2="210.257" y2="238.154" gradientUnits="userSpaceOnUse">
<stop offset="0.3464" stop-color="#52A4DA"/>
<stop offset="0.7095" stop-color="#1D7CB8"/>
</linearGradient>
<linearGradient id="paint15_linear_150_125" x1="281.843" y1="221.538" x2="290.131" y2="244.241" gradientUnits="userSpaceOnUse">
<stop offset="0.3464" stop-color="#52A4DA"/>
<stop offset="0.7095" stop-color="#1D7CB8"/>
</linearGradient>
<linearGradient id="paint16_linear_150_125" x1="229.435" y1="223.412" x2="220.904" y2="246.777" gradientUnits="userSpaceOnUse">
<stop offset="0.3464" stop-color="#52A4DA"/>
<stop offset="0.7095" stop-color="#1D7CB8"/>
</linearGradient>
<linearGradient id="paint17_linear_150_125" x1="262.514" y1="126.775" x2="268.808" y2="162.359" gradientUnits="userSpaceOnUse">
<stop offset="0.3352" stop-color="#056399"/>
<stop offset="0.6872" stop-color="#1D7CB8"/>
</linearGradient>
<linearGradient id="paint18_linear_150_125" x1="216.371" y1="146.768" x2="266.88" y2="117.696" gradientUnits="userSpaceOnUse">
<stop offset="0.3464" stop-color="#52A4DA"/>
<stop offset="0.7095" stop-color="#1D7CB8"/>
</linearGradient>
<linearGradient id="paint19_linear_150_125" x1="207.126" y1="167.984" x2="289.287" y2="185.394" gradientUnits="userSpaceOnUse">
<stop offset="0.1899" stop-color="#1D7CB8"/>
<stop offset="0.743" stop-color="#056399"/>
</linearGradient>
<linearGradient id="paint20_linear_150_125" x1="282.352" y1="77.9716" x2="228.732" y2="224.841" gradientUnits="userSpaceOnUse">
<stop offset="0.3464" stop-color="#52A4DA"/>
<stop offset="0.7095" stop-color="#1D7CB8"/>
</linearGradient>
<linearGradient id="paint21_linear_150_125" x1="282.45" y1="217.824" x2="289.873" y2="238.154" gradientUnits="userSpaceOnUse">
<stop offset="0.3464" stop-color="#52A4DA"/>
<stop offset="0.7095" stop-color="#1D7CB8"/>
</linearGradient>
<linearGradient id="paint22_linear_150_125" x1="217.679" y1="217.824" x2="210.257" y2="238.154" gradientUnits="userSpaceOnUse">
<stop offset="0.3464" stop-color="#52A4DA"/>
<stop offset="0.7095" stop-color="#1D7CB8"/>
</linearGradient>
<linearGradient id="paint23_linear_150_125" x1="281.843" y1="221.538" x2="290.131" y2="244.241" gradientUnits="userSpaceOnUse">
<stop offset="0.3464" stop-color="#52A4DA"/>
<stop offset="0.7095" stop-color="#1D7CB8"/>
</linearGradient>
<linearGradient id="paint24_linear_150_125" x1="229.435" y1="223.412" x2="220.904" y2="246.777" gradientUnits="userSpaceOnUse">
<stop offset="0.3464" stop-color="#52A4DA"/>
<stop offset="0.7095" stop-color="#1D7CB8"/>
</linearGradient>
</defs>
</svg>
