<svg id="Layer_1" data-name="Layer 1" xmlns="http://www.w3.org/2000/svg" xmlns:xlink="http://www.w3.org/1999/xlink" viewBox="0 0 390 469"><defs><linearGradient id="linear-gradient" x1="134" y1="446.55" x2="140.16" y2="411.71" gradientTransform="matrix(3.43, 0, 0, -2.65, -232.11, 1351.98)" gradientUnits="userSpaceOnUse"><stop offset="0.34" stop-color="#056399"/><stop offset="0.69" stop-color="#1d7cb8"/></linearGradient><linearGradient id="linear-gradient-2" x1="96.85" y1="427.96" x2="138.43" y2="451.9" gradientTransform="matrix(3.43, 0, 0, -2.65, -232.11, 1351.98)" gradientUnits="userSpaceOnUse"><stop offset="0.35" stop-color="#52a4da"/><stop offset="0.71" stop-color="#1d7cb8"/></linearGradient><linearGradient id="linear-gradient-3" x1="90.56" y1="404.85" x2="156.77" y2="390.82" gradientTransform="matrix(3.43, 0, 0, -2.65, -232.11, 1351.98)" gradientUnits="userSpaceOnUse"><stop offset="0.19" stop-color="#1d7cb8"/><stop offset="0.74" stop-color="#056399"/></linearGradient><linearGradient id="linear-gradient-4" x1="157.28" y1="495.57" x2="104.85" y2="351.96" xlink:href="#linear-gradient-2"/><linearGradient id="linear-gradient-5" x1="150.17" y1="353.77" x2="156.25" y2="337.12" xlink:href="#linear-gradient-2"/><linearGradient id="linear-gradient-6" x1="99.42" y1="353.77" x2="93.34" y2="337.13" xlink:href="#linear-gradient-2"/><linearGradient id="linear-gradient-7" x1="149.33" y1="349.8" x2="156.11" y2="331.23" xlink:href="#linear-gradient-2"/><linearGradient id="linear-gradient-8" x1="108.73" y1="347.4" x2="102.11" y2="329.26" xlink:href="#linear-gradient-2"/></defs><path d="M261.41,178.42c9.21,8.22,40.86,41,8.52,79.18.6-1.05,15.63-27.54-3.08-39.51-21.45-13.75,7-14.2-16-27.33A104.12,104.12,0,0,0,214,178.53s-14.67-2-26.59,8.26C198.32,176.33,218.82,157.13,261.41,178.42Z" style="fill:url(#linear-gradient)"/><path d="M128.94,162.05a81.62,81.62,0,0,1,21.33-13.35c61-25.68,98.24,16.59,98.24,16.59-25-13-37-17.14-66.86-10.34,6.51-1.32,38.66-5.93,77.43,21.5,0,0,.89.67,2.33,2-39.62-15.91-63.08-2.07-74,8.4a34.89,34.89,0,0,0-7.16,8.49l-.39.62s-28.79-4.37-47.06,23.91c.21-.9,7.34-29.77,37.7-48.4-24.35,12-35.75,25.14-44.49,39.5-7.6,12.53-9.4,30.84.94,41.17-13.53-13.52-31.92-50.53-.77-87.67C127,163.61,128,162.82,128.94,162.05Z" style="fill:url(#linear-gradient-2)"/><path d="M291.81,360.16c2,11.28-28.46,19.2-38.29,19.2,0,0,16.26,10.54,35.76-2.24-.19.49-6.44,16.1-32.08,17.06-9.86.37-18.59-1.65-26.53-4-.55-.15-20-4.94-43.36,14.51.27-.45,9.14-14.86,30.28-18.54a63,63,0,0,0-9.27-2c-19.24,3.4-36.17,16.82-36.17,16.82-31.53,25.84-59.14-5.45-59.14-5.45,23.51,12.9,35.27,16.15,55.17,1.08C178.24,389,199,380,209.5,376.22c-5.61-1.56-15.41-3-23.91,2.59-12.78,8.34-10.81-18.47-7.05-23.21,0,0-7.67,4.38-8.23,15.67,1.36,12-7.65,15.34-14.83,17.85s-10.81,9.22-10.81,9.22a79.13,79.13,0,0,0-.68-14.26c-1.07-8.08,13.83-10.07,17.92-10.8a6.78,6.78,0,0,0,3.48-1.47c-12.62-7.41-46.23-29.89-64.17-68.1-21.78-46.39-8.17-75.87-8.17-75.87s.33,72.34,53.67,99.3c0,0-30.74-21.54-42.88-66.72-5.23-19.42-13.26-64.55,22.32-96-31.16,37.15-10.26,73.28.76,87.68a36.09,36.09,0,0,0,5.52,6.48l.07.07a35.69,35.69,0,0,0,8.6,5.9c20,9.86,48.17,15.57,77.07,30.78.15-.26.76-1.77-1.75-4.54-2.77-3.08-13.38-13.7-7.6-19.46a80.21,80.21,0,0,0,9.23-10.9s-1.23,7.5,2.95,13.88,9.23,14.43,1,23.07A176.27,176.27,0,0,1,243.6,311.5c7.81-11.46,3.66-19.78-6.87-30.29-11.24-11.21,8.36-39.91,8.84-40.6-8.67,19-11.87,32.24-3.28,39.72,8.15,7.11,10,14.53,10.57,18.06.91,5.93-2.7,13.07-4.82,16.65,1.3,1.07,2.61,2.18,3.89,3.3,1.29-2.67,10.14-21.8,2.47-30.9,0,0,8.74,6.27,3.65,24.75l.25-.38a17.66,17.66,0,0,0,3.49,15.31h-.58a183.56,183.56,0,0,1,21.88,27.15S289.86,348.88,291.81,360.16Zm-68.47,5c0-.15,0-9.17-6.77-10.42s-6.42,6.36-6.42,6.36C216.53,357.3,223.34,365.21,223.34,365.21Z" style="fill:url(#linear-gradient-3)"/><path d="M354.06,210.62C209.25,31.37,195,6.3,195,6.3S171.06,41.82,35.88,210.62c-27.63,34.51-34.83,66-24.28,92,7,17.19,20.79,28.89,33,36.31,13,7.92,21.43,20.12,23.51,33.53l6.34,31.32V345.62h0a4.35,4.35,0,0,0-3.35-4h0c-.37-.12-32.77-11.71-44.93-41.82-9.45-23.4,2.05-51.47,26.92-84.16C119.05,128.87,178,54.55,195,34.94c17,19.61,76.73,93.5,142.73,180.24,24.88,32.71,35.55,61.21,26.09,84.61-12.16,30.12-44.57,41.71-44.94,41.82a4.37,4.37,0,0,0-3.36,4v58.17l6.34-31.32c2.09-13.41,10.52-25.61,23.51-33.53,12.19-7.42,26-19.12,33-36.31C388.9,276.62,381.86,245,354.06,210.62Z" style="fill:url(#linear-gradient-4)"/><path d="M353.57,421.08s-5.71-3.88-5.71-7.94a7.69,7.69,0,0,1,7.91-7.89c5,0,10.07,5,10.07,11.5,0,8.6-11.8,22.58-30.42,19.32-43-7.54-93.69-16.54-133.15,2.45,0,0,31.6-10.45,75.21-3.07,21.79,3.68,54.28,17.22,75.82,8.77,15.87-6.24,22.35-15.69,22.35-27.38,0-8.31-7.32-20.22-20.58-20.22-15.69,0-13.81,13.91-12.6,17.33S350.08,420.51,353.57,421.08Z" style="fill:url(#linear-gradient-5)"/><path d="M39.07,421.08s5.71-3.88,5.71-7.94a7.68,7.68,0,0,0-7.91-7.89c-5,0-10,5-10,11.48,0,8.6,11.8,22.59,30.42,19.32,43-7.54,93.69-16.53,133.14,2.46,0,0-31.59-10.46-75.2-3.08-21.8,3.69-54.28,17.22-75.82,8.77C23.48,438,17,428.51,17,416.83c0-8.31,7.32-20.22,20.58-20.22,15.69,0,13.81,13.9,12.59,17.33S42.55,420.51,39.07,421.08Z" style="fill:url(#linear-gradient-6)"/><path d="M374.07,452.57s-20.56,5.06-39.28,3.56c-28.24-2.26-51.79-11.25-62.19-13.38-14.69-3-21.94-3.74-62.89,1.79,0,0,40.77.34,63.7,6.37C283.67,453.63,330.41,473.55,374.07,452.57Z" style="fill:url(#linear-gradient-7)"/><path d="M25.73,450.45s30.41,11.33,95.83-7.33c27.76-7.92,89.29,6.56,113.25,14.45,0,0-84.13-13.76-110.55-7.23C107.48,454.5,57,470.44,25.73,450.45Z" style="fill:url(#linear-gradient-8)"/><path d="M261.41,178.42c9.21,8.22,40.86,41,8.52,79.18.6-1.05,15.63-27.54-3.08-39.51-21.45-13.75,7-14.2-16-27.33A104.12,104.12,0,0,0,214,178.53s-14.67-2-26.59,8.26C198.32,176.33,218.82,157.13,261.41,178.42Z" style="fill:url(#linear-gradient)"/><path d="M128.94,162.05a81.62,81.62,0,0,1,21.33-13.35c61-25.68,98.24,16.59,98.24,16.59-25-13-37-17.14-66.86-10.34,6.51-1.32,38.66-5.93,77.43,21.5,0,0,.89.67,2.33,2-39.62-15.91-63.08-2.07-74,8.4a34.89,34.89,0,0,0-7.16,8.49l-.39.62s-28.79-4.37-47.06,23.91c.21-.9,7.34-29.77,37.7-48.4-24.35,12-35.75,25.14-44.49,39.5-7.6,12.53-9.4,30.84.94,41.17-13.53-13.52-31.92-50.53-.77-87.67C127,163.61,128,162.82,128.94,162.05Z" style="fill:url(#linear-gradient-2)"/><path d="M291.81,360.16c2,11.28-28.46,19.2-38.29,19.2,0,0,16.26,10.54,35.76-2.24-.19.49-6.44,16.1-32.08,17.06-9.86.37-18.59-1.65-26.53-4-.55-.15-20-4.94-43.36,14.51.27-.45,9.14-14.86,30.28-18.54a63,63,0,0,0-9.27-2c-19.24,3.4-36.17,16.82-36.17,16.82-31.53,25.84-59.14-5.45-59.14-5.45,23.51,12.9,35.27,16.15,55.17,1.08C178.24,389,199,380,209.5,376.22c-5.61-1.56-15.41-3-23.91,2.59-12.78,8.34-10.81-18.47-7.05-23.21,0,0-7.67,4.38-8.23,15.67,1.36,12-7.65,15.34-14.83,17.85s-10.81,9.22-10.81,9.22a79.13,79.13,0,0,0-.68-14.26c-1.07-8.08,13.83-10.07,17.92-10.8a6.78,6.78,0,0,0,3.48-1.47c-12.62-7.41-46.23-29.89-64.17-68.1-21.78-46.39-8.17-75.87-8.17-75.87s.33,72.34,53.67,99.3c0,0-30.74-21.54-42.88-66.72-5.23-19.42-13.26-64.55,22.32-96-31.16,37.15-10.26,73.28.76,87.68a36.09,36.09,0,0,0,5.52,6.48l.07.07a35.69,35.69,0,0,0,8.6,5.9c20,9.86,48.17,15.57,77.07,30.78.15-.26.76-1.77-1.75-4.54-2.77-3.08-13.38-13.7-7.6-19.46a80.21,80.21,0,0,0,9.23-10.9s-1.23,7.5,2.95,13.88,9.23,14.43,1,23.07A176.27,176.27,0,0,1,243.6,311.5c7.81-11.46,3.66-19.78-6.87-30.29-11.24-11.21,8.36-39.91,8.84-40.6-8.67,19-11.87,32.24-3.28,39.72,8.15,7.11,10,14.53,10.57,18.06.91,5.93-2.7,13.07-4.82,16.65,1.3,1.07,2.61,2.18,3.89,3.3,1.29-2.67,10.14-21.8,2.47-30.9,0,0,8.74,6.27,3.65,24.75l.25-.38a17.66,17.66,0,0,0,3.49,15.31h-.58a183.56,183.56,0,0,1,21.88,27.15S289.86,348.88,291.81,360.16Zm-68.47,5c0-.15,0-9.17-6.77-10.42s-6.42,6.36-6.42,6.36C216.53,357.3,223.34,365.21,223.34,365.21Z" style="fill:url(#linear-gradient-3)"/><path d="M354.06,210.62C209.25,31.37,195,6.3,195,6.3S171.06,41.82,35.88,210.62c-27.63,34.51-34.83,66-24.28,92,7,17.19,20.79,28.89,33,36.31,13,7.92,21.43,20.12,23.51,33.53l6.34,31.32V345.62h0a4.35,4.35,0,0,0-3.35-4h0c-.37-.12-32.77-11.71-44.93-41.82-9.45-23.4,2.05-51.47,26.92-84.16C119.05,128.87,178,54.55,195,34.94c17,19.61,76.73,93.5,142.73,180.24,24.88,32.71,35.55,61.21,26.09,84.61-12.16,30.12-44.57,41.71-44.94,41.82a4.37,4.37,0,0,0-3.36,4v58.17l6.34-31.32c2.09-13.41,10.52-25.61,23.51-33.53,12.19-7.42,26-19.12,33-36.31C388.9,276.62,381.86,245,354.06,210.62Z" style="fill:url(#linear-gradient-4)"/><path d="M353.57,421.08s-5.71-3.88-5.71-7.94a7.69,7.69,0,0,1,7.91-7.89c5,0,10.07,5,10.07,11.5,0,8.6-11.8,22.58-30.42,19.32-43-7.54-93.69-16.54-133.15,2.45,0,0,31.6-10.45,75.21-3.07,21.79,3.68,54.28,17.22,75.82,8.77,15.87-6.24,22.35-15.69,22.35-27.38,0-8.31-7.32-20.22-20.58-20.22-15.69,0-13.81,13.91-12.6,17.33S350.08,420.51,353.57,421.08Z" style="fill:url(#linear-gradient-5)"/><path d="M39.07,421.08s5.71-3.88,5.71-7.94a7.68,7.68,0,0,0-7.91-7.89c-5,0-10,5-10,11.48,0,8.6,11.8,22.59,30.42,19.32,43-7.54,93.69-16.53,133.14,2.46,0,0-31.59-10.46-75.2-3.08-21.8,3.69-54.28,17.22-75.82,8.77C23.48,438,17,428.51,17,416.83c0-8.31,7.32-20.22,20.58-20.22,15.69,0,13.81,13.9,12.59,17.33S42.55,420.51,39.07,421.08Z" style="fill:url(#linear-gradient-6)"/><path d="M374.07,452.57s-20.56,5.06-39.28,3.56c-28.24-2.26-51.79-11.25-62.19-13.38-14.69-3-21.94-3.74-62.89,1.79,0,0,40.77.34,63.7,6.37C283.67,453.63,330.41,473.55,374.07,452.57Z" style="fill:url(#linear-gradient-7)"/><path d="M25.73,450.45s30.41,11.33,95.83-7.33c27.76-7.92,89.29,6.56,113.25,14.45,0,0-84.13-13.76-110.55-7.23C107.48,454.5,57,470.44,25.73,450.45Z" style="fill:url(#linear-gradient-8)"/><path d="M261.41,178.42c9.21,8.22,40.86,41,8.52,79.18.6-1.05,15.63-27.54-3.08-39.51-21.45-13.75,7-14.2-16-27.33A104.12,104.12,0,0,0,214,178.53s-14.67-2-26.59,8.26C198.32,176.33,218.82,157.13,261.41,178.42Z" style="fill:url(#linear-gradient)"/><path d="M128.94,162.05a81.62,81.62,0,0,1,21.33-13.35c61-25.68,98.24,16.59,98.24,16.59-25-13-37-17.14-66.86-10.34,6.51-1.32,38.66-5.93,77.43,21.5,0,0,.89.67,2.33,2-39.62-15.91-63.08-2.07-74,8.4a34.89,34.89,0,0,0-7.16,8.49l-.39.62s-28.79-4.37-47.06,23.91c.21-.9,7.34-29.77,37.7-48.4-24.35,12-35.75,25.14-44.49,39.5-7.6,12.53-9.4,30.84.94,41.17-13.53-13.52-31.92-50.53-.77-87.67C127,163.61,128,162.82,128.94,162.05Z" style="fill:url(#linear-gradient-2)"/><path d="M291.81,360.16c2,11.28-28.46,19.2-38.29,19.2,0,0,16.26,10.54,35.76-2.24-.19.49-6.44,16.1-32.08,17.06-9.86.37-18.59-1.65-26.53-4-.55-.15-20-4.94-43.36,14.51.27-.45,9.14-14.86,30.28-18.54a63,63,0,0,0-9.27-2c-19.24,3.4-36.17,16.82-36.17,16.82-31.53,25.84-59.14-5.45-59.14-5.45,23.51,12.9,35.27,16.15,55.17,1.08C178.24,389,199,380,209.5,376.22c-5.61-1.56-15.41-3-23.91,2.59-12.78,8.34-10.81-18.47-7.05-23.21,0,0-7.67,4.38-8.23,15.67,1.36,12-7.65,15.34-14.83,17.85s-10.81,9.22-10.81,9.22a79.13,79.13,0,0,0-.68-14.26c-1.07-8.08,13.83-10.07,17.92-10.8a6.78,6.78,0,0,0,3.48-1.47c-12.62-7.41-46.23-29.89-64.17-68.1-21.78-46.39-8.17-75.87-8.17-75.87s.33,72.34,53.67,99.3c0,0-30.74-21.54-42.88-66.72-5.23-19.42-13.26-64.55,22.32-96-31.16,37.15-10.26,73.28.76,87.68a36.09,36.09,0,0,0,5.52,6.48l.07.07a35.69,35.69,0,0,0,8.6,5.9c20,9.86,48.17,15.57,77.07,30.78.15-.26.76-1.77-1.75-4.54-2.77-3.08-13.38-13.7-7.6-19.46a80.21,80.21,0,0,0,9.23-10.9s-1.23,7.5,2.95,13.88,9.23,14.43,1,23.07A176.27,176.27,0,0,1,243.6,311.5c7.81-11.46,3.66-19.78-6.87-30.29-11.24-11.21,8.36-39.91,8.84-40.6-8.67,19-11.87,32.24-3.28,39.72,8.15,7.11,10,14.53,10.57,18.06.91,5.93-2.7,13.07-4.82,16.65,1.3,1.07,2.61,2.18,3.89,3.3,1.29-2.67,10.14-21.8,2.47-30.9,0,0,8.74,6.27,3.65,24.75l.25-.38a17.66,17.66,0,0,0,3.49,15.31h-.58a183.56,183.56,0,0,1,21.88,27.15S289.86,348.88,291.81,360.16Zm-68.47,5c0-.15,0-9.17-6.77-10.42s-6.42,6.36-6.42,6.36C216.53,357.3,223.34,365.21,223.34,365.21Z" style="fill:url(#linear-gradient-3)"/><path d="M354.06,210.62C209.25,31.37,195,6.3,195,6.3S171.06,41.82,35.88,210.62c-27.63,34.51-34.83,66-24.28,92,7,17.19,20.79,28.89,33,36.31,13,7.92,21.43,20.12,23.51,33.53l6.34,31.32V345.62h0a4.35,4.35,0,0,0-3.35-4h0c-.37-.12-32.77-11.71-44.93-41.82-9.45-23.4,2.05-51.47,26.92-84.16C119.05,128.87,178,54.55,195,34.94c17,19.61,76.73,93.5,142.73,180.24,24.88,32.71,35.55,61.21,26.09,84.61-12.16,30.12-44.57,41.71-44.94,41.82a4.37,4.37,0,0,0-3.36,4v58.17l6.34-31.32c2.09-13.41,10.52-25.61,23.51-33.53,12.19-7.42,26-19.12,33-36.31C388.9,276.62,381.86,245,354.06,210.62Z" style="fill:url(#linear-gradient-4)"/><path d="M353.57,421.08s-5.71-3.88-5.71-7.94a7.69,7.69,0,0,1,7.91-7.89c5,0,10.07,5,10.07,11.5,0,8.6-11.8,22.58-30.42,19.32-43-7.54-93.69-16.54-133.15,2.45,0,0,31.6-10.45,75.21-3.07,21.79,3.68,54.28,17.22,75.82,8.77,15.87-6.24,22.35-15.69,22.35-27.38,0-8.31-7.32-20.22-20.58-20.22-15.69,0-13.81,13.91-12.6,17.33S350.08,420.51,353.57,421.08Z" style="fill:url(#linear-gradient-5)"/><path d="M39.07,421.08s5.71-3.88,5.71-7.94a7.68,7.68,0,0,0-7.91-7.89c-5,0-10,5-10,11.48,0,8.6,11.8,22.59,30.42,19.32,43-7.54,93.69-16.53,133.14,2.46,0,0-31.59-10.46-75.2-3.08-21.8,3.69-54.28,17.22-75.82,8.77C23.48,438,17,428.51,17,416.83c0-8.31,7.32-20.22,20.58-20.22,15.69,0,13.81,13.9,12.59,17.33S42.55,420.51,39.07,421.08Z" style="fill:url(#linear-gradient-6)"/><path d="M374.07,452.57s-20.56,5.06-39.28,3.56c-28.24-2.26-51.79-11.25-62.19-13.38-14.69-3-21.94-3.74-62.89,1.79,0,0,40.77.34,63.7,6.37C283.67,453.63,330.41,473.55,374.07,452.57Z" style="fill:url(#linear-gradient-7)"/><path d="M25.73,450.45s30.41,11.33,95.83-7.33c27.76-7.92,89.29,6.56,113.25,14.45,0,0-84.13-13.76-110.55-7.23C107.48,454.5,57,470.44,25.73,450.45Z" style="fill:url(#linear-gradient-8)"/></svg>